<svg viewBox="0 0 24 24" xmlns="http://www.w3.org/2000/svg">
  <path
    d="M10.8908 21.5C10.5498 21.5 10.2553 21.3868 10.0073 21.1605C9.75911 20.9343 9.60811 20.6558 9.55428 20.325L9.31003 18.4538C9.0422 18.3641 8.76753 18.2385 8.48603 18.077C8.2047 17.9153 7.95311 17.7422 7.73128 17.5577L5.99853 18.2943C5.68436 18.4328 5.3687 18.4462 5.05153 18.3345C4.7342 18.223 4.4877 18.0205 4.31203 17.727L3.18503 15.773C3.00936 15.4795 2.95878 15.1689 3.03328 14.8413C3.10761 14.5138 3.27811 14.2436 3.54478 14.0308L5.04278 12.9058C5.01978 12.7571 5.00345 12.6077 4.99378 12.4578C4.98411 12.3078 4.97928 12.1583 4.97928 12.0095C4.97928 11.8673 4.98411 11.7228 4.99378 11.576C5.00345 11.4292 5.01978 11.2686 5.04278 11.0943L3.54478 9.96925C3.27811 9.75642 3.1092 9.48458 3.03803 9.15375C2.96686 8.82308 3.01911 8.51092 3.19478 8.21725L4.31203 6.29225C4.4877 6.00508 4.7342 5.80417 5.05153 5.6895C5.3687 5.57467 5.68436 5.5865 5.99853 5.725L7.72153 6.452C7.9627 6.261 8.22011 6.08633 8.49378 5.928C8.76745 5.76967 9.03636 5.64242 9.30053 5.54625L9.55428 3.675C9.60811 3.34417 9.75911 3.06567 10.0073 2.8395C10.2553 2.61317 10.5498 2.5 10.8908 2.5H13.1063C13.4473 2.5 13.7418 2.61317 13.9898 2.8395C14.2379 3.06567 14.3889 3.34417 14.4428 3.675L14.687 5.55575C14.987 5.66475 15.2584 5.792 15.5013 5.9375C15.7443 6.083 15.9895 6.2545 16.237 6.452L18.0083 5.725C18.3223 5.5865 18.6379 5.57467 18.9553 5.6895C19.2726 5.80417 19.519 6.00508 19.6945 6.29225L20.812 8.227C20.9877 8.5205 21.0383 8.83108 20.9638 9.15875C20.8894 9.48625 20.7189 9.75642 20.4523 9.96925L18.9158 11.123C18.9516 11.2845 18.9712 11.4355 18.9745 11.576C18.9777 11.7163 18.9793 11.8577 18.9793 12C18.9793 12.1358 18.976 12.274 18.9695 12.4145C18.9632 12.5548 18.9402 12.7154 18.9005 12.8963L20.408 14.0308C20.6747 14.2436 20.8469 14.5138 20.9245 14.8413C21.002 15.1689 20.9529 15.4795 20.7773 15.773L19.6445 17.7172C19.469 18.0109 19.221 18.2135 18.9005 18.325C18.58 18.4365 18.2627 18.423 17.9485 18.2845L16.237 17.548C15.9895 17.7455 15.7369 17.9202 15.4793 18.072C15.2216 18.224 14.9575 18.3481 14.687 18.4443L14.4428 20.325C14.3889 20.6558 14.2379 20.9343 13.9898 21.1605C13.7418 21.3868 13.4473 21.5 13.1063 21.5H10.8908ZM10.9985 20H12.964L13.3235 17.3212C13.8339 17.1879 14.3002 16.9985 14.7225 16.753C15.145 16.5073 15.5524 16.1916 15.9448 15.8057L18.4293 16.85L19.414 15.15L17.2448 13.5155C17.3281 13.2565 17.3848 13.0026 17.4148 12.7537C17.4449 12.5051 17.46 12.2538 17.46 12C17.46 11.7397 17.4449 11.4884 17.4148 11.2463C17.3848 11.0039 17.3281 10.7564 17.2448 10.5038L19.433 8.85L18.4485 7.15L15.935 8.2095C15.6004 7.85183 15.1994 7.53583 14.7323 7.2615C14.2649 6.98717 13.7922 6.79292 13.314 6.67875L12.9985 4H11.014L10.683 6.66925C10.1729 6.78975 9.70178 6.97433 9.26978 7.223C8.83761 7.47183 8.42536 7.79233 8.03303 8.1845L5.54853 7.15L4.56403 8.85L6.72353 10.4595C6.6402 10.6968 6.58186 10.9437 6.54853 11.2C6.5152 11.4563 6.49853 11.7262 6.49853 12.0095C6.49853 12.2698 6.5152 12.525 6.54853 12.775C6.58186 13.025 6.63703 13.2718 6.71403 13.5155L4.56403 15.15L5.54853 16.85L8.02353 15.8C8.40303 16.1897 8.80878 16.5089 9.24078 16.7578C9.67295 17.0064 10.1505 17.1974 10.6735 17.3307L10.9985 20Z"
  ></path>
  <path
    fill-rule="evenodd"
    clip-rule="evenodd"
    d="M14.134 9.876C13.55 9.292 12.842 9 12.01 9C11.1677 9 10.4571 9.292 9.87826 9.876C9.29943 10.46 9.01001 11.168 9.01001 12C9.01001 12.832 9.29943 13.54 9.87826 14.124C10.4571 14.708 11.1677 15 12.01 15C12.842 15 13.55 14.708 14.134 14.124C14.718 13.54 15.01 12.832 15.01 12C15.01 11.168 14.718 10.46 14.134 9.876ZM12.01 13.5C12.4475 13.5 12.773 13.3637 13.0733 13.0633C13.3737 12.763 13.51 12.4375 13.51 12C13.51 11.5625 13.3737 11.237 13.0733 10.9367C12.773 10.6363 12.4475 10.5 12.01 10.5C11.5569 10.5 11.2332 10.6398 10.9436 10.9319C10.6469 11.2313 10.51 11.5583 10.51 12C10.51 12.4417 10.6469 12.7687 10.9436 13.0681C11.2332 13.3602 11.5569 13.5 12.01 13.5Z"
  ></path>
</svg>
