<svg viewBox="0 0 24 24" xmlns="http://www.w3.org/2000/svg">
  <path
    d="M4 19H8.3365V11H4V19ZM9.8365 19H14.1635V5H9.8365V19ZM15.6635 19H20V13H15.6635V19ZM2.5 18.6923V11.3078C2.5 10.8106 2.677 10.385 3.031 10.031C3.385 9.677 3.81058 9.5 4.30775 9.5H8.3365V5.30775C8.3365 4.81058 8.5135 4.385 8.8675 4.031C9.2215 3.677 9.64708 3.5 10.1442 3.5H13.8558C14.3529 3.5 14.7785 3.677 15.1325 4.031C15.4865 4.385 15.6635 4.81058 15.6635 5.30775V11.5H19.6923C20.1894 11.5 20.615 11.677 20.969 12.031C21.323 12.385 21.5 12.8106 21.5 13.3077V18.6923C21.5 19.1894 21.323 19.615 20.969 19.969C20.615 20.323 20.1894 20.5 19.6923 20.5H4.30775C3.81058 20.5 3.385 20.323 3.031 19.969C2.677 19.615 2.5 19.1894 2.5 18.6923Z"
  ></path>
</svg>
