<svg viewBox="0 0 24 24" xmlns="http://www.w3.org/2000/svg">
  <path
    d="M0.767045 8.4375C0.549716 8.4375 0.367585 8.36395 0.220654 8.21685C0.0735513 8.06974 0 7.88753 0 7.6702C0 7.4527 0.0735513 7.27057 0.220654 7.12381C0.367585 6.97687 0.549716 6.90341 0.767045 6.90341H7.23196C7.27116 6.90341 7.30884 6.89685 7.34497 6.88372C7.38111 6.8706 7.41554 6.84767 7.44827 6.81494L12.7291 1.53409H10.483C10.2656 1.53409 10.0834 1.46054 9.93631 1.31344C9.78937 1.16634 9.71591 0.984119 9.71591 0.76679C9.71591 0.54929 9.78937 0.367159 9.93631 0.220398C10.0834 0.0734658 10.2656 0 10.483 0H14.4164C14.6784 0 14.8979 0.088637 15.075 0.26591C15.2523 0.443012 15.3409 0.662556 15.3409 0.924545V4.85795C15.3409 5.07528 15.2674 5.2575 15.1203 5.4046C14.9732 5.55153 14.7909 5.625 14.5736 5.625C14.3561 5.625 14.174 5.55153 14.0272 5.4046C13.8803 5.2575 13.8068 5.07528 13.8068 4.85795V2.61179L8.52008 7.89852C8.35219 8.06642 8.15523 8.19818 7.9292 8.29381C7.70318 8.3896 7.46548 8.4375 7.21611 8.4375H0.767045ZM10.483 15.3409C10.2656 15.3409 10.0834 15.2674 9.93631 15.1203C9.78937 14.9732 9.71591 14.7909 9.71591 14.5736C9.71591 14.3561 9.78937 14.174 9.93631 14.0272C10.0834 13.8803 10.2656 13.8068 10.483 13.8068H12.7291L9.67653 10.7701C9.52449 10.618 9.44685 10.4374 9.44361 10.2283C9.4402 10.0191 9.51784 9.83523 9.67653 9.67653C9.83523 9.51784 10.0201 9.43849 10.2311 9.43849C10.4423 9.43849 10.6272 9.51784 10.7857 9.67653L13.8068 12.7291V10.483C13.8068 10.2656 13.8804 10.0834 14.0275 9.93631C14.1746 9.78937 14.3568 9.71591 14.5741 9.71591C14.7916 9.71591 14.9738 9.78937 15.1205 9.93631C15.2674 10.0834 15.3409 10.2656 15.3409 10.483V14.4164C15.3409 14.6784 15.2523 14.8979 15.075 15.075C14.8979 15.2523 14.6784 15.3409 14.4164 15.3409H10.483Z"
  ></path>
</svg>
