<svg viewBox="0 0 24 24" xmlns="http://www.w3.org/2000/svg">
  <path
    d="M17.504 11.2564L12.3347 6.08711C12.1861 5.93844 12.1127 5.76444 12.1145 5.56511C12.1165 5.36577 12.195 5.18852 12.35 5.03336C12.5052 4.88852 12.6808 4.81352 12.877 4.80836C13.0732 4.80319 13.2488 4.87819 13.404 5.03336L19.7443 11.3736C19.8379 11.4673 19.9039 11.566 19.9423 11.6699C19.9808 11.7737 20 11.8859 20 12.0064C20 12.1269 19.9808 12.239 19.9423 12.3429C19.9039 12.4467 19.8379 12.5454 19.7443 12.6391L13.404 18.9794C13.2655 19.1179 13.094 19.1887 12.8895 19.1919C12.685 19.195 12.5052 19.1242 12.35 18.9794C12.195 18.8242 12.1175 18.646 12.1175 18.4449C12.1175 18.2435 12.195 18.0653 12.35 17.9101L17.504 12.7564L4.75 12.7564C4.53717 12.7564 4.359 12.6845 4.2155 12.5409C4.07183 12.3974 4 12.2192 4 12.0064C4 11.7935 4.07183 11.6154 4.2155 11.4719C4.359 11.3282 4.53717 11.2564 4.75 11.2564L17.504 11.2564Z"
  ></path>
</svg>
