<svg viewBox="0 0 24 24" xmlns="http://www.w3.org/2000/svg">
  <path
    d="M11.25 6.496L6.08076 11.6652C5.93209 11.8139 5.75809 11.8873 5.55876 11.8855C5.35942 11.8835 5.18217 11.805 5.02701 11.65C4.88217 11.4948 4.80717 11.3192 4.80201 11.123C4.79684 10.9268 4.87184 10.7512 5.02701 10.596L11.3673 4.25575C11.4609 4.16208 11.5597 4.09608 11.6635 4.05775C11.7673 4.01925 11.8795 4 12 4C12.1205 4 12.2327 4.01925 12.3365 4.05775C12.4403 4.09608 12.5391 4.16208 12.6328 4.25575L18.973 10.596C19.1115 10.7345 19.1823 10.906 19.1855 11.1105C19.1887 11.315 19.1178 11.4948 18.973 11.65C18.8178 11.805 18.6397 11.8825 18.4385 11.8825C18.2372 11.8825 18.0589 11.805 17.9038 11.65L12.75 6.496V19.25C12.75 19.4628 12.6782 19.641 12.5345 19.7845C12.391 19.9282 12.2128 20 12 20C11.7872 20 11.609 19.9282 11.4655 19.7845C11.3218 19.641 11.25 19.4628 11.25 19.25V6.496Z"
  ></path>
</svg>
