<svg viewBox="0 0 24 24" xmlns="http://www.w3.org/2000/svg">
  <path
    d="M6.496 12.7436L11.6653 17.9129C11.8139 18.0616 11.8873 18.2356 11.8855 18.4349C11.8835 18.6342 11.805 18.8115 11.65 18.9666C11.4948 19.1115 11.3192 19.1865 11.123 19.1916C10.9268 19.1968 10.7512 19.1218 10.596 18.9666L4.25575 12.6264C4.16208 12.5327 4.09608 12.434 4.05775 12.3301C4.01925 12.2263 4 12.1141 4 11.9936C4 11.8731 4.01925 11.761 4.05775 11.6571C4.09608 11.5533 4.16208 11.4546 4.25575 11.3609L10.596 5.02065C10.7345 4.88215 10.906 4.81131 11.1105 4.80815C11.315 4.80498 11.4948 4.87581 11.65 5.02065C11.805 5.17581 11.8825 5.35398 11.8825 5.55515C11.8825 5.75648 11.805 5.93473 11.65 6.0899L6.496 11.2436L19.25 11.2436C19.4628 11.2436 19.641 11.3155 19.7845 11.4591C19.9282 11.6026 20 11.7808 20 11.9936C20 12.2065 19.9282 12.3846 19.7845 12.5281C19.641 12.6718 19.4628 12.7436 19.25 12.7436L6.496 12.7436Z"
  ></path>
</svg>
