<svg viewBox="0 0 24 24" xmlns="http://www.w3.org/2000/svg">
  <path
    d="M12.7374 17.504L17.9066 12.3347C18.0553 12.1861 18.2293 12.1127 18.4286 12.1145C18.6279 12.1165 18.8052 12.195 18.9604 12.35C19.1052 12.5052 19.1802 12.6808 19.1854 12.877C19.1905 13.0732 19.1155 13.2488 18.9604 13.404L12.6201 19.7443C12.5264 19.8379 12.4277 19.9039 12.3239 19.9423C12.22 19.9808 12.1079 20 11.9874 20C11.8669 20 11.7547 19.9808 11.6509 19.9423C11.547 19.9039 11.4483 19.8379 11.3546 19.7443L5.01436 13.404C4.87586 13.2655 4.80503 13.094 4.80186 12.8895C4.79869 12.685 4.86953 12.5052 5.01436 12.35C5.16953 12.195 5.34769 12.1175 5.54886 12.1175C5.75019 12.1175 5.92844 12.195 6.08361 12.35L11.2374 17.504L11.2374 4.75C11.2374 4.53717 11.3092 4.359 11.4529 4.2155C11.5964 4.07183 11.7745 4 11.9874 4C12.2002 4 12.3784 4.07183 12.5219 4.2155C12.6655 4.359 12.7374 4.53717 12.7374 4.75L12.7374 17.504Z"
  ></path>
</svg>
