<svg viewBox="0 0 24 24" xmlns="http://www.w3.org/2000/svg">
  <path
    d="M4.5 6.25C4.5 5.76417 4.67017 5.351 5.0105 5.0105C5.351 4.67017 5.76417 4.5 6.25 4.5L9.65375 4.5C10.1397 4.5 10.5529 4.67017 10.8933 5.0105C11.2336 5.351 11.4037 5.76417 11.4037 6.25C11.4037 6.73583 11.2336 7.149 10.8933 7.4895C10.5529 7.82983 10.1397 8 9.65375 8L6.25 8C5.76417 8 5.351 7.82983 5.0105 7.4895C4.67017 7.149 4.5 6.73583 4.5 6.25ZM4.5 12C4.5 11.5142 4.67017 11.101 5.0105 10.7605C5.351 10.4202 5.76417 10.25 6.25 10.25L17.75 10.25C18.2358 10.25 18.649 10.4202 18.9895 10.7605C19.3298 11.101 19.5 11.5142 19.5 12C19.5 12.4858 19.3298 12.899 18.9895 13.2395C18.649 13.5798 18.2358 13.75 17.75 13.75L6.25 13.75C5.76417 13.75 5.351 13.5798 5.0105 13.2395C4.67017 12.899 4.5 12.4858 4.5 12ZM4.5 17.75C4.5 17.2642 4.67017 16.851 5.0105 16.5105C5.351 16.1702 5.76417 16 6.25 16L12.8462 16C13.3321 16 13.7452 16.1702 14.0855 16.5105C14.4258 16.851 14.596 17.2642 14.596 17.75C14.596 18.2358 14.4258 18.649 14.0855 18.9895C13.7452 19.3298 13.3321 19.5 12.8462 19.5L6.25 19.5C5.76417 19.5 5.351 19.3298 5.0105 18.9895C4.67017 18.649 4.5 18.2358 4.5 17.75Z"
  ></path>
</svg>
