<svg viewBox="0 0 24 24" xmlns="http://www.w3.org/2000/svg">
  <path
    d="M4.96868 15.2305L10.2613 8.88964H6.17039L6.91187 3.08566L2.18175 9.91237H5.73573L4.96868 15.2305ZM3.97357 11.4465H0.862179C0.518542 11.4465 0.266781 11.2943 0.106894 10.9901C-0.0531625 10.686 -0.0334751 10.393 0.165957 10.111L6.86661 0.444468C7.00434 0.251684 7.18008 0.119837 7.39383 0.0489274C7.60741 -0.0218112 7.82959 -0.015845 8.06039 0.0668255C8.29118 0.149325 8.46002 0.290547 8.56689 0.49049C8.67377 0.690434 8.7134 0.905804 8.68579 1.1366L7.91695 7.35555H11.7325C12.0969 7.35555 12.3539 7.51884 12.5034 7.84543C12.6529 8.17185 12.609 8.47603 12.3717 8.75796L4.9628 17.6319C4.81468 17.8077 4.63374 17.9214 4.41999 17.9732C4.20624 18.0249 3.99778 18.0042 3.79459 17.9111C3.59141 17.818 3.43374 17.6758 3.32158 17.4844C3.20942 17.293 3.16715 17.0819 3.19476 16.8511L3.97357 11.4465Z"
  ></path>
</svg>
