<svg viewBox="0 0 24 24" xmlns="http://www.w3.org/2000/svg">
  <path
    d="M10.1828 17.8077C9.68408 17.8077 9.25808 17.6311 8.90475 17.2778C8.55158 16.9246 8.375 16.4987 8.375 16V14.4038C7.46983 13.7987 6.76442 13.0199 6.25875 12.0673C5.75292 11.1147 5.5 10.0955 5.5 9.0095C5.5 7.20067 6.13108 5.6635 7.39325 4.398C8.65542 3.13267 10.191 2.5 12 2.5C13.809 2.5 15.3446 3.13108 16.6068 4.39325C17.8689 5.65542 18.5 7.191 18.5 9C18.5 10.0923 18.2471 11.1122 17.7413 12.0595C17.2356 13.007 16.5302 13.7884 15.625 14.4038V16C15.625 16.4987 15.4484 16.9246 15.0953 17.2778C14.7419 17.6311 14.3159 17.8077 13.8173 17.8077H10.1828ZM10.1828 16.3077H13.8173C13.9071 16.3077 13.9808 16.2789 14.0385 16.2212C14.0962 16.1636 14.125 16.0898 14.125 16V14.0808C14.125 13.9269 14.1593 13.7863 14.228 13.6588C14.2965 13.5311 14.391 13.4256 14.5115 13.3422L14.85 13.1C15.527 12.627 16.0546 12.0296 16.4327 11.3077C16.8109 10.5859 17 9.81667 17 9C17 7.61667 16.5125 6.4375 15.5375 5.4625C14.5625 4.4875 13.3833 4 12 4C10.6167 4 9.4375 4.4875 8.4625 5.4625C7.4875 6.4375 7 7.61667 7 9C7 9.81667 7.18908 10.5859 7.56725 11.3077C7.94542 12.0296 8.473 12.627 9.15 13.1L9.4885 13.3422C9.609 13.4256 9.7035 13.5311 9.772 13.6588C9.84067 13.7863 9.875 13.9269 9.875 14.0808V16C9.875 16.0898 9.90383 16.1636 9.9615 16.2212C10.0192 16.2789 10.0929 16.3077 10.1828 16.3077ZM10.0865 21.5C9.87367 21.5 9.6955 21.4282 9.552 21.2845C9.40833 21.141 9.3365 20.9628 9.3365 20.75C9.3365 20.5372 9.40833 20.359 9.552 20.2155C9.6955 20.0718 9.87367 20 10.0865 20H13.9135C14.1263 20 14.3045 20.0718 14.448 20.2155C14.5917 20.359 14.6635 20.5372 14.6635 20.75C14.6635 20.9628 14.5917 21.141 14.448 21.2845C14.3045 21.4282 14.1263 21.5 13.9135 21.5H10.0865Z"
  ></path>
</svg>
