<svg viewBox="0 0 24 24" xmlns="http://www.w3.org/2000/svg">
  <path
    d="M8.05775 17.5C7.55258 17.5 7.125 17.325 6.775 16.975C6.425 16.625 6.25 16.1974 6.25 15.6923V4.30775C6.25 3.80258 6.425 3.375 6.775 3.025C7.125 2.675 7.55258 2.5 8.05775 2.5H19.4423C19.9474 2.5 20.375 2.675 20.725 3.025C21.075 3.375 21.25 3.80258 21.25 4.30775V15.6923C21.25 16.1974 21.075 16.625 20.725 16.975C20.375 17.325 19.9474 17.5 19.4423 17.5H8.05775ZM8.05775 16H19.4423C19.5193 16 19.5898 15.9679 19.6538 15.9038C19.7179 15.8398 19.75 15.7692 19.75 15.6923V4.30775C19.75 4.23075 19.7179 4.16025 19.6538 4.09625C19.5898 4.03208 19.5193 4 19.4423 4H8.05775C7.98075 4 7.91025 4.03208 7.84625 4.09625C7.78208 4.16025 7.75 4.23075 7.75 4.30775V15.6923C7.75 15.7692 7.78208 15.8398 7.84625 15.9038C7.91025 15.9679 7.98075 16 8.05775 16ZM4.55775 21C4.05258 21 3.625 20.825 3.275 20.475C2.925 20.125 2.75 19.6974 2.75 19.1923V7.05775C2.75 6.84492 2.82183 6.66667 2.9655 6.523C3.109 6.3795 3.28717 6.30775 3.5 6.30775C3.71283 6.30775 3.89108 6.3795 4.03475 6.523C4.17825 6.66667 4.25 6.84492 4.25 7.05775V19.1923C4.25 19.2693 4.28208 19.3398 4.34625 19.4038C4.41025 19.4679 4.48075 19.5 4.55775 19.5H16.6923C16.9051 19.5 17.0833 19.5718 17.227 19.7153C17.3705 19.8589 17.4423 20.0372 17.4423 20.25C17.4423 20.4628 17.3705 20.641 17.227 20.7845C17.0833 20.9282 16.9051 21 16.6923 21H4.55775Z"
  ></path>
  <path
    d="M14.2946 13.2385C14.1511 13.382 13.973 13.4537 13.7601 13.4537C13.5473 13.4537 13.3691 13.382 13.2256 13.2385C13.082 13.0948 13.0101 12.9166 13.0101 12.7037V9.00375L11.6871 10.327C11.5421 10.4718 11.3665 10.5442 11.1601 10.5442C10.9538 10.5442 10.7781 10.4718 10.6331 10.327C10.4883 10.182 10.4175 10.0047 10.4206 9.79525C10.424 9.58558 10.4948 9.4115 10.6331 9.273L13.1274 6.79425C13.3082 6.61342 13.5191 6.523 13.7601 6.523C14.0011 6.523 14.2121 6.61342 14.3929 6.79425L16.8871 9.273C17.032 9.418 17.1044 9.59367 17.1044 9.8C17.1044 10.0063 17.032 10.182 16.8871 10.327C16.7421 10.4718 16.5649 10.5427 16.3554 10.5395C16.1457 10.5362 15.9716 10.4653 15.8331 10.327L14.5101 9.00375V12.7037C14.5101 12.9166 14.4383 13.0948 14.2946 13.2385Z"
  ></path>
</svg>
