<svg viewBox="0 0 24 24" xmlns="http://www.w3.org/2000/svg">
  <path
    d="M5.30775 21.5576C4.80258 21.5576 4.375 21.3826 4.025 21.0326C3.675 20.6826 3.5 20.2551 3.5 19.7499V6.36538C3.5 5.86022 3.675 5.43263 4.025 5.08263C4.375 4.73263 4.80258 4.55763 5.30775 4.55763H6.69225V3.21138C6.69225 2.99222 6.76567 2.80922 6.9125 2.66238C7.05933 2.51572 7.24233 2.44238 7.4615 2.44238C7.68083 2.44238 7.86383 2.51572 8.0105 2.66238C8.15733 2.80922 8.23075 2.99222 8.23075 3.21138V4.55763H15.8077V3.19238C15.8077 2.97955 15.8795 2.8013 16.023 2.65763C16.1667 2.51413 16.3449 2.44238 16.5577 2.44238C16.7706 2.44238 16.9487 2.51413 17.0922 2.65763C17.2359 2.8013 17.3077 2.97955 17.3077 3.19238V4.55763H18.6923C19.1974 4.55763 19.625 4.73263 19.975 5.08263C20.325 5.43263 20.5 5.86022 20.5 6.36538V19.7499C20.5 20.2551 20.325 20.6826 19.975 21.0326C19.625 21.3826 19.1974 21.5576 18.6923 21.5576H5.30775ZM5.30775 20.0576H18.6923C18.7692 20.0576 18.8398 20.0256 18.9038 19.9614C18.9679 19.8974 19 19.8269 19 19.7499V10.3654H5V19.7499C5 19.8269 5.03208 19.8974 5.09625 19.9614C5.16025 20.0256 5.23075 20.0576 5.30775 20.0576ZM5 8.86538H19V6.36538C19 6.28838 18.9679 6.21788 18.9038 6.15388C18.8398 6.08972 18.7692 6.05763 18.6923 6.05763H5.30775C5.23075 6.05763 5.16025 6.08972 5.09625 6.15388C5.03208 6.21788 5 6.28838 5 6.36538V8.86538Z"
  ></path>
</svg>
