<svg viewBox="0 0 24 24" xmlns="http://www.w3.org/2000/svg">
  <path
    d="M3.30775 21.096C2.80258 21.096 2.375 20.921 2.025 20.571C1.675 20.221 1.5 19.7935 1.5 19.2885V9.9615C1.5 9.74867 1.57183 9.5705 1.7155 9.427C1.859 9.28333 2.03717 9.2115 2.25 9.2115C2.46283 9.2115 2.641 9.28333 2.7845 9.427C2.92817 9.5705 3 9.74867 3 9.9615V19.2885C3 19.3653 3.03208 19.4358 3.09625 19.5C3.16025 19.564 3.23075 19.596 3.30775 19.596H18.5C18.7128 19.596 18.891 19.6678 19.0345 19.8115C19.1782 19.9552 19.25 20.1333 19.25 20.346C19.25 20.5588 19.1782 20.7371 19.0345 20.8808C18.891 21.0243 18.7128 21.096 18.5 21.096H3.30775ZM6.80775 17.596C6.30258 17.596 5.875 17.4211 5.525 17.0712C5.175 16.7212 5 16.2937 5 15.7885V6.5C5 6.24233 5.08625 6.02725 5.25875 5.85475C5.43108 5.68242 5.64608 5.59625 5.90375 5.59625H10.1538V3.80775C10.1538 3.30258 10.3287 2.875 10.6788 2.525C11.0288 2.175 11.4563 2 11.9615 2H15.5385C16.0435 2 16.471 2.175 16.821 2.525C17.171 2.875 17.346 3.30258 17.346 3.80775V5.59625H21.596C21.8538 5.59625 22.0689 5.68242 22.2413 5.85475C22.4138 6.02725 22.5 6.24233 22.5 6.5V15.7885C22.5 16.2937 22.325 16.7212 21.975 17.0712C21.625 17.4211 21.1974 17.596 20.6923 17.596H6.80775ZM6.80775 16.0962H20.6923C20.7693 16.0962 20.8398 16.0642 20.9038 16C20.9679 15.9358 21 15.8653 21 15.7885V7.09625H6.5V15.7885C6.5 15.8653 6.532 15.9358 6.596 16C6.66017 16.0642 6.73075 16.0962 6.80775 16.0962ZM11.6538 5.59625H15.8462V3.80775C15.8462 3.73075 15.8142 3.66025 15.75 3.59625C15.6858 3.53208 15.6153 3.5 15.5385 3.5H11.9615C11.8847 3.5 11.8142 3.53208 11.75 3.59625C11.6858 3.66025 11.6538 3.73075 11.6538 3.80775V5.59625Z"
  ></path>
</svg>
