<svg viewBox="0 0 24 24" xmlns="http://www.w3.org/2000/svg">
  <path
    d="M8.02601 9.23532L11.2223 3.99707C11.3158 3.84323 11.4303 3.73357 11.566 3.66807C11.7015 3.60273 11.8446 3.57007 11.9953 3.57007C12.1459 3.57007 12.289 3.60273 12.4245 3.66807C12.5602 3.73357 12.6748 3.84323 12.7683 3.99707L15.9645 9.23532C16.058 9.38598 16.1048 9.54415 16.1048 9.70982C16.1048 9.87565 16.0663 10.0272 15.9895 10.1643C15.9125 10.3015 15.8068 10.4111 15.6723 10.4931C15.5376 10.5751 15.3805 10.6161 15.201 10.6161H8.7895C8.60934 10.6161 8.45167 10.5747 8.3165 10.4918C8.18134 10.409 8.07617 10.2998 8.00101 10.1643C7.92417 10.0292 7.88576 9.87899 7.88576 9.71382C7.88576 9.54865 7.93251 9.38915 8.02601 9.23532ZM17.4953 21.6161C16.3478 21.6161 15.375 21.2171 14.577 20.4191C13.779 19.6211 13.38 18.6483 13.38 17.5008C13.38 16.3533 13.779 15.3806 14.577 14.5826C15.375 13.7846 16.3478 13.3856 17.4953 13.3856C18.6428 13.3856 19.6155 13.7846 20.4135 14.5826C21.2115 15.3806 21.6105 16.3533 21.6105 17.5008C21.6105 18.6483 21.2115 19.6211 20.4135 20.4191C19.6155 21.2171 18.6428 21.6161 17.4953 21.6161ZM3.38 20.2121V14.7871C3.38 14.5309 3.46659 14.3166 3.63975 14.1441C3.81309 13.9717 4.02784 13.8856 4.284 13.8856H9.709C9.96517 13.8856 10.1795 13.9722 10.352 14.1453C10.5243 14.3187 10.6105 14.5334 10.6105 14.7896V20.2146C10.6105 20.4707 10.5239 20.6851 10.3508 20.8576C10.1774 21.0299 9.96267 21.1161 9.70651 21.1161H4.2815C4.02534 21.1161 3.811 21.0295 3.6385 20.8563C3.46617 20.683 3.38 20.4682 3.38 20.2121ZM17.495 20.1163C18.2272 20.1163 18.8462 19.8635 19.352 19.3578C19.8578 18.8522 20.1108 18.2332 20.1108 17.5011C20.1108 16.7689 19.8579 16.1499 19.3523 15.6441C18.8466 15.1382 18.2277 14.8853 17.4955 14.8853C16.7633 14.8853 16.1443 15.1382 15.6385 15.6438C15.1327 16.1495 14.8798 16.7684 14.8798 17.5006C14.8798 18.2327 15.1326 18.8517 15.6383 19.3576C16.1439 19.8634 16.7628 20.1163 17.495 20.1163ZM4.87976 19.6163H9.11075V15.3853H4.87976V19.6163ZM9.83376 9.11632H14.1568L11.9953 5.63932L9.83376 9.11632Z"
  ></path>
</svg>
