<svg viewBox="0 0 24 24" xmlns="http://www.w3.org/2000/svg">
  <path
    d="M20.6923 20.1C20.6103 20.2282 20.4741 20.3009 20.2838 20.3182C20.0933 20.3356 19.9223 20.2686 19.771 20.1172L17.7693 18.1152H8.00001C7.51351 18.1152 7.09701 17.942 6.75051 17.5955C6.40401 17.2492 6.23076 16.8327 6.23076 16.346V15.7307H17.1155C17.6125 15.7307 18.038 15.5537 18.392 15.1997C18.746 14.8457 18.923 14.4202 18.923 13.923V7H19.5385C20.025 7 20.4415 7.17325 20.788 7.51975C21.1345 7.86625 21.3078 8.28275 21.3078 8.76925V19.4692C21.3078 19.6537 21.2462 19.805 21.123 19.923C21 20.041 20.8564 20.1 20.6923 20.1ZM4.19226 13.6462L5.60776 12.2308H15.1155C15.2052 12.2308 15.2788 12.2019 15.3365 12.1442C15.3942 12.0866 15.423 12.0128 15.423 11.923V5.30775C15.423 5.21792 15.3942 5.14417 15.3365 5.0865C15.2788 5.02883 15.2052 5 15.1155 5H4.50001C4.41034 5 4.33659 5.02883 4.27876 5.0865C4.22109 5.14417 4.19226 5.21792 4.19226 5.30775V13.6462ZM3.59301 16.0037C3.36051 16.0037 3.15226 15.9192 2.96826 15.75C2.78426 15.5807 2.69226 15.3574 2.69226 15.0802V5.30775C2.69226 4.81058 2.86926 4.385 3.22326 4.031C3.57726 3.677 4.00284 3.5 4.50001 3.5H15.1155C15.6125 3.5 16.038 3.677 16.392 4.031C16.746 4.385 16.923 4.81058 16.923 5.30775V11.923C16.923 12.4202 16.746 12.8457 16.392 13.1997C16.038 13.5537 15.6125 13.7308 15.1155 13.7308H6.23076L4.22901 15.7327C4.13534 15.8262 4.03501 15.8948 3.92801 15.9385C3.82084 15.982 3.70918 16.0037 3.59301 16.0037Z"
  ></path>
</svg>
