<svg viewBox="0 0 24 24" xmlns="http://www.w3.org/2000/svg">
  <path
    d="M5.66925 16.3384L9.39225 12.6154C9.54108 12.4666 9.71675 12.3932 9.91925 12.3952C10.1217 12.397 10.2974 12.4755 10.4462 12.6307C10.5846 12.7817 10.6537 12.9579 10.6537 13.1594C10.6537 13.3608 10.5846 13.5358 10.4462 13.6844L6.327 17.8192C6.14617 17.9999 5.93525 18.0902 5.69425 18.0902C5.45325 18.0902 5.24233 17.9999 5.0615 17.8192L3.01725 15.7749C2.87892 15.6364 2.81133 15.4624 2.8145 15.2527C2.81767 15.0432 2.8885 14.8692 3.027 14.7307C3.1655 14.5922 3.34008 14.5229 3.55075 14.5229C3.76141 14.5229 3.93492 14.5922 4.07125 14.7307L5.66925 16.3384ZM5.66925 8.72295L9.39225 4.99995C9.54108 4.85128 9.71675 4.77786 9.91925 4.7797C10.1217 4.7817 10.2974 4.86028 10.4462 5.01545C10.5846 5.16645 10.6537 5.34261 10.6537 5.54395C10.6537 5.74545 10.5846 5.92053 10.4462 6.0692L6.327 10.2037C6.14617 10.3845 5.93525 10.4749 5.69425 10.4749C5.45325 10.4749 5.24233 10.3845 5.0615 10.2037L3.01725 8.15945C2.87892 8.02111 2.81133 7.84711 2.8145 7.63745C2.81767 7.42778 2.8885 7.25378 3.027 7.11545C3.1655 6.97695 3.34008 6.9077 3.55075 6.9077C3.76141 6.9077 3.93492 6.97695 4.07125 7.11545L5.66925 8.72295ZM13.7595 16.5577C13.547 16.5577 13.3689 16.4858 13.2252 16.3419C13.0814 16.1981 13.0095 16.0199 13.0095 15.8072C13.0095 15.5947 13.0814 15.4166 13.2252 15.2729C13.3689 15.1294 13.547 15.0577 13.7595 15.0577H20.7595C20.972 15.0577 21.1502 15.1296 21.294 15.2734C21.4377 15.4173 21.5095 15.5954 21.5095 15.8079C21.5095 16.0206 21.4377 16.1987 21.294 16.3422C21.1502 16.4859 20.972 16.5577 20.7595 16.5577H13.7595ZM13.7595 8.9422C13.547 8.9422 13.3689 8.87028 13.2252 8.72645C13.0814 8.58261 13.0095 8.40445 13.0095 8.19195C13.0095 7.97928 13.0814 7.8012 13.2252 7.6577C13.3689 7.51403 13.547 7.4422 13.7595 7.4422H20.7595C20.972 7.4422 21.1502 7.51411 21.294 7.65795C21.4377 7.80178 21.5095 7.98003 21.5095 8.1927C21.5095 8.4052 21.4377 8.58328 21.294 8.72695C21.1502 8.87045 20.972 8.9422 20.7595 8.9422H13.7595Z"
  ></path>
</svg>
