<svg viewBox="0 0 24 24" xmlns="http://www.w3.org/2000/svg">
  <path
    d="M12.0042 10.726L7.93116 14.7992C7.79266 14.9376 7.61858 15.0084 7.40891 15.0117C7.19941 15.0149 7.02216 14.9441 6.87716 14.7992C6.73233 14.6542 6.65991 14.4786 6.65991 14.2722C6.65991 14.0659 6.73233 13.8902 6.87716 13.7452L11.3714 9.25098C11.5522 9.07031 11.7632 8.97998 12.0042 8.97998C12.2452 8.97998 12.4561 9.07031 12.6369 9.25098L17.1312 13.7452C17.2695 13.8837 17.3403 14.0578 17.3437 14.2675C17.3468 14.477 17.276 14.6542 17.1312 14.7992C16.9862 14.9441 16.8105 15.0165 16.6042 15.0165C16.3978 15.0165 16.2222 14.9441 16.0772 14.7992L12.0042 10.726Z"
  ></path>
</svg>
