<svg viewBox="0 0 24 24" xmlns="http://www.w3.org/2000/svg">
  <path
    d="M12.0042 13.2706L7.93116 9.19735C7.79266 9.05902 7.61858 8.98819 7.40891 8.98485C7.19941 8.98169 7.02216 9.05252 6.87716 9.19735C6.73233 9.34235 6.65991 9.51802 6.65991 9.72435C6.65991 9.93068 6.73233 10.1064 6.87716 10.2514L11.3714 14.7456C11.5522 14.9263 11.7632 15.0166 12.0042 15.0166C12.2452 15.0166 12.4561 14.9263 12.6369 14.7456L17.1312 10.2514C17.2695 10.1129 17.3403 9.93877 17.3437 9.7291C17.3468 9.5196 17.276 9.34235 17.1312 9.19735C16.9862 9.05252 16.8105 8.9801 16.6042 8.9801C16.3978 8.9801 16.2222 9.05252 16.0772 9.19735L12.0042 13.2706Z"
  ></path>
</svg>
