<svg viewBox="0 0 24 24" xmlns="http://www.w3.org/2000/svg">
  <path
    d="M13.2805 12L9.20723 16.073C9.0689 16.2115 8.99806 16.3856 8.99473 16.5953C8.99156 16.8048 9.0624 16.982 9.20723 17.127C9.35223 17.2718 9.5279 17.3443 9.73423 17.3443C9.94056 17.3443 10.1162 17.2718 10.2612 17.127L14.7555 12.6328C14.849 12.5391 14.915 12.4403 14.9535 12.3365C14.992 12.2327 15.0112 12.1205 15.0112 12C15.0112 11.8795 14.992 11.7673 14.9535 11.6635C14.915 11.5597 14.849 11.4609 14.7555 11.3673L10.2612 6.873C10.1227 6.73467 9.94865 6.66384 9.73898 6.6605C9.52948 6.65734 9.35223 6.72817 9.20723 6.873C9.0624 7.018 8.98998 7.19367 8.98998 7.4C8.98998 7.60634 9.0624 7.782 9.20723 7.927L13.2805 12Z"
  ></path>
</svg>
