<svg viewBox="0 0 24 24" xmlns="http://www.w3.org/2000/svg">
  <path
    d="M10.7207 12L14.794 16.073C14.9323 16.2115 15.0032 16.3856 15.0065 16.5953C15.0097 16.8048 14.9388 16.982 14.794 17.127C14.649 17.2718 14.4733 17.3443 14.267 17.3443C14.0607 17.3443 13.885 17.2718 13.74 17.127L9.24574 12.6328C9.15224 12.5391 9.08624 12.4403 9.04774 12.3365C9.00924 12.2327 8.98999 12.1205 8.98999 12C8.98999 11.8795 9.00924 11.7673 9.04774 11.6635C9.08624 11.5597 9.15224 11.4609 9.24574 11.3673L13.74 6.873C13.8785 6.73467 14.0526 6.66384 14.2622 6.6605C14.4717 6.65734 14.649 6.72817 14.794 6.873C14.9388 7.018 15.0112 7.19367 15.0112 7.4C15.0112 7.60634 14.9388 7.782 14.794 7.927L10.7207 12Z"
  ></path>
</svg>
