<svg viewBox="0 0 24 24" xmlns="http://www.w3.org/2000/svg">
  <path
    d="M7.71921 4.477L7.16921 2.8865C7.11538 2.74166 7.1263 2.59683 7.20196 2.452C7.27763 2.30716 7.39371 2.20775 7.55021 2.15375C7.69371 2.09991 7.83813 2.11216 7.98346 2.1905C8.1288 2.26866 8.22788 2.3795 8.28071 2.523L8.83071 4.098C8.88455 4.243 8.87155 4.38816 8.79171 4.5335C8.71171 4.67883 8.59846 4.77791 8.45196 4.83075C8.2968 4.88458 8.14921 4.87858 8.00921 4.81275C7.86921 4.74691 7.77255 4.635 7.71921 4.477ZM11.4037 3.25V1.75C11.4037 1.57783 11.46 1.43541 11.5727 1.32275C11.6852 1.21008 11.8275 1.15375 11.9995 1.15375C12.1716 1.15375 12.3141 1.21008 12.427 1.32275C12.5398 1.43541 12.5962 1.57783 12.5962 1.75V3.25C12.5962 3.42216 12.5399 3.56458 12.4272 3.67725C12.3147 3.78991 12.1725 3.84625 12.0005 3.84625C11.8283 3.84625 11.6858 3.78991 11.573 3.67725C11.4601 3.56458 11.4037 3.42216 11.4037 3.25ZM15.1847 4.098L15.7192 2.523C15.7725 2.37816 15.8692 2.26958 16.0092 2.19725C16.1492 2.12475 16.2975 2.11541 16.454 2.16925C16.5975 2.22308 16.7095 2.32241 16.7902 2.46725C16.871 2.61208 16.8845 2.757 16.8307 2.902L16.2807 4.477C16.2279 4.6205 16.1288 4.73133 15.9835 4.8095C15.8381 4.88783 15.693 4.90008 15.548 4.84625C15.4031 4.79225 15.2929 4.69033 15.2172 4.5405C15.1415 4.3905 15.1307 4.243 15.1847 4.098ZM2.99796 22.6635C2.8263 22.6903 2.6693 22.6512 2.52696 22.5462C2.3848 22.4412 2.3008 22.3034 2.27496 22.1327L2.24421 21.8865C2.21721 21.7147 2.25338 21.5603 2.35271 21.4235C2.45188 21.2865 2.58755 21.2049 2.75971 21.1787L7.42296 20.4655C7.6568 20.4245 7.86396 20.3274 8.04446 20.1742C8.22513 20.0209 8.35196 19.8302 8.42496 19.602L9.26546 16.952C9.36796 16.6545 9.36313 16.3653 9.25096 16.0845C9.1388 15.8038 8.9423 15.5955 8.66146 15.4595L8.00196 17.5135C7.9378 17.7097 7.81538 17.8558 7.63471 17.952C7.45388 18.0482 7.2638 18.0642 7.06446 18C6.86513 17.9358 6.71738 17.8134 6.62121 17.6327C6.52505 17.4519 6.50905 17.2634 6.57321 17.0672L8.61721 10.6345C8.66988 10.464 8.6818 10.2916 8.65296 10.1172C8.62413 9.94291 8.55138 9.80575 8.43471 9.70575L4.83471 16.525C4.59355 16.9698 4.25155 17.3252 3.80871 17.5912C3.36571 17.8574 2.86921 17.9905 2.31921 17.9905H2.23271C2.04988 17.9905 1.89971 17.9317 1.78221 17.814C1.66455 17.6965 1.60571 17.5463 1.60571 17.3635V17.1172C1.60571 16.9344 1.66455 16.7842 1.78221 16.6667C1.89971 16.5492 2.04988 16.4905 2.23271 16.4905H2.40571C2.63538 16.4905 2.84938 16.4329 3.04771 16.3177C3.24621 16.2026 3.39763 16.0402 3.50196 15.8307L7.49046 8.275C7.60963 8.049 7.78846 7.90216 8.02696 7.8345C8.26546 7.76666 8.49688 7.793 8.72121 7.9135L8.93646 8.0365C9.46346 8.34166 9.82888 8.78175 10.0327 9.35675C10.2365 9.93175 10.2461 10.5128 10.0615 11.1L9.12296 14.0405C9.7923 14.3045 10.275 14.7628 10.5712 15.4155C10.8674 16.068 10.9084 16.7372 10.6942 17.423L9.84421 20.073C9.68005 20.5678 9.40155 20.9852 9.00871 21.325C8.61571 21.6647 8.16155 21.873 7.64621 21.95L2.99796 22.6635ZM16.3537 21.9595C15.8384 21.8827 15.3842 21.6743 14.9912 21.3345C14.5984 20.9948 14.3199 20.5776 14.1557 20.0827L13.3057 17.4327C13.0915 16.7467 13.1325 16.0775 13.4287 15.425C13.7249 14.7725 14.2076 14.3142 14.877 14.05L13.9385 11.1095C13.7538 10.5223 13.7634 9.94125 13.9672 9.36625C14.171 8.79125 14.5365 8.35125 15.0635 8.04625L15.2787 7.923C15.503 7.8025 15.7345 7.77616 15.973 7.844C16.2115 7.91183 16.3903 8.05875 16.5095 8.28475L20.498 15.8405C20.6023 16.0498 20.7537 16.2121 20.9522 16.3272C21.1505 16.4424 21.3645 16.5 21.5942 16.5H21.7672C21.95 16.5 22.1002 16.5587 22.2177 16.6762C22.3354 16.7939 22.3942 16.9442 22.3942 17.127V17.373C22.3942 17.5558 22.3354 17.7061 22.2177 17.8237C22.1002 17.9412 21.95 18 21.7672 18H21.6807C21.1307 18 20.6342 17.867 20.1912 17.601C19.7484 17.335 19.4064 16.9796 19.1652 16.5347L15.5652 9.71525C15.4485 9.81525 15.3758 9.9525 15.347 10.127C15.3181 10.3013 15.33 10.4737 15.3827 10.6442L17.4267 17.077C17.4909 17.2732 17.4749 17.4616 17.3787 17.6422C17.2825 17.8231 17.1348 17.9455 16.9355 18.0095C16.7361 18.0737 16.5457 18.0587 16.3642 17.9647C16.1827 17.8707 16.0606 17.7235 15.998 17.523L15.3385 15.4692C15.0576 15.6051 14.8611 15.8134 14.749 16.0942C14.6368 16.3751 14.632 16.6642 14.7345 16.9615L15.575 19.6115C15.648 19.8397 15.7748 20.0304 15.9555 20.1837C16.136 20.3371 16.3431 20.4342 16.577 20.475L21.2402 21.1885C21.4124 21.2145 21.548 21.296 21.6472 21.433C21.7465 21.57 21.7827 21.7244 21.7557 21.8962L21.725 22.1422C21.6991 22.3129 21.6151 22.4508 21.473 22.556C21.3306 22.661 21.1736 22.7 21.002 22.673L16.3537 21.9595Z"
  ></path>
</svg>
