<svg viewBox="0 0 24 24" xmlns="http://www.w3.org/2000/svg">
  <path
    d="M5.30775 21.3423C4.81058 21.3423 4.385 21.1653 4.031 20.8113C3.677 20.4573 3.5 20.0317 3.5 19.5345V6.15002C3.5 5.65286 3.677 5.22727 4.031 4.87327C4.385 4.51927 4.81058 4.34227 5.30775 4.34227H9.7135C9.852 3.85511 10.135 3.45127 10.5625 3.13077C10.99 2.81027 11.4692 2.65002 12 2.65002C12.5513 2.65002 13.0382 2.81027 13.4605 3.13077C13.883 3.45127 14.1635 3.85511 14.302 4.34227H18.6923C19.1894 4.34227 19.615 4.51927 19.969 4.87327C20.323 5.22727 20.5 5.65286 20.5 6.15002V19.5345C20.5 20.0317 20.323 20.4573 19.969 20.8113C19.615 21.1653 19.1894 21.3423 18.6923 21.3423H5.30775ZM5.30775 19.8423H18.6923C18.7692 19.8423 18.8398 19.8102 18.9038 19.746C18.9679 19.682 19 19.6115 19 19.5345V6.15002C19 6.07302 18.9679 6.00252 18.9038 5.93852C18.8398 5.87436 18.7692 5.84227 18.6923 5.84227H16.5V7.55378C16.5 7.80994 16.4138 8.02461 16.2413 8.19777C16.0688 8.37094 15.855 8.45752 15.6 8.45752H8.39975C8.14475 8.45752 7.93108 8.37094 7.75875 8.19777C7.58625 8.02461 7.5 7.80994 7.5 7.55378V5.84227H5.30775C5.23075 5.84227 5.16025 5.87436 5.09625 5.93852C5.03208 6.00252 5 6.07302 5 6.15002V19.5345C5 19.6115 5.03208 19.682 5.09625 19.746C5.16025 19.8102 5.23075 19.8423 5.30775 19.8423ZM12.0017 5.95777C12.2583 5.95777 12.4728 5.87094 12.6453 5.69728C12.8176 5.52378 12.9038 5.30869 12.9038 5.05203C12.9038 4.79553 12.817 4.58103 12.6435 4.40853C12.47 4.23619 12.2549 4.15002 11.9983 4.15002C11.7417 4.15002 11.5273 4.23677 11.3548 4.41027C11.1824 4.58394 11.0963 4.79903 11.0963 5.05553C11.0963 5.31203 11.183 5.52653 11.3565 5.69903C11.53 5.87153 11.7451 5.95777 12.0017 5.95777Z"
  ></path>
</svg>
