<svg viewBox="0 0 24 24" xmlns="http://www.w3.org/2000/svg">
  <path
    d="M4.46927 12.0156L8.52702 16.0731C8.66536 16.2116 8.73619 16.3857 8.73952 16.5954C8.74269 16.8049 8.67186 16.9821 8.52702 17.1271C8.38202 17.2719 8.20636 17.3444 8.00002 17.3444C7.79369 17.3444 7.61802 17.2719 7.47302 17.1271L2.97877 12.6329C2.88527 12.5392 2.81927 12.4404 2.78077 12.3366C2.74227 12.2328 2.72302 12.1206 2.72302 12.0001C2.72302 11.8796 2.74227 11.7674 2.78077 11.6636C2.81927 11.5598 2.88527 11.461 2.97877 11.3674L7.47302 6.87311C7.62186 6.72444 7.79852 6.64853 8.00302 6.64536C8.20736 6.64219 8.38711 6.71811 8.54227 6.87311C8.69744 7.02828 8.77502 7.20653 8.77502 7.40786C8.77502 7.60903 8.69744 7.78719 8.54227 7.94236L4.46927 12.0156ZM19.5308 11.9846L15.473 7.92711C15.3347 7.78861 15.2639 7.61453 15.2605 7.40486C15.2574 7.19536 15.3282 7.01811 15.473 6.87311C15.618 6.72828 15.7937 6.65586 16 6.65586C16.2064 6.65586 16.382 6.72828 16.527 6.87311L21.0213 11.3674C21.1148 11.461 21.1808 11.5598 21.2193 11.6636C21.2578 11.7674 21.277 11.8796 21.277 12.0001C21.277 12.1206 21.2578 12.2328 21.2193 12.3366C21.1808 12.4404 21.1148 12.5392 21.0213 12.6329L16.527 17.1271C16.3782 17.2758 16.2041 17.3491 16.0048 17.3471C15.8054 17.3453 15.6282 17.2668 15.473 17.1116C15.318 16.9564 15.2405 16.7783 15.2405 16.5771C15.2405 16.3758 15.318 16.1975 15.473 16.0424L19.5308 11.9846Z"
  ></path>
</svg>
