<svg viewBox="0 0 24 24" xmlns="http://www.w3.org/2000/svg">
  <path
    d="M7.09625 13.8077H8.44225C8.56275 13.8077 8.6775 13.7859 8.7865 13.7423C8.8955 13.6988 8.99675 13.6302 9.09025 13.5365L13.9538 8.673C14.0718 8.54867 14.1603 8.4115 14.2193 8.2615C14.2783 8.1115 14.3077 7.96408 14.3077 7.81925C14.3077 7.67442 14.2757 7.53208 14.2115 7.39225C14.1473 7.25258 14.0614 7.12058 13.9538 6.99625L13.0443 6.04625C12.9263 5.92825 12.7933 5.83975 12.6453 5.78075C12.4971 5.72175 12.3455 5.69225 12.1905 5.69225C12.0455 5.69225 11.898 5.72175 11.748 5.78075C11.598 5.83975 11.4608 5.92825 11.3365 6.04625L6.4635 10.9098C6.36983 11.0033 6.30125 11.1045 6.25775 11.2135C6.21408 11.3225 6.19225 11.4373 6.19225 11.5577V12.9038C6.19225 13.1614 6.2785 13.3765 6.451 13.549C6.6235 13.7215 6.83858 13.8077 7.09625 13.8077ZM7.3845 12.6155V11.6655L10.3713 8.67875L10.852 9.148L11.3115 9.6385L8.3345 12.6155H7.3845ZM10.852 9.148L11.3115 9.6385L10.3713 8.67875L10.852 9.148ZM11.4923 13.8077H17.0577C17.2706 13.8077 17.4487 13.7359 17.5922 13.5922C17.7359 13.4487 17.8077 13.2706 17.8077 13.0577C17.8077 12.8449 17.7359 12.6667 17.5922 12.523C17.4487 12.3795 17.2706 12.3077 17.0577 12.3077H12.9923L11.4923 13.8077ZM6.0385 17.5L4.0365 19.5018C3.752 19.7864 3.42475 19.8509 3.05475 19.6952C2.68492 19.5394 2.5 19.2589 2.5 18.8538V4.30775C2.5 3.80258 2.675 3.375 3.025 3.025C3.375 2.675 3.80258 2.5 4.30775 2.5H19.6923C20.1974 2.5 20.625 2.675 20.975 3.025C21.325 3.375 21.5 3.80258 21.5 4.30775V15.6923C21.5 16.1974 21.325 16.625 20.975 16.975C20.625 17.325 20.1974 17.5 19.6923 17.5H6.0385ZM5.4 16H19.6923C19.7693 16 19.8398 15.9679 19.9038 15.9038C19.9679 15.8398 20 15.7692 20 15.6923V4.30775C20 4.23075 19.9679 4.16025 19.9038 4.09625C19.8398 4.03208 19.7693 4 19.6923 4H4.30775C4.23075 4 4.16025 4.03208 4.09625 4.09625C4.03208 4.16025 4 4.23075 4 4.30775V17.3848L5.4 16Z"
  ></path>
</svg>
