<svg viewBox="0 0 24 24" xmlns="http://www.w3.org/2000/svg">
  <path
    d="M1.3655 17.7885C1.12033 17.7885 0.91475 17.7056 0.74875 17.5397C0.582917 17.3737 0.5 17.1682 0.5 16.923V16.5692C0.5 15.9039 0.847417 15.3574 1.54225 14.9297C2.23725 14.5022 3.14308 14.2885 4.25975 14.2885C4.44425 14.2885 4.63008 14.2942 4.81725 14.3057C5.00442 14.3172 5.19292 14.3397 5.38275 14.373C5.18792 14.6847 5.04333 15.0081 4.949 15.3432C4.85483 15.6786 4.80775 16.0225 4.80775 16.375V17.7885H1.3655ZM7.40775 17.7885C7.14742 17.7885 6.93108 17.7018 6.75875 17.5285C6.58625 17.3553 6.5 17.1407 6.5 16.8845V16.4135C6.5 15.9453 6.63142 15.5174 6.89425 15.1297C7.15708 14.7419 7.53592 14.4038 8.03075 14.1155C8.52558 13.827 9.11025 13.6107 9.78475 13.4665C10.4591 13.3222 11.1962 13.25 11.9963 13.25C12.8116 13.25 13.5564 13.3222 14.2308 13.4665C14.9051 13.6107 15.4897 13.827 15.9845 14.1155C16.4795 14.4038 16.8558 14.7419 17.1135 15.1297C17.3712 15.5174 17.5 15.9453 17.5 16.4135V16.8845C17.5 17.1407 17.4133 17.3553 17.24 17.5285C17.0668 17.7018 16.8522 17.7885 16.596 17.7885H7.40775ZM19.1923 17.7885V16.3762C19.1923 15.9997 19.1478 15.6455 19.0588 15.3135C18.9696 14.9815 18.8359 14.668 18.6578 14.373C18.8539 14.3397 19.0414 14.3172 19.2203 14.3057C19.3991 14.2942 19.5757 14.2885 19.75 14.2885C20.8667 14.2885 21.7708 14.4997 22.4625 14.9222C23.1542 15.3446 23.5 15.8936 23.5 16.5692V16.923C23.5 17.1682 23.4171 17.3737 23.2512 17.5397C23.0852 17.7056 22.8797 17.7885 22.6345 17.7885H19.1923ZM8.077 16.2885H15.9385V16.1827C15.836 15.7789 15.4103 15.4392 14.6615 15.1635C13.9128 14.8878 13.0257 14.75 12 14.75C10.9743 14.75 10.0872 14.8878 9.3385 15.1635C8.58967 15.4392 8.16917 15.7789 8.077 16.1827V16.2885ZM4.257 13.3172C3.78567 13.3172 3.383 13.1497 3.049 12.8145C2.715 12.4793 2.548 12.0764 2.548 11.6057C2.548 11.1289 2.71567 10.7261 3.051 10.3972C3.38617 10.0684 3.78908 9.90399 4.25975 9.90399C4.73658 9.90399 5.141 10.0684 5.473 10.3972C5.80517 10.7261 5.97125 11.1299 5.97125 11.6087C5.97125 12.0734 5.80692 12.4743 5.47825 12.8115C5.14975 13.1487 4.74267 13.3172 4.257 13.3172ZM19.75 13.3172C19.2833 13.3172 18.8814 13.1487 18.5443 12.8115C18.2071 12.4743 18.0385 12.0734 18.0385 11.6087C18.0385 11.1299 18.2071 10.7261 18.5443 10.3972C18.8814 10.0684 19.2839 9.90399 19.7518 9.90399C20.2339 9.90399 20.6394 10.0684 20.9683 10.3972C21.2971 10.7261 21.4615 11.1289 21.4615 11.6057C21.4615 12.0764 21.2975 12.4793 20.9695 12.8145C20.6415 13.1497 20.235 13.3172 19.75 13.3172ZM12.0035 12.5C11.2832 12.5 10.6698 12.2476 10.1635 11.7427C9.65717 11.2381 9.404 10.6252 9.404 9.90399C9.404 9.16832 9.65633 8.55174 10.161 8.05424C10.6658 7.55657 11.2788 7.30774 12 7.30774C12.7355 7.30774 13.3521 7.55624 13.8497 8.05324C14.3472 8.55007 14.596 9.16582 14.596 9.90049C14.596 10.6207 14.3476 11.234 13.8508 11.7405C13.3538 12.2468 12.738 12.5 12.0035 12.5ZM12.0048 11C12.3106 11 12.5689 10.893 12.7797 10.679C12.9908 10.4648 13.0962 10.2048 13.0962 9.89899C13.0962 9.59332 12.9912 9.33499 12.781 9.12399C12.5708 8.91316 12.3105 8.80774 12 8.80774C11.6975 8.80774 11.4392 8.91282 11.225 9.12299C11.0108 9.33299 10.9038 9.59332 10.9038 9.90399C10.9038 10.2065 11.0108 10.4648 11.225 10.679C11.4392 10.893 11.6991 11 12.0048 11Z"
  ></path>
</svg>
