<svg viewBox="0 0 24 24" xmlns="http://www.w3.org/2000/svg">
  <path
    d="M13.6557 12.1865L16.5287 10.248C16.7967 10.0673 16.9307 9.818 16.9307 9.5C16.9307 9.182 16.7967 8.93267 16.5287 8.752L13.6557 6.8135C13.3544 6.59933 13.0448 6.58267 12.727 6.7635C12.409 6.94433 12.25 7.2155 12.25 7.577V11.423C12.25 11.7845 12.409 12.0557 12.727 12.2365C13.0448 12.4173 13.3544 12.4007 13.6557 12.1865ZM9.07698 16.7308C8.57182 16.7308 8.14423 16.5557 7.79423 16.2057C7.44423 15.8557 7.26923 15.4282 7.26923 14.923V4.30775C7.26923 3.80258 7.44423 3.375 7.79423 3.025C8.14423 2.675 8.57182 2.5 9.07698 2.5H19.6922C20.1974 2.5 20.625 2.675 20.975 3.025C21.325 3.375 21.5 3.80258 21.5 4.30775V14.923C21.5 15.4282 21.325 15.8557 20.975 16.2057C20.625 16.5557 20.1974 16.7308 19.6922 16.7308H9.07698ZM9.07698 15.2308H19.6922C19.7821 15.2308 19.8558 15.2019 19.9135 15.1442C19.9711 15.0866 20 15.0128 20 14.923V4.30775C20 4.21792 19.9711 4.14417 19.9135 4.0865C19.8558 4.02883 19.7821 4 19.6922 4H9.07698C8.98715 4 8.9134 4.02883 8.85573 4.0865C8.79807 4.14417 8.76923 4.21792 8.76923 4.30775V14.923C8.76923 15.0128 8.79807 15.0866 8.85573 15.1442C8.9134 15.2019 8.98715 15.2308 9.07698 15.2308ZM5.94048 21.346C5.44165 21.4063 4.9939 21.2858 4.59723 20.9845C4.2004 20.6833 3.97182 20.2833 3.91148 19.7845L2.63473 9.4655C2.5744 8.96667 2.70165 8.51825 3.01648 8.12025C3.33115 7.72208 3.73782 7.491 4.23648 7.427L4.47898 7.41725C4.69165 7.38658 4.88165 7.444 5.04898 7.5895C5.21632 7.735 5.29998 7.9225 5.29998 8.152C5.29998 8.33783 5.2349 8.50158 5.10473 8.64325C4.97473 8.78492 4.81673 8.87117 4.63073 8.902L4.42298 8.9115C4.33332 8.918 4.26282 8.95483 4.21148 9.022C4.16015 9.08933 4.1409 9.16792 4.15373 9.25775L5.42698 19.5923C5.43982 19.6821 5.47823 19.7526 5.54223 19.8038C5.6064 19.8551 5.68332 19.8743 5.77298 19.8615L17.5847 18.402C17.7974 18.375 17.9848 18.424 18.147 18.549C18.3093 18.674 18.4039 18.8429 18.4307 19.0557C18.4577 19.2686 18.4087 19.4519 18.2837 19.6057C18.1587 19.7596 17.9898 19.85 17.777 19.877L5.94048 21.346Z"
  ></path>
</svg>
