<svg viewBox="0 0 24 24" xmlns="http://www.w3.org/2000/svg">
  <path
    d="M19.25 10.4004C19.25 9.93108 18.8697 9.55002 18.4004 9.5498H10.4004C9.93095 9.5498 9.5498 9.93095 9.5498 10.4004V18.4004C9.55002 18.8697 9.93108 19.25 10.4004 19.25H18.4004C18.8695 19.2498 19.2498 18.8695 19.25 18.4004V10.4004ZM14.4502 5.59961C14.45 5.134 14.0653 4.75 13.5996 4.75H5.59961C5.13413 4.75021 4.75021 5.13413 4.75 5.59961V13.5996C4.75 14.0653 5.134 14.45 5.59961 14.4502C6.01382 14.4502 6.34961 14.786 6.34961 15.2002C6.3495 15.6143 6.01376 15.9502 5.59961 15.9502C4.30557 15.95 3.25 14.8937 3.25 13.5996V5.59961C3.25021 4.3057 4.3057 3.25021 5.59961 3.25H13.5996C14.8937 3.25 15.95 4.30557 15.9502 5.59961C15.9502 6.01376 15.6143 6.3495 15.2002 6.34961C14.786 6.34961 14.4502 6.01382 14.4502 5.59961ZM20.75 18.4004C20.7498 19.698 19.698 20.7498 18.4004 20.75H10.4004C9.10265 20.75 8.05002 19.6981 8.0498 18.4004V10.4004C8.0498 9.10252 9.10252 8.0498 10.4004 8.0498H18.4004C19.6981 8.05002 20.75 9.10265 20.75 10.4004V18.4004Z"
  ></path>
</svg>
