<svg viewBox="0 0 24 24" xmlns="http://www.w3.org/2000/svg">
  <path
    d="M11.25 21.3845C11.0885 21.3845 10.9487 21.3256 10.8307 21.2077C10.7127 21.0897 10.6537 20.95 10.6537 20.7885C10.6537 20.6268 10.7127 20.4871 10.8307 20.3692C10.9487 20.2512 11.0885 20.1922 11.25 20.1922H11.4037V18.4692C10.6782 18.3859 10.0183 18.2192 9.42398 17.9692C8.82981 17.7192 8.29556 17.3891 7.82123 16.9787L6.61148 18.2037L6.72698 18.3192C6.85131 18.4436 6.9119 18.5849 6.90873 18.7432C6.9054 18.9016 6.84481 19.0397 6.72698 19.1577C6.60264 19.2821 6.46131 19.3426 6.30298 19.3395C6.14465 19.3361 6.00331 19.2723 5.87898 19.148L4.83273 18.1172C4.7084 17.9929 4.64623 17.8506 4.64623 17.6902C4.64623 17.5301 4.7084 17.3878 4.83273 17.2635C4.95706 17.1391 5.09681 17.0827 5.25198 17.0942C5.40715 17.1057 5.5469 17.1653 5.67123 17.273L5.76723 17.3692L6.99223 16.1442C6.5564 15.6147 6.22306 15.0692 5.99223 14.5077C5.76156 13.9461 5.60773 13.3089 5.53073 12.5962H3.80773V12.75C3.80773 12.9115 3.74873 13.0512 3.63073 13.1692C3.5129 13.2872 3.37315 13.3462 3.21148 13.3462C3.04998 13.3462 2.91023 13.2872 2.79223 13.1692C2.6744 13.0512 2.61548 12.9115 2.61548 12.75V11.25C2.61548 11.0885 2.6744 10.9487 2.79223 10.8307C2.91023 10.7127 3.04998 10.6537 3.21148 10.6537C3.37315 10.6537 3.5129 10.7127 3.63073 10.8307C3.74873 10.9487 3.80773 11.0885 3.80773 11.25V11.4037H5.53073C5.60773 10.6911 5.76739 10.0523 6.00973 9.48748C6.25189 8.92281 6.58265 8.37889 7.00198 7.85573L5.77698 6.63073L5.67123 6.73648C5.5469 6.85065 5.40715 6.91031 5.25198 6.91548C5.09681 6.92048 4.95706 6.86081 4.83273 6.73648C4.7084 6.61215 4.64623 6.4699 4.64623 6.30973C4.64623 6.1494 4.7084 6.00706 4.83273 5.88273L5.88273 4.83273C6.00706 4.7084 6.15098 4.64623 6.31448 4.64623C6.47798 4.64623 6.6219 4.7084 6.74623 4.83273C6.87056 4.95706 6.92948 5.0994 6.92298 5.25973C6.91665 5.4199 6.85131 5.56215 6.72698 5.68648L6.62123 5.79223L7.83073 7.00198C8.37306 6.56598 8.91856 6.23265 9.46723 6.00198C10.0161 5.77115 10.6532 5.61406 11.3787 5.53073V3.80773H11.2345C11.073 3.80773 10.9358 3.74873 10.823 3.63073C10.7101 3.51289 10.6537 3.37315 10.6537 3.21148C10.6537 3.04998 10.7127 2.91023 10.8307 2.79223C10.9487 2.6744 11.0885 2.61548 11.25 2.61548H12.75C12.9115 2.61548 13.0512 2.6744 13.1692 2.79223C13.2872 2.91023 13.3462 3.04998 13.3462 3.21148C13.3462 3.37315 13.2872 3.51289 13.1692 3.63073C13.0512 3.74873 12.9115 3.80773 12.75 3.80773H12.5962V5.53073C13.3217 5.61406 13.9589 5.77115 14.5077 6.00198C15.0564 6.23265 15.6019 6.56598 16.1442 7.00198L17.3692 5.77698L17.2537 5.66148C17.1359 5.54365 17.077 5.40556 17.077 5.24723C17.077 5.0889 17.1359 4.95073 17.2537 4.83273C17.3781 4.7084 17.5204 4.64623 17.6807 4.64623C17.8409 4.64623 17.9832 4.7084 18.1077 4.83273L19.1672 5.90773C19.2916 6.03206 19.3537 6.17181 19.3537 6.32698C19.3537 6.48215 19.2916 6.62189 19.1672 6.74623C19.0429 6.87056 18.9022 6.93115 18.7452 6.92798C18.5881 6.92464 18.4473 6.86081 18.323 6.73648L18.2077 6.62123L16.998 7.83073C17.434 8.36023 17.7689 8.91156 18.0027 9.48473C18.2367 10.0577 18.3922 10.6974 18.4692 11.4037H20.1922V11.25C20.1922 11.0885 20.2512 10.9487 20.3692 10.8307C20.4871 10.7127 20.6268 10.6537 20.7885 10.6537C20.95 10.6537 21.0897 10.7127 21.2077 10.8307C21.3256 10.9487 21.3845 11.0885 21.3845 11.25V12.75C21.3845 12.9115 21.3256 13.0512 21.2077 13.1692C21.0897 13.2872 20.95 13.3462 20.7885 13.3462C20.6268 13.3462 20.4871 13.2872 20.3692 13.1692C20.2512 13.0512 20.1922 12.9115 20.1922 12.75V12.5962H18.4692C18.3922 13.3089 18.2367 13.9486 18.0027 14.5152C17.7689 15.0819 17.434 15.63 16.998 16.1595L18.2077 17.3692L18.323 17.2537C18.4473 17.1294 18.5896 17.0688 18.75 17.072C18.9101 17.0753 19.0525 17.1359 19.177 17.2537C19.3013 17.3717 19.3635 17.5141 19.3635 17.6807C19.3635 17.8474 19.3013 17.9929 19.177 18.1172L18.127 19.1672C18.0025 19.2916 17.8586 19.3537 17.6952 19.3537C17.5317 19.3537 17.3878 19.2916 17.2635 19.1672C17.1455 19.0492 17.0891 18.9111 17.0942 18.7527C17.0994 18.5944 17.159 18.4531 17.273 18.3287L17.3692 18.223L16.1442 16.998C15.6532 17.4083 15.1221 17.7378 14.551 17.9865C13.9798 18.2351 13.3282 18.4011 12.5962 18.4845V20.1922H12.75C12.9115 20.1922 13.0512 20.2512 13.1692 20.3692C13.2872 20.4871 13.3462 20.6268 13.3462 20.7885C13.3462 20.95 13.2872 21.0897 13.1692 21.2077C13.0512 21.3256 12.9115 21.3845 12.75 21.3845H11.25ZM12 17C13.3833 17 14.5625 16.5125 15.5375 15.5375C16.5125 14.5625 17 13.3833 17 12C17 10.6166 16.5125 9.43748 15.5375 8.46248C14.5625 7.48748 13.3833 6.99998 12 6.99998C10.6166 6.99998 9.43748 7.48748 8.46248 8.46248C7.48748 9.43748 6.99998 10.6166 6.99998 12C6.99998 13.3833 7.48748 14.5625 8.46248 15.5375C9.43748 16.5125 10.6166 17 12 17ZM10.3462 15.7885C10.5911 15.7885 10.7996 15.7022 10.972 15.5297C11.1445 15.3574 11.2307 15.1487 11.2307 14.9037C11.2307 14.6589 11.1445 14.4503 10.972 14.278C10.7996 14.1055 10.5911 14.0192 10.3462 14.0192C10.1012 14.0192 9.89256 14.1055 9.72023 14.278C9.54773 14.4503 9.46148 14.6589 9.46148 14.9037C9.46148 15.1487 9.54773 15.3574 9.72023 15.5297C9.89256 15.7022 10.1012 15.7885 10.3462 15.7885ZM13.6537 15.7885C13.8987 15.7885 14.1074 15.7022 14.2797 15.5297C14.4522 15.3574 14.5385 15.1487 14.5385 14.9037C14.5385 14.6589 14.4522 14.4503 14.2797 14.278C14.1074 14.1055 13.8987 14.0192 13.6537 14.0192C13.4089 14.0192 13.2003 14.1055 13.028 14.278C12.8555 14.4503 12.7692 14.6589 12.7692 14.9037C12.7692 15.1487 12.8555 15.3574 13.028 15.5297C13.2003 15.7022 13.4089 15.7885 13.6537 15.7885ZM8.59623 12.8845C8.84106 12.8845 9.04965 12.7983 9.22198 12.626C9.39448 12.4535 9.48073 12.2448 9.48073 12C9.48073 11.7551 9.39448 11.5465 9.22198 11.374C9.04965 11.2016 8.84106 11.1155 8.59623 11.1155C8.35123 11.1155 8.14256 11.2016 7.97023 11.374C7.79773 11.5465 7.71148 11.7551 7.71148 12C7.71148 12.2448 7.79773 12.4535 7.97023 12.626C8.14256 12.7983 8.35123 12.8845 8.59623 12.8845ZM12 12.8845C12.2448 12.8845 12.4535 12.7983 12.626 12.626C12.7983 12.4535 12.8845 12.2448 12.8845 12C12.8845 11.7551 12.7983 11.5465 12.626 11.374C12.4535 11.2016 12.2448 11.1155 12 11.1155C11.7551 11.1155 11.5465 11.2016 11.374 11.374C11.2016 11.5465 11.1155 11.7551 11.1155 12C11.1155 12.2448 11.2016 12.4535 11.374 12.626C11.5465 12.7983 11.7551 12.8845 12 12.8845ZM15.4037 12.8845C15.6487 12.8845 15.8574 12.7983 16.0297 12.626C16.2022 12.4535 16.2885 12.2448 16.2885 12C16.2885 11.7551 16.2022 11.5465 16.0297 11.374C15.8574 11.2016 15.6487 11.1155 15.4037 11.1155C15.1589 11.1155 14.9503 11.2016 14.778 11.374C14.6055 11.5465 14.5192 11.7551 14.5192 12C14.5192 12.2448 14.6055 12.4535 14.778 12.626C14.9503 12.7983 15.1589 12.8845 15.4037 12.8845ZM10.3462 9.98073C10.5911 9.98073 10.7996 9.89448 10.972 9.72198C11.1445 9.54965 11.2307 9.34106 11.2307 9.09623C11.2307 8.85123 11.1445 8.64256 10.972 8.47023C10.7996 8.29773 10.5911 8.21148 10.3462 8.21148C10.1012 8.21148 9.89256 8.29773 9.72023 8.47023C9.54773 8.64256 9.46148 8.85123 9.46148 9.09623C9.46148 9.34106 9.54773 9.54965 9.72023 9.72198C9.89256 9.89448 10.1012 9.98073 10.3462 9.98073ZM13.6537 9.98073C13.8987 9.98073 14.1074 9.89448 14.2797 9.72198C14.4522 9.54965 14.5385 9.34106 14.5385 9.09623C14.5385 8.85123 14.4522 8.64256 14.2797 8.47023C14.1074 8.29773 13.8987 8.21148 13.6537 8.21148C13.4089 8.21148 13.2003 8.29773 13.028 8.47023C12.8555 8.64256 12.7692 8.85123 12.7692 9.09623C12.7692 9.34106 12.8555 9.54965 13.028 9.72198C13.2003 9.89448 13.4089 9.98073 13.6537 9.98073Z"
  ></path>
</svg>
