<svg viewBox="0 0 24 24" xmlns="http://www.w3.org/2000/svg">
  <path
    d="M5.05775 20.75C4.55258 20.75 4.125 20.575 3.775 20.225C3.425 19.875 3.25 19.4474 3.25 18.9423V5.55775C3.25 5.05258 3.425 4.625 3.775 4.275C4.125 3.925 4.55258 3.75 5.05775 3.75H13.4615C13.674 3.75 13.8522 3.82192 13.996 3.96575C14.1397 4.10958 14.2115 4.28775 14.2115 4.50025C14.2115 4.71292 14.1397 4.891 13.996 5.0345C13.8522 5.17817 13.674 5.25 13.4615 5.25H5.05775C4.96792 5.25 4.89417 5.27883 4.8365 5.3365C4.77883 5.39417 4.75 5.46792 4.75 5.55775V18.9423C4.75 19.0321 4.77883 19.1058 4.8365 19.1635C4.89417 19.2212 4.96792 19.25 5.05775 19.25H18.4423C18.5321 19.25 18.6058 19.2212 18.6635 19.1635C18.7212 19.1058 18.75 19.0321 18.75 18.9423V10.5385C18.75 10.326 18.8219 10.1478 18.9658 10.004C19.1096 9.86033 19.2878 9.7885 19.5002 9.7885C19.7129 9.7885 19.891 9.86033 20.0345 10.004C20.1782 10.1478 20.25 10.326 20.25 10.5385V18.9423C20.25 19.4474 20.075 19.875 19.725 20.225C19.375 20.575 18.9474 20.75 18.4423 20.75H5.05775ZM7.865 10.5C7.6525 10.5 7.47442 10.5719 7.33075 10.7158C7.18725 10.8594 7.1155 11.0375 7.1155 11.25V16.25C7.1155 16.4625 7.18733 16.6406 7.331 16.7843C7.47483 16.9281 7.65308 17 7.86575 17C8.07825 17 8.25633 16.9281 8.4 16.7843C8.5435 16.6406 8.61525 16.4625 8.61525 16.25V11.25C8.61525 11.0375 8.54342 10.8594 8.39975 10.7158C8.25592 10.5719 8.07767 10.5 7.865 10.5ZM11.7498 7.5C11.5371 7.5 11.359 7.57192 11.2155 7.71575C11.0718 7.85942 11 8.0375 11 8.25V16.25C11 16.4625 11.0719 16.6406 11.2158 16.7843C11.3596 16.9281 11.5378 17 11.7503 17C11.9629 17 12.141 16.9281 12.2845 16.7843C12.4282 16.6406 12.5 16.4625 12.5 16.25V8.25C12.5 8.0375 12.4281 7.85942 12.2843 7.71575C12.1404 7.57192 11.9622 7.5 11.7498 7.5ZM15.6342 13.5C15.4216 13.5 15.2435 13.5719 15.1 13.7158C14.9563 13.8594 14.8845 14.0375 14.8845 14.25V16.25C14.8845 16.4625 14.9564 16.6406 15.1003 16.7843C15.2441 16.9281 15.4223 17 15.635 17C15.8475 17 16.0256 16.9281 16.1693 16.7843C16.3128 16.6406 16.3845 16.4625 16.3845 16.25V14.25C16.3845 14.0375 16.3126 13.8594 16.1687 13.7158C16.0251 13.5719 15.8469 13.5 15.6342 13.5ZM17.25 6.75H16C15.7875 6.75 15.6094 6.67808 15.4658 6.53425C15.3219 6.39042 15.25 6.21225 15.25 5.99975C15.25 5.78708 15.3219 5.609 15.4658 5.4655C15.6094 5.32183 15.7875 5.25 16 5.25H17.25V4C17.25 3.7875 17.3219 3.60933 17.4658 3.4655C17.6096 3.32183 17.7878 3.25 18.0003 3.25C18.2129 3.25 18.391 3.32183 18.5345 3.4655C18.6782 3.60933 18.75 3.7875 18.75 4V5.25H20C20.2125 5.25 20.3906 5.32192 20.5343 5.46575C20.6781 5.60958 20.75 5.78775 20.75 6.00025C20.75 6.21292 20.6781 6.391 20.5343 6.5345C20.3906 6.67817 20.2125 6.75 20 6.75H18.75V8C18.75 8.2125 18.6781 8.39058 18.5343 8.53425C18.3904 8.67808 18.2122 8.75 17.9998 8.75C17.7871 8.75 17.609 8.67808 17.4655 8.53425C17.3218 8.39058 17.25 8.2125 17.25 8V6.75Z"
  ></path>
</svg>
