<svg viewBox="0 0 24 24" xmlns="http://www.w3.org/2000/svg">
  <path
    d="M3.42546 20.5001C3.25596 20.5001 3.10371 20.4586 2.96871 20.3758C2.83371 20.293 2.72879 20.1837 2.65396 20.0481C2.57596 19.9134 2.53304 19.7676 2.52521 19.6106C2.51738 19.4536 2.55971 19.2981 2.65221 19.1441L11.213 4.35605C11.3056 4.20205 11.4215 4.08822 11.5605 4.01455C11.6996 3.94089 11.8461 3.90405 12 3.90405C12.1538 3.90405 12.3003 3.94089 12.4395 4.01455C12.5785 4.08822 12.6943 4.20205 12.787 4.35605L21.3477 19.1441C21.4402 19.2981 21.4825 19.4536 21.4747 19.6106C21.4669 19.7676 21.424 19.9134 21.346 20.0481C21.2711 20.1837 21.1662 20.293 21.0312 20.3758C20.8962 20.4586 20.744 20.5001 20.5745 20.5001H3.42546ZM4.44996 19.0001H19.55L12 6.00005L4.44996 19.0001ZM12 17.8078C12.2288 17.8078 12.4206 17.7304 12.5755 17.5756C12.7303 17.4207 12.8077 17.2289 12.8077 17.0001C12.8077 16.7712 12.7303 16.5794 12.5755 16.4246C12.4206 16.2697 12.2288 16.1923 12 16.1923C11.7711 16.1923 11.5793 16.2697 11.4245 16.4246C11.2696 16.5794 11.1922 16.7712 11.1922 17.0001C11.1922 17.2289 11.2696 17.4207 11.4245 17.5756C11.5793 17.7304 11.7711 17.8078 12 17.8078ZM12.0002 15.1923C12.2129 15.1923 12.391 15.1205 12.5345 14.9768C12.6781 14.833 12.75 14.6548 12.75 14.4423V10.9423C12.75 10.7298 12.678 10.5517 12.5342 10.4081C12.3904 10.2642 12.2122 10.1923 11.9997 10.1923C11.787 10.1923 11.609 10.2642 11.4655 10.4081C11.3218 10.5517 11.25 10.7298 11.25 10.9423V14.4423C11.25 14.6548 11.3219 14.833 11.4657 14.9768C11.6095 15.1205 11.7877 15.1923 12.0002 15.1923Z"
  ></path>
</svg>
