<svg viewBox="0 0 24 24" xmlns="http://www.w3.org/2000/svg">
  <path
    d="M11 18.7C11 19.6941 10.1941 20.5 9.2 20.5H5.30775C4.80258 20.5 4.375 20.325 4.025 19.975C3.675 19.625 3.5 19.1974 3.5 18.6923V5.30775C3.5 4.80258 3.675 4.375 4.025 4.025C4.375 3.675 4.80258 3.5 5.30775 3.5H9.2C10.1941 3.5 11 4.30589 11 5.3V18.7ZM9.2 19C9.36569 19 9.5 18.8657 9.5 18.7V5.3C9.5 5.13431 9.36569 5 9.2 5H5.30775C5.21792 5 5.14417 5.02883 5.0865 5.0865C5.02883 5.14417 5 5.21792 5 5.30775V18.6923C5 18.7821 5.02883 18.8558 5.0865 18.9135C5.14417 18.9712 5.21792 19 5.30775 19H9.2ZM14.8 11C13.8059 11 13 10.1941 13 9.2V5.3C13 4.30589 13.8059 3.5 14.8 3.5H18.6923C19.1974 3.5 19.625 3.675 19.975 4.025C20.325 4.375 20.5 4.80258 20.5 5.30775V9.2C20.5 10.1941 19.6941 11 18.7 11H14.8ZM14.5 9.2C14.5 9.36569 14.6343 9.5 14.8 9.5H18.7C18.8657 9.5 19 9.36569 19 9.2V5.30775C19 5.21792 18.9712 5.14417 18.9135 5.0865C18.8558 5.02883 18.7821 5 18.6923 5H14.8C14.6343 5 14.5 5.13431 14.5 5.3V9.2ZM14.8 20.5C13.8059 20.5 13 19.6941 13 18.7V14.8C13 13.8059 13.8059 13 14.8 13H18.7C19.6941 13 20.5 13.8059 20.5 14.8V18.6923C20.5 19.1974 20.325 19.625 19.975 19.975C19.625 20.325 19.1974 20.5 18.6923 20.5H14.8ZM14.5 18.7C14.5 18.8657 14.6343 19 14.8 19H18.6923C18.7821 19 18.8558 18.9712 18.9135 18.9135C18.9712 18.8558 19 18.7821 19 18.6923V14.8C19 14.6343 18.8657 14.5 18.7 14.5H14.8C14.6343 14.5 14.5 14.6343 14.5 14.8V18.7Z"
  ></path>
</svg>
