<svg viewBox="0 0 24 24" xmlns="http://www.w3.org/2000/svg">
  <path
    d="M17.4615 16.602V20.2595C17.4615 20.38 17.5051 20.4839 17.5922 20.5712C17.6794 20.6584 17.7833 20.702 17.9038 20.702C18.0243 20.702 18.1281 20.6584 18.2153 20.5712C18.3026 20.4839 18.3462 20.38 18.3462 20.2595V16.602L19.8345 18.0903C19.9217 18.1776 20.0239 18.2228 20.1413 18.226C20.2586 18.2292 20.3641 18.1839 20.4578 18.0903C20.5513 17.9967 20.598 17.8929 20.598 17.7788C20.598 17.6648 20.5513 17.5609 20.4578 17.4672L18.5365 15.5463C18.3557 15.3654 18.1448 15.275 17.9038 15.275C17.6628 15.275 17.4519 15.3654 17.2712 15.5463L15.35 17.4672C15.2628 17.5544 15.2177 17.6567 15.2145 17.774C15.2112 17.8913 15.2563 17.9967 15.35 18.0903C15.4437 18.1839 15.5475 18.2308 15.6615 18.2308C15.7757 18.2308 15.8795 18.1839 15.973 18.0903L17.4615 16.602ZM12 8.95775C13.4577 8.95775 14.9253 8.7465 16.403 8.324C17.8805 7.90167 18.7366 7.46225 18.9712 7.00575C18.7429 6.51608 17.8958 6.05933 16.4298 5.6355C14.9638 5.21183 13.4872 5 12 5C10.5153 5 9.04383 5.20608 7.5855 5.61825C6.12717 6.03042 5.2685 6.48008 5.0095 6.96725C5.26217 7.43658 6.11442 7.88567 7.56625 8.3145C9.01825 8.74333 10.4962 8.95775 12 8.95775ZM17.9038 22.3078C16.6551 22.3078 15.5929 21.8699 14.7172 20.9943C13.8418 20.1186 13.404 19.0564 13.404 17.8077C13.404 16.5589 13.8418 15.4967 14.7172 14.6213C15.5929 13.7456 16.6551 13.3077 17.9038 13.3077C19.1526 13.3077 20.2148 13.7456 21.0903 14.6213C21.9659 15.4967 22.4038 16.5589 22.4038 17.8077C22.4038 19.0564 21.9659 20.1186 21.0903 20.9943C20.2148 21.8699 19.1526 22.3078 17.9038 22.3078ZM11.325 18.9845C11.3687 19.2615 11.4293 19.5234 11.5068 19.7703C11.5843 20.0169 11.6756 20.2602 11.7808 20.5C10.5961 20.4897 9.50125 20.3906 8.49625 20.2027C7.49108 20.0149 6.61767 19.7611 5.876 19.4413C5.13433 19.1214 4.55292 18.7448 4.13175 18.3115C3.71058 17.8782 3.5 17.4089 3.5 16.9038V7C3.5 6.03467 4.3295 5.21 5.9885 4.526C7.6475 3.842 9.65133 3.5 12 3.5C14.3487 3.5 16.3525 3.842 18.0115 4.526C19.6705 5.21 20.5 6.03467 20.5 7V11.6463C20.2602 11.5411 20.0169 11.4529 19.7703 11.3817C19.5234 11.3106 19.2667 11.2533 19 11.2098V8.9C18.159 9.38967 17.1305 9.76592 15.9145 10.0288C14.6985 10.2916 13.3937 10.4198 12 10.4135C10.5705 10.4135 9.25092 10.2821 8.04125 10.0193C6.83175 9.75642 5.818 9.38333 5 8.9V12.1558C5.818 12.8238 6.87025 13.2917 8.15675 13.5595C9.44325 13.8275 10.7243 13.9615 12 13.9615H12.4385C12.2732 14.191 12.1289 14.4292 12.0058 14.676C11.8828 14.9227 11.7725 15.1845 11.675 15.4615C10.4532 15.4268 9.24775 15.2935 8.05875 15.0615C6.86958 14.8295 5.85 14.4583 5 13.948V17C5.14867 17.2487 5.41792 17.4903 5.80775 17.725C6.19742 17.9597 6.67208 18.1628 7.23175 18.3345C7.79142 18.5063 8.42158 18.65 9.12225 18.7655C9.82275 18.8808 10.557 18.9538 11.325 18.9845Z"
  ></path>
</svg>
