<svg viewBox="0 0 24 24" xmlns="http://www.w3.org/2000/svg">
  <path
    d="M19.4881 20.7193L3.2726 4.5038C3.13427 4.36547 3.06343 4.19405 3.0601 3.98955C3.05693 3.78505 3.1271 3.60522 3.2706 3.45005C3.4271 3.29488 3.60602 3.2173 3.80735 3.2173C4.00852 3.2173 4.18668 3.29488 4.34185 3.45005L20.5571 19.6653C20.7059 19.8141 20.7794 19.9882 20.7773 20.1875C20.7755 20.3869 20.697 20.5648 20.5419 20.7213C20.3867 20.8648 20.211 20.9391 20.0149 20.9443C19.8187 20.9493 19.6431 20.8743 19.4881 20.7193ZM12.4419 20.05C10.015 20.05 7.9916 19.7074 6.3716 19.022C4.75177 18.3369 3.94185 17.4808 3.94185 16.4538V6.55005C3.94185 6.18072 4.07485 5.82905 4.34085 5.49505C4.60685 5.16122 4.97768 4.85005 5.45335 4.56155L10.7726 9.8808C9.69443 9.7988 8.70152 9.63597 7.79385 9.3923C6.88602 9.14863 6.10202 8.83455 5.44185 8.45005V11.998C6.25985 12.4814 7.27385 12.8545 8.48385 13.1173C9.69402 13.3801 11.0134 13.5115 12.4419 13.5115C12.7685 13.5115 13.087 13.5074 13.3973 13.499C13.7077 13.4907 14.018 13.4699 14.3284 13.4365L15.6456 14.7538C15.1431 14.8448 14.6236 14.9105 14.0871 14.951C13.5504 14.9914 13.002 15.0115 12.4419 15.0115C11.0134 15.0115 9.69402 14.8801 8.48385 14.6173C7.27385 14.3545 6.25985 13.9814 5.44185 13.498V16.55C5.68802 17.091 6.50368 17.5596 7.88885 17.9558C9.27418 18.352 10.7919 18.55 12.4419 18.55C13.5919 18.55 14.6931 18.4465 15.7456 18.2395C16.7983 18.0324 17.6618 17.7673 18.3361 17.4443L19.4303 18.5385C18.6713 19.0039 17.688 19.3721 16.4803 19.6433C15.2727 19.9145 13.9265 20.05 12.4419 20.05ZM20.9419 6.55005V15.725C20.9419 15.9375 20.8699 16.1156 20.7261 16.2593C20.5823 16.4031 20.4041 16.475 20.1916 16.475C19.9789 16.475 19.8008 16.4031 19.6574 16.2593C19.5137 16.1156 19.4419 15.9375 19.4419 15.725V13.498C19.2137 13.63 18.9727 13.7522 18.7189 13.8645C18.465 13.9767 18.1932 14.084 17.9034 14.1865C17.7277 14.2507 17.5469 14.2398 17.3611 14.1538C17.1751 14.068 17.0501 13.9372 16.9861 13.7615C16.9219 13.5859 16.9329 13.4051 17.0189 13.2193C17.1047 13.0335 17.2354 12.9085 17.4111 12.8443C17.7958 12.7315 18.1573 12.6045 18.4956 12.4635C18.8341 12.3225 19.1495 12.1674 19.4419 11.998V8.45005C18.7265 8.87188 17.8694 9.20747 16.8706 9.4568C15.8719 9.70613 14.7931 9.85963 13.6341 9.9173C13.4278 9.9378 13.2502 9.8788 13.1014 9.7403C12.9527 9.60197 12.8681 9.42955 12.8476 9.22305C12.8271 9.01672 12.8835 8.83913 13.0169 8.6903C13.1502 8.54163 13.32 8.45705 13.5264 8.43655C14.102 8.37888 14.7094 8.29297 15.3486 8.1788C15.9876 8.0648 16.5876 7.92763 17.1486 7.7673C17.7094 7.60713 18.1976 7.4248 18.6131 7.2203C19.0284 7.0158 19.2951 6.7943 19.4131 6.5558C19.1848 6.06613 18.3376 5.60938 16.8716 5.18555C15.4056 4.76188 13.929 4.55005 12.4419 4.55005C11.8252 4.55005 11.196 4.59172 10.5544 4.67505C9.91268 4.75838 9.30018 4.86672 8.71685 5.00005C8.50402 5.05388 8.30818 5.02438 8.12935 4.91155C7.95052 4.79872 7.83418 4.63588 7.78035 4.42305C7.72652 4.21022 7.75602 4.01438 7.86885 3.83555C7.98168 3.65672 8.14452 3.54038 8.35735 3.48655C8.97135 3.34305 9.62135 3.23438 10.3074 3.16055C10.9932 3.08688 11.7047 3.05005 12.4419 3.05005C14.7905 3.05005 16.7944 3.3928 18.4534 4.0783C20.1124 4.76363 20.9419 5.58755 20.9419 6.55005Z"
  ></path>
</svg>
