<svg viewBox="0 0 24 24" xmlns="http://www.w3.org/2000/svg">
  <path
    d="M8 11.998C8 12.5532 7.80573 13.0256 7.4172 13.4152C7.02867 13.8051 6.55693 14 6.002 14C5.4468 14 4.9744 13.8057 4.5848 13.4172C4.19493 13.0287 4 12.5569 4 12.002C4 11.4468 4.19427 10.9744 4.5828 10.5848C4.97133 10.1949 5.4432 10 5.9984 10C6.55333 10 7.0256 10.1943 7.4152 10.5828C7.80507 10.9713 8 11.4431 8 11.998Z"
  ></path>
  <path
    d="M19.4172 13.4152C19.8057 13.0256 20 12.5532 20 11.998C20 11.4431 19.8051 10.9713 19.4152 10.5828C19.0256 10.1943 18.5532 10 17.998 10C17.4431 10 16.9713 10.1949 16.5828 10.5848C16.1943 10.9744 16 11.4468 16 12.002C16 12.5569 16.1949 13.0287 16.5848 13.4172C16.9744 13.8057 17.4467 14 18.0016 14C18.5568 14 19.0287 13.8051 19.4172 13.4152Z"
  ></path>
  <path
    d="M11.25 19.2941V4.70588C11.25 4.50588 11.3219 4.33827 11.4658 4.20306C11.6096 4.06769 11.7877 4 12.0002 4C12.2129 4 12.391 4.06769 12.5345 4.20306C12.6782 4.33827 12.75 4.50588 12.75 4.70588V19.2941C12.75 19.4941 12.6781 19.6617 12.5343 19.7969C12.3904 19.9323 12.2122 20 11.9997 20C11.7871 20 11.609 19.9323 11.4655 19.7969C11.3218 19.6617 11.25 19.4941 11.25 19.2941Z"
  ></path>
</svg>
