<svg viewBox="0 0 24 24" xmlns="http://www.w3.org/2000/svg">
  <path
    d="M3.88448 20.75C3.46281 20.75 3.10423 20.6023 2.80873 20.3068C2.51323 20.0111 2.36548 19.6524 2.36548 19.2308V4.769C2.36548 4.34733 2.51323 3.98875 2.80873 3.69325C3.10423 3.39775 3.46281 3.25 3.88448 3.25H10.3462C10.7679 3.25 11.1265 3.39775 11.422 3.69325C11.7175 3.98875 11.8652 4.34733 11.8652 4.769V7.25H20.1155C20.5371 7.25 20.8957 7.39775 21.1912 7.69325C21.4867 7.98875 21.6345 8.34733 21.6345 8.769V19.2308C21.6345 19.6524 21.4867 20.0111 21.1912 20.3068C20.8957 20.6023 20.5371 20.75 20.1155 20.75H3.88448ZM3.86523 19.25H10.3655V16.75H3.86523V19.25ZM3.86523 15.25H10.3655V12.75H3.86523V15.25ZM3.86523 11.25H10.3655V8.75H3.86523V11.25ZM3.86523 7.25H10.3655V4.75H3.86523V7.25ZM11.8652 19.25H20.1347V8.75H11.8652V19.25ZM14.8077 12.75C14.5952 12.75 14.4171 12.6781 14.2732 12.5343C14.1296 12.3904 14.0577 12.2122 14.0577 11.9995C14.0577 11.787 14.1296 11.6089 14.2732 11.4653C14.4171 11.3217 14.5952 11.25 14.8077 11.25H17C17.2125 11.25 17.3906 11.3219 17.5342 11.4657C17.6781 11.6094 17.75 11.7876 17.75 12.0002C17.75 12.2129 17.6781 12.391 17.5342 12.5345C17.3906 12.6782 17.2125 12.75 17 12.75H14.8077ZM14.8077 16.75C14.5952 16.75 14.4171 16.6781 14.2732 16.5343C14.1296 16.3904 14.0577 16.2122 14.0577 15.9995C14.0577 15.787 14.1296 15.6089 14.2732 15.4653C14.4171 15.3217 14.5952 15.25 14.8077 15.25H17C17.2125 15.25 17.3906 15.3219 17.5342 15.4657C17.6781 15.6094 17.75 15.7876 17.75 16.0002C17.75 16.2129 17.6781 16.391 17.5342 16.5345C17.3906 16.6782 17.2125 16.75 17 16.75H14.8077Z"
  ></path>
</svg>
