<svg viewBox="0 0 24 24" xmlns="http://www.w3.org/2000/svg">
  <path
    d="M9.04372 11.2538L11.2612 9.02101L9.53422 7.27851L8.93222 7.88051C8.79372 8.01901 8.62222 8.09242 8.41772 8.10076C8.21338 8.10909 8.03363 8.03567 7.87847 7.88051C7.7233 7.72534 7.64572 7.54717 7.64572 7.34601C7.64572 7.14467 7.7233 6.96642 7.87847 6.81126L8.46497 6.22476L6.92647 4.68626L4.69372 6.91901L9.04372 11.2538ZM17.0612 19.2863L19.2937 17.0535L17.7552 15.515L17.1535 16.1018C17.0046 16.2504 16.8306 16.3263 16.6312 16.3295C16.4319 16.3327 16.2546 16.2568 16.0995 16.1018C15.9445 15.9466 15.867 15.7709 15.867 15.5748C15.867 15.3786 15.9445 15.2029 16.0995 15.0478L16.6862 14.446L14.9535 12.7285L12.736 14.946L17.0612 19.2863ZM4.49397 20.3998C4.23613 20.3998 4.02105 20.3135 3.84872 20.141C3.67622 19.9687 3.58997 19.7536 3.58997 19.4958V17.0748C3.58997 16.9543 3.6118 16.8395 3.65547 16.7305C3.69897 16.6215 3.76755 16.5203 3.86122 16.4268L7.97472 12.3133L3.43797 7.76701C3.20597 7.53501 3.08997 7.25234 3.08997 6.91901C3.08997 6.58567 3.20597 6.30301 3.43797 6.07101L6.07847 3.43051C6.31047 3.19851 6.59313 3.08509 6.92647 3.09026C7.2598 3.09526 7.54247 3.21384 7.77447 3.44601L12.3457 7.99201L16.467 3.85551C16.6221 3.70034 16.7926 3.58559 16.9785 3.51126C17.1643 3.43692 17.3586 3.39976 17.5612 3.39976C17.7637 3.39976 17.9579 3.43692 18.1437 3.51126C18.3297 3.58559 18.5002 3.70034 18.6552 3.85551L20.1342 5.37876C20.2894 5.53376 20.4025 5.70426 20.4735 5.89026C20.5446 6.07609 20.5802 6.27026 20.5802 6.47276C20.5802 6.67542 20.5446 6.86551 20.4735 7.04301C20.4025 7.22051 20.2894 7.38684 20.1342 7.54201L16.0322 11.669L20.5592 16.2153C20.7912 16.4473 20.9072 16.7299 20.9072 17.0633C20.9072 17.3966 20.7912 17.6793 20.5592 17.9113L17.9187 20.5518C17.6867 20.7838 17.404 20.8998 17.0707 20.8998C16.7374 20.8998 16.4547 20.7838 16.2227 20.5518L11.6765 16.015L7.56297 20.1285C7.46947 20.2222 7.36822 20.2908 7.25922 20.3343C7.15022 20.3779 7.03547 20.3998 6.91497 20.3998H4.49397ZM5.08997 18.8998H6.65347L16.463 9.10551L14.8842 7.52676L5.08997 17.3363V18.8998ZM15.6862 8.31901L14.8842 7.52676L16.463 9.10551L15.6862 8.31901Z"
  ></path>
</svg>
