<svg viewBox="0 0 24 24" xmlns="http://www.w3.org/2000/svg">
  <path
    d="M5.05775 20.75C4.55258 20.75 4.125 20.575 3.775 20.225C3.425 19.875 3.25 19.4474 3.25 18.9423V5.55775C3.25 5.05258 3.425 4.625 3.775 4.275C4.125 3.925 4.55258 3.75 5.05775 3.75H13.4615C13.674 3.75 13.8522 3.82192 13.996 3.96575C14.1397 4.10958 14.2115 4.28775 14.2115 4.50025C14.2115 4.71292 14.1397 4.891 13.996 5.0345C13.8522 5.17817 13.674 5.25 13.4615 5.25H5.05775C4.96792 5.25 4.89417 5.27883 4.8365 5.3365C4.77883 5.39417 4.75 5.46792 4.75 5.55775V18.9423C4.75 19.0321 4.77883 19.1058 4.8365 19.1635C4.89417 19.2212 4.96792 19.25 5.05775 19.25H18.4423C18.5321 19.25 18.6058 19.2212 18.6635 19.1635C18.7212 19.1058 18.75 19.0321 18.75 18.9423V10.5385C18.75 10.326 18.8219 10.1478 18.9658 10.004C19.1096 9.86033 19.2878 9.7885 19.5002 9.7885C19.7129 9.7885 19.891 9.86033 20.0345 10.004C20.1782 10.1478 20.25 10.326 20.25 10.5385V18.9423C20.25 19.4474 20.075 19.875 19.725 20.225C19.375 20.575 18.9474 20.75 18.4423 20.75H5.05775ZM7.865 10.5C7.6525 10.5 7.47442 10.5719 7.33075 10.7158C7.18725 10.8594 7.1155 11.0375 7.1155 11.25V16.25C7.1155 16.4625 7.18733 16.6406 7.331 16.7843C7.47483 16.9281 7.65308 17 7.86575 17C8.07825 17 8.25633 16.9281 8.4 16.7843C8.5435 16.6406 8.61525 16.4625 8.61525 16.25V11.25C8.61525 11.0375 8.54342 10.8594 8.39975 10.7158C8.25592 10.5719 8.07767 10.5 7.865 10.5ZM15.6342 13.5C15.4216 13.5 15.2435 13.5719 15.1 13.7158C14.9563 13.8594 14.8845 14.0375 14.8845 14.25V16.25C14.8845 16.4625 14.9564 16.6406 15.1003 16.7843C15.2441 16.9281 15.4223 17 15.635 17C15.8475 17 16.0256 16.9281 16.1693 16.7843C16.3128 16.6406 16.3845 16.4625 16.3845 16.25V14.25C16.3845 14.0375 16.3126 13.8594 16.1687 13.7158C16.0251 13.5719 15.8469 13.5 15.6342 13.5Z"
  ></path>
  <path
    d="M11.2153 13.7157C11.3589 13.5719 11.537 13.5 11.7495 13.5C11.9622 13.5 12.1404 13.5719 12.2843 13.7157C12.4279 13.8594 12.4998 14.0375 12.4998 14.25V16.25C12.4998 16.4625 12.428 16.6406 12.2845 16.7843C12.1408 16.9281 11.9627 17 11.7502 17C11.5376 17 11.3593 16.9281 11.2155 16.7843C11.0718 16.6406 11 16.4625 11 16.25V14.25C11 14.0375 11.0718 13.8594 11.2153 13.7157Z"
  ></path>
  <path
    d="M12.7692 12.1345C12.5116 12.1345 12.2965 12.0483 12.124 11.8758C11.9516 11.7034 11.8655 11.4883 11.8655 11.2305V10.2402C11.8655 9.99925 11.9148 9.7675 12.0135 9.545C12.1121 9.32267 12.2436 9.12942 12.4077 8.96525L17.2942 4.08825C17.4186 3.96392 17.5531 3.87642 17.698 3.82575C17.8428 3.77525 17.9877 3.75 18.1327 3.75C18.2877 3.75 18.4393 3.77942 18.5875 3.83825C18.7355 3.89725 18.8685 3.98575 18.9865 4.10375L19.9115 5.03825C20.0191 5.16275 20.1025 5.29742 20.1615 5.44225C20.2205 5.58708 20.25 5.73192 20.25 5.87675C20.25 6.02158 20.2231 6.169 20.1692 6.319C20.1154 6.469 20.0295 6.60617 19.9115 6.7305L15.0345 11.6075C14.8705 11.7717 14.6772 11.9005 14.4547 11.994C14.2324 12.0877 14.0006 12.1345 13.7595 12.1345H12.7692ZM13.0577 10.9423H14.0077L17.2537 7.6805L16.3287 6.7365L13.0577 9.99225V10.9423ZM16.7942 7.2055L16.3287 6.7365L17.2537 7.6805L16.7942 7.2055Z"
  ></path>
</svg>
