<svg viewBox="0 0 24 24" xmlns="http://www.w3.org/2000/svg">
  <path
    d="M5.30775 20.5C4.80258 20.5 4.375 20.325 4.025 19.975C3.675 19.625 3.5 19.1974 3.5 18.6923V5.30775C3.5 4.80258 3.675 4.375 4.025 4.025C4.375 3.675 4.80258 3.5 5.30775 3.5H18.6923C19.1974 3.5 19.625 3.675 19.975 4.025C20.325 4.375 20.5 4.80258 20.5 5.30775V18.6923C20.5 19.1974 20.325 19.625 19.975 19.975C19.625 20.325 19.1974 20.5 18.6923 20.5H5.30775ZM5.30775 19H18.6923C18.7692 19 18.8398 18.9679 18.9038 18.9038C18.9679 18.8398 19 18.7692 19 18.6923V5.30775C19 5.23075 18.9679 5.16025 18.9038 5.09625C18.8398 5.03208 18.7692 5 18.6923 5H5.30775C5.23075 5 5.16025 5.03208 5.09625 5.09625C5.03208 5.16025 5 5.23075 5 5.30775V18.6923C5 18.7692 5.03208 18.8398 5.09625 18.9038C5.16025 18.9679 5.23075 19 5.30775 19ZM14.8077 16.75C15.0206 16.75 15.1987 16.6782 15.3422 16.5345C15.4859 16.391 15.5577 16.2128 15.5577 16C15.5577 15.7872 15.4859 15.609 15.3422 15.4655C15.1987 15.3218 15.0206 15.25 14.8077 15.25H9.94225V12.75H13.8077C14.0206 12.75 14.1987 12.6782 14.3422 12.5345C14.4859 12.391 14.5577 12.2128 14.5577 12C14.5577 11.7872 14.4859 11.609 14.3422 11.4655C14.1987 11.3218 14.0206 11.25 13.8077 11.25H9.94225V8.75H14.8077C15.0206 8.75 15.1987 8.67817 15.3422 8.5345C15.4859 8.391 15.5577 8.21283 15.5577 8C15.5577 7.78717 15.4859 7.609 15.3422 7.4655C15.1987 7.32183 15.0206 7.25 14.8077 7.25H9.34625C9.08858 7.25 8.8735 7.33625 8.701 7.50875C8.5285 7.68108 8.44225 7.89608 8.44225 8.15375V15.8463C8.44225 16.1039 8.5285 16.3189 8.701 16.4913C8.8735 16.6638 9.08858 16.75 9.34625 16.75H14.8077Z"
  ></path>
</svg>
