<svg viewBox="0 0 24 24" xmlns="http://www.w3.org/2000/svg">
  <path
    fill-rule="evenodd"
    clip-rule="evenodd"
    d="M12.0012 2.25232C12.2628 2.25243 12.5169 2.33796 12.7254 2.49607C12.9339 2.65424 13.086 2.8757 13.1567 3.12771L13.1602 3.14294L14.5828 8.66365C14.6297 8.84509 14.7246 9.01041 14.8571 9.14294C14.9896 9.27544 15.155 9.37026 15.3364 9.41716L20.8688 10.8433C21.122 10.9132 21.346 11.0645 21.5051 11.2734C21.664 11.4823 21.75 11.7375 21.75 12C21.75 12.2624 21.664 12.5177 21.5051 12.7265C21.346 12.9355 21.122 13.0868 20.8688 13.1566L20.8571 13.1601L15.3364 14.5828C15.155 14.6297 14.9895 14.7246 14.8571 14.857C14.7246 14.9895 14.6297 15.1549 14.5828 15.3363L13.159 20.857L13.1555 20.8711C13.085 21.1231 12.9338 21.3456 12.7254 21.5039C12.5169 21.6621 12.2618 21.7476 12 21.7476C11.7382 21.7476 11.4833 21.6621 11.2746 21.5039C11.0661 21.3456 10.9151 21.1232 10.8446 20.8711L10.8399 20.857L9.41721 15.3363C9.37032 15.1548 9.27552 14.9895 9.14299 14.857C9.01043 14.7245 8.8452 14.6296 8.6637 14.5828L3.14299 13.159L3.12542 13.1543C2.87441 13.0829 2.65345 12.9312 2.49612 12.723C2.33883 12.5148 2.25354 12.261 2.25354 12C2.25354 11.739 2.33883 11.4852 2.49612 11.2769C2.65345 11.0687 2.87441 10.917 3.12542 10.8457L3.14299 10.841L8.6637 9.41599C8.84493 9.36921 9.01052 9.27517 9.14299 9.14294C9.27542 9.01061 9.3702 8.84485 9.41721 8.66365L10.841 3.14294L10.8457 3.12771C10.9164 2.87582 11.0674 2.65419 11.2758 2.49607C11.4844 2.33782 11.7393 2.25232 12.0012 2.25232ZM10.8703 9.03865C10.7563 9.47953 10.5257 9.88159 10.2035 10.2035C9.88155 10.5252 9.47944 10.7554 9.0387 10.8691L4.65588 12L9.0387 13.1297C9.47975 13.2435 9.88262 13.4744 10.2047 13.7965C10.5266 14.1185 10.7566 14.5215 10.8703 14.9625L12 19.3453L13.1297 14.9625C13.2435 14.5213 13.4744 14.1186 13.7965 13.7965C14.1187 13.4743 14.5214 13.2435 14.9625 13.1297L19.3477 12L14.9625 10.8703C14.5214 10.7565 14.1187 10.5257 13.7965 10.2035C13.4744 9.88134 13.2435 9.4786 13.1297 9.03748L12 4.65466L10.8703 9.03865Z"
  ></path>
  <path
    d="M19.2 2.39998C19.2645 2.39998 19.328 2.42078 19.3793 2.45974C19.4306 2.49866 19.4674 2.55365 19.4848 2.6156L19.486 2.61912L19.8364 3.97849C19.8479 4.02308 19.8706 4.06427 19.9032 4.09685C19.9357 4.12937 19.977 4.15208 20.0215 4.16365L21.3809 4.51521H21.3856C21.4473 4.53277 21.5015 4.57061 21.5403 4.62185C21.579 4.67314 21.6 4.73569 21.6 4.79998C21.6 4.86426 21.579 4.92681 21.5403 4.9781C21.5015 5.02934 21.4473 5.06718 21.3856 5.08474L21.3809 5.08591L20.0215 5.4363C19.977 5.44788 19.9357 5.47057 19.9032 5.5031C19.8706 5.53571 19.8479 5.57685 19.8364 5.62146L19.486 6.98083L19.4848 6.98435C19.4674 7.04634 19.4306 7.10129 19.3793 7.14021C19.328 7.17917 19.2645 7.19998 19.2 7.19998C19.1358 7.19987 19.0731 7.17903 19.0219 7.14021C18.9706 7.1013 18.9338 7.04633 18.9164 6.98435L18.9153 6.98083L18.5649 5.62146C18.5533 5.57675 18.5296 5.53575 18.4969 5.5031C18.4643 5.47056 18.4231 5.44782 18.3785 5.4363L17.0203 5.08591L17.0168 5.08474C16.9547 5.06759 16.9001 5.03045 16.861 4.97927C16.8218 4.92783 16.8 4.86463 16.8 4.79998C16.8 4.73532 16.8218 4.67212 16.861 4.62068C16.9001 4.5695 16.9547 4.53236 17.0168 4.51521L18.3785 4.16365C18.4231 4.15213 18.4643 4.12939 18.4969 4.09685C18.5296 4.0642 18.5533 4.02321 18.5649 3.97849L18.9153 2.61912V2.6156C18.9326 2.55352 18.9705 2.4987 19.0219 2.45974C19.0731 2.42094 19.1357 2.40004 19.2 2.39998Z"
  ></path>
</svg>
