<svg viewBox="0 0 24 24" xmlns="http://www.w3.org/2000/svg">
  <path
    d="M4.32302 19.1572L11.373 16.6572L6.82302 12.1072L4.32302 19.1572ZM21.394 7.73219C21.276 7.85652 21.1379 7.91869 20.9795 7.91869C20.8212 7.91869 20.6831 7.85978 20.5653 7.74194L20.4998 7.67644C20.2279 7.40461 19.8979 7.26869 19.5095 7.26869C19.121 7.26869 18.7909 7.40461 18.519 7.67644L13.4535 12.7419C13.3357 12.8598 13.1976 12.9203 13.0393 12.9234C12.8809 12.9268 12.7396 12.8663 12.6153 12.7419C12.4909 12.6174 12.4288 12.4777 12.4288 12.3227C12.4288 12.1675 12.4909 12.0278 12.6153 11.9034L17.6805 6.83794C18.1819 6.33677 18.7883 6.08619 19.4998 6.08619C20.2113 6.08619 20.8177 6.33677 21.319 6.83794L21.394 6.91294C21.512 7.03094 21.571 7.16752 21.571 7.32269C21.571 7.47769 21.512 7.61419 21.394 7.73219ZM8.93052 4.85719C9.05485 4.73286 9.1946 4.67069 9.34977 4.67069C9.50494 4.67069 9.64469 4.73286 9.76902 4.85719L9.98052 5.06869C10.5139 5.60203 10.7805 6.24177 10.7805 6.98794C10.7805 7.73411 10.5139 8.37386 9.98052 8.90719L9.79977 9.08794C9.68194 9.20594 9.54385 9.26652 9.38552 9.26969C9.22719 9.27286 9.08577 9.21227 8.96127 9.08794C8.83694 8.96361 8.77477 8.82386 8.77477 8.66869C8.77477 8.51369 8.83694 8.37394 8.96127 8.24944L9.14227 8.06869C9.4396 7.77136 9.58827 7.41111 9.58827 6.98794C9.58827 6.56494 9.4396 6.20469 9.14227 5.90719L8.93052 5.69569C8.81269 5.57769 8.7521 5.43953 8.74877 5.28119C8.7456 5.12286 8.80619 4.98152 8.93052 4.85719ZM12.7883 3.12644C12.9126 3.00211 13.0524 2.93994 13.2075 2.93994C13.3627 2.93994 13.5024 3.00211 13.6268 3.12644L14.692 4.19194C15.1999 4.69961 15.4538 5.30919 15.4538 6.02069C15.4538 6.73219 15.1999 7.34177 14.692 7.84944L11.6268 10.9149C11.5088 11.0329 11.3706 11.0935 11.2123 11.0967C11.0539 11.0999 10.9126 11.0393 10.7883 10.9149C10.6639 10.7906 10.6018 10.6509 10.6018 10.4957C10.6018 10.3405 10.6639 10.2008 10.7883 10.0764L13.8538 7.01119C14.1254 6.73936 14.2613 6.40919 14.2613 6.02069C14.2613 5.63219 14.1254 5.30202 13.8538 5.03019L12.7883 3.96494C12.6703 3.84694 12.6097 3.70877 12.6065 3.55044C12.6034 3.39211 12.6639 3.25078 12.7883 3.12644ZM19.9035 14.5687C19.7792 14.693 19.6394 14.7552 19.4843 14.7552C19.3293 14.7552 19.1896 14.693 19.0653 14.5687L18.2883 13.7919C17.9844 13.4879 17.6126 13.3359 17.1728 13.3359C16.7331 13.3359 16.3614 13.4879 16.0575 13.7919L15.2805 14.5687C15.1625 14.6867 15.0244 14.7473 14.866 14.7504C14.7077 14.7536 14.5664 14.693 14.442 14.5687C14.3177 14.4444 14.2555 14.3046 14.2555 14.1494C14.2555 13.9944 14.3177 13.8547 14.442 13.7302L15.219 12.9534C15.7587 12.4136 16.4099 12.1437 17.1728 12.1437C17.9356 12.1437 18.5869 12.4136 19.1268 12.9534L19.9035 13.7302C20.0215 13.8482 20.0821 13.9864 20.0853 14.1447C20.0884 14.303 20.0279 14.4444 19.9035 14.5687ZM2.48252 19.8224L5.75752 10.7169C5.83452 10.5194 5.95085 10.3688 6.10652 10.2649C6.26235 10.1611 6.43069 10.1092 6.61152 10.1092C6.73202 10.1092 6.84419 10.1294 6.94802 10.1697C7.05185 10.2102 7.15052 10.2772 7.24402 10.3707L13.1095 16.2359C13.203 16.3296 13.2699 16.4284 13.3103 16.5322C13.3508 16.636 13.371 16.7482 13.371 16.8687C13.371 17.0495 13.3191 17.2178 13.2153 17.3734C13.1114 17.5293 12.9608 17.6456 12.7633 17.7224L3.65752 20.9974C3.47685 21.0679 3.30285 21.0789 3.13552 21.0302C2.96819 20.9815 2.82427 20.8969 2.70377 20.7764C2.58327 20.6559 2.49869 20.512 2.45002 20.3447C2.40119 20.1774 2.41202 20.0033 2.48252 19.8224Z"
  ></path>
</svg>
