<svg viewBox="0 0 24 24" xmlns="http://www.w3.org/2000/svg">
  <path
    d="M12 19.7935C13.9564 18.0422 15.4534 16.3624 16.4913 14.754C17.5291 13.1457 18.048 11.737 18.048 10.528C18.048 8.70503 17.4689 7.20636 16.3105 6.03203C15.1522 4.8577 13.7154 4.27053 12 4.27053C10.2847 4.27053 8.84786 4.8577 7.68953 6.03203C6.53119 7.20636 5.95203 8.70503 5.95203 10.528C5.95203 11.737 6.47094 13.1457 7.50878 14.754C8.54661 16.3624 10.0437 18.0422 12 19.7935ZM12 21.2203C11.8052 21.2203 11.6104 21.1867 11.4155 21.1195C11.2205 21.0522 11.0442 20.948 10.8865 20.807C9.98919 19.98 9.14944 19.1284 8.36728 18.252C7.58528 17.3759 6.90553 16.4999 6.32803 15.6243C5.75036 14.7486 5.29328 13.8807 4.95678 13.0205C4.62028 12.1602 4.45203 11.3294 4.45203 10.528C4.45203 8.22036 5.19844 6.35211 6.69128 4.92328C8.18428 3.49445 9.95386 2.78003 12 2.78003C14.0462 2.78003 15.8158 3.49445 17.3088 4.92328C18.8016 6.35211 19.548 8.22036 19.548 10.528C19.548 11.3294 19.3798 12.1585 19.0433 13.0155C18.7068 13.8727 18.2514 14.7407 17.677 15.6195C17.1025 16.4984 16.4243 17.3743 15.6423 18.2473C14.8603 19.1204 14.0205 19.9704 13.123 20.7973C12.9654 20.9383 12.7875 21.044 12.5895 21.1145C12.3914 21.185 12.1949 21.2203 12 21.2203ZM12 15.03C12.623 15.03 13.2182 14.9108 13.7855 14.6723C14.3529 14.4338 14.8589 14.0915 15.3038 13.6455C15.3871 13.5685 15.4496 13.4807 15.4913 13.382C15.5329 13.2832 15.5538 13.1787 15.5538 13.0685C15.5538 12.898 15.5112 12.7442 15.426 12.607C15.3407 12.4699 15.2263 12.3577 15.0828 12.2705C14.6006 12.0255 14.1003 11.8409 13.5818 11.7165C13.0631 11.5922 12.5359 11.53 12 11.53C11.4642 11.53 10.9369 11.5922 10.4183 11.7165C9.89978 11.8409 9.39944 12.0255 8.91728 12.2705C8.77378 12.3474 8.66353 12.4544 8.58653 12.5915C8.50969 12.7287 8.47128 12.8794 8.47128 13.0435C8.47128 13.1537 8.48794 13.2582 8.52128 13.357C8.55461 13.4557 8.61294 13.5519 8.69628 13.6455C9.14111 14.0915 9.64719 14.4338 10.2145 14.6723C10.7819 14.9108 11.377 15.03 12 15.03ZM12 10.03C12.4859 10.03 12.899 9.85986 13.2395 9.51953C13.5799 9.17903 13.75 8.76586 13.75 8.28003C13.75 7.7942 13.5799 7.38103 13.2395 7.04053C12.899 6.7002 12.4859 6.53003 12 6.53003C11.5142 6.53003 11.101 6.7002 10.7605 7.04053C10.4202 7.38103 10.25 7.7942 10.25 8.28003C10.25 8.76586 10.4202 9.17903 10.7605 9.51953C11.101 9.85986 11.5142 10.03 12 10.03Z"
  ></path>
</svg>
