<svg viewBox="0 0 24 24" xmlns="http://www.w3.org/2000/svg">
  <path
    d="M8.952 18.8193L6.27875 21.4923C6.13008 21.6409 5.9545 21.7143 5.752 21.7125C5.54933 21.7105 5.37367 21.632 5.225 21.477C5.0865 21.3282 5.01633 21.1525 5.0145 20.95C5.0125 20.7475 5.08592 20.5718 5.23475 20.423L7.90775 17.75H6.04225C5.82975 17.75 5.65167 17.6781 5.508 17.5343C5.36417 17.3904 5.29225 17.2122 5.29225 16.9998C5.29225 16.7871 5.36417 16.609 5.508 16.4655C5.65167 16.3218 5.82975 16.25 6.04225 16.25H9.548C9.80417 16.25 10.0188 16.3366 10.192 16.5098C10.3653 16.6831 10.452 16.8978 10.452 17.1538V20.6595C10.452 20.872 10.3801 21.0502 10.2363 21.194C10.0924 21.3377 9.91417 21.4095 9.7015 21.4095C9.489 21.4095 9.31092 21.3377 9.16725 21.194C9.02375 21.0502 8.952 20.872 8.952 20.6595V18.8193ZM5.74975 14.0577C5.53708 14.0577 5.359 13.9858 5.2155 13.842C5.07183 13.6983 5 13.5202 5 13.3077V4.30775C5 3.81058 5.177 3.385 5.531 3.031C5.885 2.677 6.31058 2.5 6.80775 2.5H14.0044C14.4818 2.5 14.9396 2.68964 15.2772 3.02721L19.4728 7.22279C19.8104 7.56036 20 8.01819 20 8.49558V19.6923C20 20.1894 19.823 20.615 19.469 20.969C19.115 21.323 18.6894 21.5 18.1923 21.5H13.3943C13.1818 21.5 13.0036 21.4281 12.8598 21.2843C12.7161 21.1404 12.6442 20.9622 12.6442 20.7498C12.6442 20.5371 12.7161 20.359 12.8598 20.2155C13.0036 20.0718 13.1818 20 13.3943 20H18.1923C18.2821 20 18.3558 19.9712 18.4135 19.9135C18.4712 19.8558 18.5 19.7821 18.5 19.6923V8.5H14.8997C14.6447 8.5 14.4311 8.41375 14.2587 8.24125C14.0863 8.06875 14 7.855 14 7.6V4H6.80775C6.71792 4 6.64417 4.02883 6.5865 4.0865C6.52883 4.14417 6.5 4.21792 6.5 4.30775V13.3077C6.5 13.5202 6.42808 13.6983 6.28425 13.842C6.14042 13.9858 5.96225 14.0577 5.74975 14.0577Z"
  ></path>
</svg>
