<svg viewBox="0 0 24 24" xmlns="http://www.w3.org/2000/svg">
  <path
    d="M11.9905 20.2795C11.7763 20.2795 11.5612 20.2411 11.3453 20.1642C11.1293 20.0872 10.9392 19.9667 10.775 19.8027L9.3385 18.497C7.5655 16.8803 5.9825 15.2921 4.5895 13.7325C3.1965 12.1728 2.5 10.502 2.5 8.71997C2.5 7.3008 2.9785 6.11264 3.9355 5.15547C4.89267 4.19847 6.08083 3.71997 7.5 3.71997C8.30633 3.71997 9.10283 3.90589 9.8895 4.27772C10.676 4.64955 11.3795 5.25339 12 6.08922C12.6205 5.25339 13.324 4.64955 14.1105 4.27772C14.8972 3.90589 15.6937 3.71997 16.5 3.71997C17.9192 3.71997 19.1073 4.19847 20.0645 5.15547C21.0215 6.11264 21.5 7.3008 21.5 8.71997C21.5 10.5213 20.7917 12.2107 19.375 13.7882C17.9583 15.3657 16.3788 16.9404 14.6365 18.5122L13.2153 19.8027C13.0513 19.9667 12.8597 20.0872 12.6405 20.1642C12.4212 20.2411 12.2045 20.2795 11.9905 20.2795ZM11.2808 7.60847C10.7397 6.78414 10.1702 6.17997 9.572 5.79597C8.974 5.41197 8.28333 5.21997 7.5 5.21997C6.5 5.21997 5.66667 5.5533 5 6.21997C4.33333 6.88664 4 7.71997 4 8.71997C4 9.52247 4.25867 10.3616 4.776 11.2372C5.29333 12.1129 5.94267 12.9834 6.724 13.8487C7.50533 14.7142 8.35183 15.5597 9.2635 16.3852C10.175 17.2109 11.0198 17.9782 11.798 18.6872C11.8557 18.7386 11.923 18.7642 12 18.7642C12.077 18.7642 12.1443 18.7386 12.202 18.6872C12.9802 17.9782 13.825 17.2109 14.7365 16.3852C15.6482 15.5597 16.4947 14.7142 17.276 13.8487C18.0573 12.9834 18.7067 12.1129 19.224 11.2372C19.7413 10.3616 20 9.52247 20 8.71997C20 7.71997 19.6667 6.88664 19 6.21997C18.3333 5.5533 17.5 5.21997 16.5 5.21997C15.7167 5.21997 15.026 5.41197 14.428 5.79597C13.8298 6.17997 13.2603 6.78414 12.7192 7.60847C12.6346 7.73664 12.5282 7.8328 12.4 7.89697C12.2718 7.96097 12.1385 7.99297 12 7.99297C11.8615 7.99297 11.7282 7.96097 11.6 7.89697C11.4718 7.8328 11.3654 7.73664 11.2808 7.60847Z"
  ></path>
</svg>
