<svg viewBox="0 0 24 24" xmlns="http://www.w3.org/2000/svg">
  <path
    d="M11.9905 20.2795C11.7763 20.2795 11.5612 20.2411 11.3453 20.1642C11.1293 20.0872 10.9392 19.9667 10.775 19.8027L9.3385 18.497C7.5655 16.8803 5.9825 15.2921 4.5895 13.7325C3.1965 12.1728 2.5 10.502 2.5 8.71997C2.5 7.3008 2.9785 6.11264 3.9355 5.15547C4.89267 4.19847 6.08083 3.71997 7.5 3.71997C8.30633 3.71997 9.10283 3.90589 9.8895 4.27772C10.676 4.64955 11.3795 5.25339 12 6.08922C12.6205 5.25339 13.324 4.64955 14.1105 4.27772C14.8972 3.90589 15.6937 3.71997 16.5 3.71997C17.9192 3.71997 19.1073 4.19847 20.0645 5.15547C21.0215 6.11264 21.5 7.3008 21.5 8.71997C21.5 10.5213 20.7917 12.2107 19.375 13.7882C17.9583 15.3657 16.3788 16.9404 14.6365 18.5122L13.2153 19.8027C13.0513 19.9667 12.8597 20.0872 12.6405 20.1642C12.4212 20.2411 12.2045 20.2795 11.9905 20.2795Z"
  ></path>
</svg>
