<svg viewBox="0 0 24 24" xmlns="http://www.w3.org/2000/svg">
  <path
    d="M20.2389 9.77733C20.1877 9.26249 19.9604 8.77828 19.5914 8.40917C19.3519 8.16969 19.0629 7.99168 18.7496 7.88085V12.1182C19.0628 12.0073 19.352 11.8302 19.5914 11.5908C20.0132 11.1689 20.2496 10.5966 20.2496 9.99999L20.2389 9.77733ZM8.28964 19.5791L8.32284 19.6611C8.40928 19.8488 8.55132 20.0065 8.73104 20.1113C8.93653 20.2311 9.17833 20.275 9.41268 20.2344C9.64687 20.1938 9.85912 20.0714 10.0123 19.8896C10.1653 19.7079 10.2492 19.4778 10.2496 19.2402V14.8017C9.78784 14.7677 9.31407 14.75 8.83163 14.75H6.9996V14.749C6.86466 14.7492 6.7302 14.7428 6.59628 14.7314L8.28964 19.5791ZM17.2496 4.62206C16.4973 5.1231 15.6002 5.54435 14.6119 5.87401C13.7361 6.16611 12.773 6.38954 11.7496 6.53905V13.46C12.7734 13.6095 13.7369 13.8337 14.6129 14.126C15.6009 14.4556 16.4975 14.8761 17.2496 15.3769V4.62206ZM10.2496 6.69921C9.78533 6.73094 9.31181 6.74999 8.83163 6.74999H7.00057L6.7203 6.76171C6.07139 6.81805 5.45161 7.06849 4.94393 7.48339C4.36368 7.95763 3.96549 8.61819 3.816 9.35253C3.66653 10.0868 3.77498 10.8503 4.12362 11.5137C4.47189 12.1762 5.03868 12.6977 5.72811 12.9912H5.72909C6.13147 13.162 6.56336 13.2506 6.99862 13.25H8.83163C9.31181 13.25 9.78536 13.2681 10.2496 13.2998V6.69921ZM21.7457 10.1855C21.6998 11.1124 21.3112 11.992 20.6519 12.6514C20.1281 13.1752 19.4648 13.5279 18.7496 13.6738V17C18.7496 17.3125 18.5559 17.5923 18.2633 17.7021C17.9707 17.8118 17.6407 17.7285 17.4351 17.4932C16.7826 16.7464 15.652 16.0538 14.1383 15.5488C13.4114 15.3064 12.6085 15.1132 11.7496 14.9766V19.2402L11.7398 19.4609C11.6944 19.9726 11.4929 20.4599 11.1598 20.8555C10.779 21.3076 10.2509 21.611 9.66854 21.7119C9.08614 21.8128 8.48683 21.7049 7.97616 21.4072C7.46549 21.1096 7.07579 20.6414 6.87655 20.085L6.8746 20.0791L4.83163 14.2256C3.96497 13.7807 3.25274 13.0797 2.79647 12.2119C2.28693 11.2426 2.12792 10.1268 2.34628 9.0537C2.56472 7.9806 3.14681 7.0153 3.99471 6.32226C4.8427 5.62923 5.90445 5.25045 6.9996 5.24999H8.83163C10.8094 5.24999 12.635 4.95221 14.1373 4.45116C15.6512 3.94616 16.7826 3.25358 17.4351 2.50683C17.6407 2.27153 17.9707 2.18817 18.2633 2.29784C18.5559 2.40767 18.7496 2.68744 18.7496 2.99999V6.32519C19.4649 6.47109 20.128 6.8247 20.6519 7.34862C21.355 8.05186 21.7496 9.00555 21.7496 9.99999L21.7457 10.1855Z"
  ></path>
</svg>
