<svg viewBox="0 0 24 24" xmlns="http://www.w3.org/2000/svg">
  <path
    d="M7 12.875V19.375C7 19.5875 6.92808 19.7656 6.78425 19.9093C6.64042 20.0531 6.46225 20.125 6.24975 20.125C6.03708 20.125 5.859 20.0531 5.7155 19.9093C5.57183 19.7656 5.5 19.5875 5.5 19.375V4.779C5.5 4.52283 5.58667 4.30817 5.76 4.135C5.93317 3.96167 6.14783 3.875 6.404 3.875H12.848C13.0615 3.875 13.2521 3.942 13.4197 4.076C13.5872 4.21 13.6928 4.384 13.7365 4.598L13.996 5.875H18.596C18.8522 5.875 19.0668 5.96125 19.24 6.13375C19.4133 6.30625 19.5 6.52 19.5 6.775V13.9753C19.5 14.2303 19.4133 14.4439 19.24 14.6163C19.0668 14.7887 18.8522 14.875 18.596 14.875H14.152C13.9385 14.875 13.7479 14.808 13.5803 14.674C13.4128 14.54 13.3072 14.366 13.2635 14.152L13.004 12.875H7ZM14.65 13.375H18V7.375H13.498C13.2847 7.375 13.0942 7.308 12.9265 7.174C12.7588 7.04 12.6532 6.866 12.6095 6.652L12.35 5.375H7V11.375H13.502C13.7153 11.375 13.9058 11.442 14.0735 11.576C14.2412 11.71 14.3468 11.884 14.3905 12.098L14.65 13.375Z"
  ></path>
</svg>
