<svg viewBox="0 0 24 24" xmlns="http://www.w3.org/2000/svg">
  <path
    fill-rule="evenodd"
    clip-rule="evenodd"
    d="M11.999 2C6.20097 2 1.5 6.59042 1.5 12.2534C1.5 16.7834 4.50829 20.626 8.6807 21.9825C9.20604 22.0762 9.39748 21.7596 9.39748 21.4877C9.39748 21.2448 9.38845 20.5996 9.3833 19.7442C6.46267 20.3636 5.84645 18.3695 5.84645 18.3695C5.36881 17.1856 4.68039 16.8702 4.68039 16.8702C3.72705 16.2339 4.75259 16.2465 4.75259 16.2465C5.80649 16.3195 6.36083 17.3033 6.36083 17.3033C7.29742 18.8699 8.81864 18.4174 9.41682 18.1555C9.51222 17.4927 9.78294 17.0408 10.0833 16.7846C7.75185 16.5259 5.30048 15.646 5.30048 11.7171C5.30048 10.598 5.7098 9.6828 6.38146 8.96588C6.27317 8.70656 5.91284 7.66423 6.48395 6.25242C6.48395 6.25242 7.36574 5.97673 9.3717 7.30356C10.209 7.07634 11.1076 6.96241 12.0003 6.95864C12.8918 6.96241 13.7903 7.07634 14.6289 7.30356C16.6336 5.97673 17.5135 6.25242 17.5135 6.25242C18.0865 7.66423 17.7262 8.70656 17.6179 8.96588C18.2908 9.6828 18.6976 10.598 18.6976 11.7171C18.6976 15.6561 16.2423 16.5228 13.9031 16.7765C14.2802 17.0931 14.6161 17.7187 14.6161 18.6754C14.6161 20.0457 14.6032 21.1516 14.6032 21.4877C14.6032 21.7622 14.792 22.0813 15.3251 21.9812C19.4943 20.6223 22.5 16.7821 22.5 12.2534C22.5 6.59042 17.7984 2 11.999 2Z"
  ></path>
</svg>
