<svg viewBox="0 0 24 24" xmlns="http://www.w3.org/2000/svg">
  <path
    d="M6 18.7213H9.34625V13.6828C9.34625 13.4268 9.43283 13.2121 9.606 13.0388C9.77933 12.8656 9.994 12.7791 10.25 12.7791H13.75C14.006 12.7791 14.2207 12.8656 14.394 13.0388C14.5672 13.2121 14.6538 13.4268 14.6538 13.6828V18.7213H18V9.87505C18 9.82389 17.9888 9.77747 17.9663 9.7358C17.9439 9.69414 17.9135 9.65722 17.875 9.62505L12.1828 5.3463C12.1314 5.30147 12.0705 5.27905 12 5.27905C11.9295 5.27905 11.8686 5.30147 11.8173 5.3463L6.125 9.62505C6.0865 9.65722 6.05608 9.69414 6.03375 9.7358C6.01125 9.77747 6 9.82389 6 9.87505V18.7213ZM4.5 18.7213V9.87505C4.5 9.58889 4.564 9.3178 4.692 9.0618C4.82017 8.80564 4.99717 8.59472 5.223 8.42905L10.9155 4.14055C11.2313 3.89955 11.5923 3.77905 11.9985 3.77905C12.4047 3.77905 12.7667 3.89955 13.0845 4.14055L18.777 8.42905C19.0028 8.59472 19.1798 8.80564 19.308 9.0618C19.436 9.3178 19.5 9.58889 19.5 9.87505V18.7213C19.5 19.1303 19.3523 19.4826 19.0568 19.7781C18.7613 20.0736 18.409 20.2213 18 20.2213H14.0578C13.8016 20.2213 13.5869 20.1346 13.4138 19.9613C13.2404 19.7881 13.1538 19.5735 13.1538 19.3173V14.2791H10.8463V19.3173C10.8463 19.5735 10.7596 19.7881 10.5863 19.9613C10.4131 20.1346 10.1984 20.2213 9.94225 20.2213H6C5.591 20.2213 5.23875 20.0736 4.94325 19.7781C4.64775 19.4826 4.5 19.1303 4.5 18.7213Z"
  ></path>
</svg>
