<svg viewBox="0 0 24 24" xmlns="http://www.w3.org/2000/svg">
  <path
    d="M22.5 5.30775V18.6923C22.5 19.1894 22.323 19.615 21.969 19.969C21.615 20.323 21.1894 20.5 20.6923 20.5H17.25C17.0375 20.5 16.8593 20.4281 16.7155 20.2843C16.5718 20.1404 16.5 19.9622 16.5 19.7498C16.5 19.5371 16.5718 19.359 16.7155 19.2155C16.8593 19.0718 17.0375 19 17.25 19H20.6923C20.7821 19 20.8558 18.9712 20.9135 18.9135C20.9712 18.8558 21 18.7821 21 18.6923V5.30775C21 5.21792 20.9712 5.14417 20.9135 5.0865C20.8558 5.02883 20.7821 5 20.6923 5H12C11.9102 5 11.8364 5.02883 11.7788 5.0865C11.7211 5.14417 11.6923 5.21792 11.6923 5.30775V6.14425C11.6923 6.35675 11.6203 6.53492 11.4765 6.67875C11.3327 6.82242 11.1545 6.89425 10.942 6.89425C10.7293 6.89425 10.5513 6.82242 10.4078 6.67875C10.2641 6.53492 10.1923 6.35675 10.1923 6.14425V5.277C10.1923 4.791 10.3669 4.37333 10.7163 4.024C11.0656 3.67467 11.4832 3.5 11.9692 3.5H20.6923C21.1894 3.5 21.615 3.677 21.969 4.031C22.323 4.385 22.5 4.81058 22.5 5.30775ZM1.5 12.1788C1.5 11.8839 1.567 11.6061 1.701 11.3453C1.835 11.0842 2.0225 10.8717 2.2635 10.7077L6.95575 7.3635C7.12208 7.24383 7.29217 7.15783 7.466 7.1055C7.63983 7.05317 7.8175 7.027 7.999 7.027C8.1805 7.027 8.35842 7.05317 8.53275 7.1055C8.70692 7.15783 8.87742 7.24383 9.04425 7.3635L13.7365 10.7077C13.9775 10.8717 14.165 11.0842 14.299 11.3453C14.433 11.6061 14.5 11.8839 14.5 12.1788V18.6923C14.5 19.1894 14.323 19.615 13.969 19.969C13.615 20.323 13.1894 20.5 12.6923 20.5H10.9423C10.4453 20.5 10.0198 20.323 9.66575 19.969C9.31175 19.615 9.13475 19.1894 9.13475 18.6923V15.75H6.86525V18.6923C6.86525 19.1894 6.68825 19.615 6.33425 19.969C5.98025 20.323 5.55475 20.5 5.05775 20.5H3.30775C2.81058 20.5 2.385 20.323 2.031 19.969C1.677 19.615 1.5 19.1894 1.5 18.6923V12.1788ZM3 12.1635V18.6923C3 18.7821 3.02883 18.8558 3.0865 18.9135C3.14417 18.9712 3.21792 19 3.30775 19H5.05775C5.14742 19 5.22108 18.9712 5.27875 18.9135C5.33658 18.8558 5.3655 18.7821 5.3655 18.6923V15.7692C5.3655 15.3474 5.51325 14.9888 5.80875 14.6933C6.10425 14.3978 6.46283 14.25 6.8845 14.25H9.1155C9.53717 14.25 9.89575 14.3978 10.1912 14.6933C10.4867 14.9888 10.6345 15.3474 10.6345 15.7692V18.6923C10.6345 18.7821 10.6634 18.8558 10.7213 18.9135C10.7789 18.9712 10.8526 19 10.9423 19H12.6923C12.7821 19 12.8558 18.9712 12.9135 18.9135C12.9712 18.8558 13 18.7821 13 18.6923V12.1635C13 12.1122 12.9888 12.0641 12.9663 12.0192C12.9439 11.9744 12.9102 11.9359 12.8652 11.9038L8.173 8.59425C8.12183 8.55575 8.06417 8.5365 8 8.5365C7.93583 8.5365 7.87817 8.55575 7.827 8.59425L3.13475 11.9038C3.08975 11.9359 3.05608 11.9744 3.03375 12.0192C3.01125 12.0641 3 12.1122 3 12.1635ZM17.5673 8.8845H18.4328C18.5533 8.8845 18.6587 8.83933 18.749 8.749C18.8393 8.65867 18.8845 8.55325 18.8845 8.43275V7.56725C18.8845 7.44675 18.8393 7.34133 18.749 7.251C18.6587 7.16067 18.5533 7.1155 18.4328 7.1155H17.5673C17.4468 7.1155 17.3413 7.16067 17.251 7.251C17.1607 7.34133 17.1155 7.44675 17.1155 7.56725V8.43275C17.1155 8.55325 17.1607 8.65867 17.251 8.749C17.3413 8.83933 17.4468 8.8845 17.5673 8.8845ZM17.5673 12.8845H18.4328C18.5533 12.8845 18.6587 12.8393 18.749 12.749C18.8393 12.6587 18.8845 12.5532 18.8845 12.4327V11.5673C18.8845 11.4468 18.8393 11.3413 18.749 11.251C18.6587 11.1607 18.5533 11.1155 18.4328 11.1155H17.5673C17.4468 11.1155 17.3413 11.1607 17.251 11.251C17.1607 11.3413 17.1155 11.4468 17.1155 11.5673V12.4327C17.1155 12.5532 17.1607 12.6587 17.251 12.749C17.3413 12.8393 17.4468 12.8845 17.5673 12.8845ZM17.5673 16.8845H18.4328C18.5533 16.8845 18.6587 16.8393 18.749 16.749C18.8393 16.6587 18.8845 16.5532 18.8845 16.4327V15.5673C18.8845 15.4468 18.8393 15.3413 18.749 15.251C18.6587 15.1607 18.5533 15.1155 18.4328 15.1155H17.5673C17.4468 15.1155 17.3413 15.1607 17.251 15.251C17.1607 15.3413 17.1155 15.4468 17.1155 15.5673V16.4327C17.1155 16.5532 17.1607 16.6587 17.251 16.749C17.3413 16.8393 17.4468 16.8845 17.5673 16.8845Z"
  ></path>
</svg>
