<svg viewBox="0 0 24 24" xmlns="http://www.w3.org/2000/svg">
  <path
    fill-rule="evenodd"
    clip-rule="evenodd"
    d="M11.5664 3.50195H14.9131L14.9893 3.50586C15.3676 3.54413 15.6631 3.86352 15.6631 4.25195C15.6631 4.64038 15.3676 4.95978 14.9893 4.99805L14.9131 5.00195H11.0186V5H9.83691V19H14.1631V12L14.167 11.9238C14.2053 11.5456 14.5248 11.2501 14.9131 11.25C15.3015 11.25 15.6209 11.5455 15.6592 11.9238L15.6631 12V19H20V15.8945H19.9971V12L20.001 11.9238C20.0392 11.5455 20.3587 11.2501 20.7471 11.25C21.1355 11.25 21.4549 11.5455 21.4932 11.9238L21.4971 12V13.2422C21.4979 13.2639 21.5 13.2856 21.5 13.3076V18.6924C21.5 19.1895 21.3227 19.6148 20.9688 19.9688C20.6148 20.3227 20.1895 20.5 19.6924 20.5H4.30762C3.81051 20.5 3.38522 20.3227 3.03125 19.9688C2.67728 19.6148 2.50003 19.1895 2.5 18.6924V11.3076C2.50003 10.8105 2.67728 10.3852 3.03125 10.0312C3.38522 9.67728 3.81051 9.50003 4.30762 9.5H8.33691V5.30762C8.33695 4.81064 8.51341 4.38516 8.86719 4.03125C9.22119 3.67725 9.64736 3.5 10.1445 3.5H11.5664V3.50195ZM4 19H8.33691V11H4V19Z"
  ></path>
  <path
    d="M17.728 5.5741C17.8713 5.67555 17.9397 5.83598 18.0143 5.98942C18.0262 6.01365 18.0382 6.03787 18.0502 6.06208C18.0817 6.12559 18.1129 6.18921 18.1441 6.25286C18.1996 6.36627 18.2555 6.4795 18.3115 6.59269C18.3175 6.60471 18.3234 6.61674 18.3295 6.62913C18.5567 7.10461 18.5567 7.10461 18.9448 7.4477C18.9592 7.45607 18.9735 7.46444 18.9883 7.47306C19.1313 7.55469 19.2788 7.62751 19.4266 7.7C19.4391 7.70614 19.4516 7.71228 19.4645 7.71861C19.5817 7.77613 19.6991 7.83345 19.8167 7.89018C19.8818 7.92159 19.9467 7.95335 20.0115 7.98533C20.0475 8.003 20.0837 8.02027 20.12 8.03752C20.2765 8.11506 20.393 8.19735 20.4724 8.3562C20.4968 8.49127 20.5043 8.61702 20.4321 8.73848C20.3399 8.86811 20.2052 8.9462 20.0646 9.01372C20.0479 9.02201 20.0311 9.0303 20.0139 9.03885C19.9607 9.06507 19.9075 9.09096 19.8542 9.11684C19.8191 9.13408 19.784 9.15134 19.749 9.16863C19.6802 9.20247 19.6115 9.2362 19.5427 9.26984C19.4511 9.31464 19.3597 9.35979 19.2685 9.40528C19.2561 9.41144 19.2437 9.4176 19.2309 9.42394C18.8631 9.60776 18.6499 9.78862 18.4541 10.1548C18.4435 10.1742 18.433 10.1936 18.4222 10.2136C18.3434 10.3612 18.2685 10.5105 18.1943 10.6604C18.1846 10.68 18.1749 10.6997 18.1648 10.7199C18.1155 10.8195 18.0664 10.9192 18.0177 11.0192C17.9993 11.0565 17.981 11.0938 17.9626 11.1311C17.9543 11.1483 17.946 11.1655 17.9375 11.1832C17.8744 11.3104 17.7988 11.4127 17.6702 11.4816C17.5466 11.5223 17.3972 11.5178 17.2775 11.4662C17.1331 11.3756 17.0589 11.2125 16.987 11.0639C16.978 11.0457 16.9691 11.0276 16.9598 11.009C16.9409 10.9705 16.922 10.9321 16.9031 10.8936C16.8544 10.7941 16.8051 10.6949 16.7558 10.5957C16.7462 10.5765 16.7367 10.5572 16.7268 10.5374C16.656 10.3949 16.5839 10.2534 16.5081 10.1135C16.4996 10.0975 16.491 10.0815 16.4822 10.0649C16.2948 9.72431 16.0231 9.55399 15.6839 9.38545C15.6703 9.37868 15.6567 9.37192 15.6428 9.36495C15.5481 9.31781 15.4532 9.27111 15.3582 9.22451C15.2887 9.19035 15.2192 9.15604 15.1497 9.12171C15.1141 9.10416 15.0785 9.08669 15.0428 9.06929C14.9903 9.04364 14.9379 9.01774 14.8856 8.99178C14.8698 8.98416 14.8541 8.97654 14.8378 8.96868C14.695 8.89729 14.5642 8.8147 14.5085 8.65845C14.4915 8.52631 14.483 8.37222 14.5578 8.25602C14.6819 8.10511 14.8889 8.02364 15.0605 7.94028C15.0856 7.92796 15.1106 7.91562 15.1356 7.90327C15.1845 7.87917 15.2334 7.85515 15.2824 7.83122C15.3751 7.78577 15.4674 7.73951 15.5596 7.69314C15.6226 7.66153 15.6858 7.63037 15.7494 7.59977C16.0725 7.44327 16.2981 7.28506 16.4751 6.96629C16.4836 6.95092 16.4922 6.93555 16.501 6.91971C16.6386 6.66858 16.7621 6.40979 16.8878 6.15257C16.9217 6.08337 16.9558 6.0143 16.99 5.94524C17.0002 5.92415 17.0104 5.90306 17.021 5.88134C17.0724 5.77773 17.1176 5.69581 17.2063 5.62089C17.2232 5.60605 17.2401 5.59121 17.2575 5.57592C17.3875 5.48258 17.5941 5.49224 17.728 5.5741Z"
  ></path>
</svg>
