<svg viewBox="0 0 24 24" xmlns="http://www.w3.org/2000/svg">
  <path
    d="M8.34625 13.5577H15.6538V13.2C15.6538 12.5692 15.3143 12.0544 14.6355 11.6558C13.9567 11.2571 13.0782 11.0577 12 11.0577C10.9218 11.0577 10.0433 11.2571 9.3645 11.6558C8.68567 12.0544 8.34625 12.5692 8.34625 13.2V13.5577ZM12 9.75C12.4858 9.75 12.899 9.57983 13.2395 9.2395C13.5798 8.899 13.75 8.48583 13.75 8C13.75 7.51417 13.5798 7.101 13.2395 6.7605C12.899 6.42017 12.4858 6.25 12 6.25C11.5142 6.25 11.101 6.42017 10.7605 6.7605C10.4202 7.101 10.25 7.51417 10.25 8C10.25 8.48583 10.4202 8.899 10.7605 9.2395C11.101 9.57983 11.5142 9.75 12 9.75ZM6.0385 17.5L4.0365 19.5018C3.752 19.7864 3.42475 19.8509 3.05475 19.6952C2.68492 19.5394 2.5 19.2589 2.5 18.8538V4.30775C2.5 3.80258 2.675 3.375 3.025 3.025C3.375 2.675 3.80258 2.5 4.30775 2.5H19.6923C20.1974 2.5 20.625 2.675 20.975 3.025C21.325 3.375 21.5 3.80258 21.5 4.30775V15.6923C21.5 16.1974 21.325 16.625 20.975 16.975C20.625 17.325 20.1974 17.5 19.6923 17.5H6.0385ZM5.4 16H19.6923C19.7693 16 19.8398 15.9679 19.9038 15.9038C19.9679 15.8398 20 15.7692 20 15.6923V4.30775C20 4.23075 19.9679 4.16025 19.9038 4.09625C19.8398 4.03208 19.7693 4 19.6923 4H4.30775C4.23075 4 4.16025 4.03208 4.09625 4.09625C4.03208 4.16025 4 4.23075 4 4.30775V17.3848L5.4 16Z"
  ></path>
</svg>
