<svg viewBox="0 0 24 24" xmlns="http://www.w3.org/2000/svg">
  <path
    d="M10.5462 12L6.47299 7.927C6.33465 7.7885 6.26382 7.61442 6.26049 7.40475C6.25732 7.19525 6.32815 7.018 6.47299 6.873C6.61799 6.72817 6.79365 6.65575 6.99999 6.65575C7.20632 6.65575 7.38199 6.72817 7.52699 6.873L12.0212 11.3672C12.1147 11.4609 12.1807 11.5601 12.2192 11.6648C12.2577 11.7694 12.277 11.8816 12.277 12.0012C12.277 12.1209 12.2577 12.2327 12.2192 12.3365C12.1807 12.4403 12.1147 12.5391 12.0212 12.6328L7.52699 17.127C7.38849 17.2653 7.2144 17.3362 7.00474 17.3395C6.79524 17.3427 6.61799 17.2718 6.47299 17.127C6.32815 16.982 6.25574 16.8063 6.25574 16.6C6.25574 16.3937 6.32815 16.218 6.47299 16.073L10.5462 12ZM17.0002 6.25C17.2129 6.25 17.391 6.32192 17.5345 6.46575C17.6782 6.60942 17.75 6.7875 17.75 7V17C17.75 17.2125 17.6781 17.3906 17.5342 17.5343C17.3904 17.6781 17.2122 17.75 16.9997 17.75C16.7871 17.75 16.609 17.6781 16.4655 17.5343C16.3218 17.3906 16.25 17.2125 16.25 17V7C16.25 6.7875 16.3219 6.60942 16.4657 6.46575C16.6096 6.32192 16.7877 6.25 17.0002 6.25Z"
  ></path>
</svg>
