<svg viewBox="0 0 24 24" xmlns="http://www.w3.org/2000/svg">
  <path
    d="M3.5 17.1138V9.89656C3.5 9.47856 3.65392 9.12956 3.96175 8.84956C4.26942 8.56939 4.63283 8.44598 5.052 8.47931C6.35583 8.67931 7.59392 9.06681 8.76625 9.64181C9.93875 10.2168 11.0167 10.9498 12 11.8408C12.9833 10.9498 14.0612 10.2168 15.2337 9.64181C16.4061 9.06681 17.6442 8.67931 18.948 8.47931C19.3672 8.44598 19.7306 8.56939 20.0383 8.84956C20.3461 9.12956 20.5 9.47856 20.5 9.89656V17.1138C20.5 17.5125 20.3682 17.8545 20.1047 18.1398C19.8412 18.425 19.5102 18.5842 19.1115 18.6176C17.9935 18.7907 16.9329 19.0674 15.9298 19.4476C14.9266 19.8276 13.966 20.3406 13.048 20.9868C12.8903 21.1111 12.7247 21.2028 12.5512 21.2618C12.3776 21.3208 12.1936 21.3503 11.9993 21.3503C11.8049 21.3503 11.6212 21.3208 11.448 21.2618C11.275 21.2028 11.1097 21.1111 10.952 20.9868C10.034 20.3406 9.075 19.8276 8.075 19.4476C7.075 19.0674 6.01283 18.7907 4.8885 18.6176C4.48983 18.5842 4.15875 18.425 3.89525 18.1398C3.63175 17.8545 3.5 17.5125 3.5 17.1138ZM12 19.8831C13.05 19.1062 14.1667 18.4831 15.35 18.0136C16.5333 17.5441 17.75 17.2339 19 17.0831V9.99081C17.7385 10.2075 16.517 10.637 15.3355 11.2793C14.1542 11.9215 13.0423 12.7637 12 13.8061C10.9577 12.7637 9.84583 11.9215 8.6645 11.2793C7.483 10.637 6.2615 10.2075 5 9.99081V17.0831C6.25 17.2339 7.46667 17.5441 8.65 18.0136C9.83333 18.4831 10.95 19.1062 12 19.8831ZM12 8.79081C11.0058 8.79081 10.1548 8.43681 9.44675 7.72881C8.73875 7.02081 8.38475 6.16964 8.38475 5.17531C8.38475 4.18114 8.73875 3.33006 9.44675 2.62206C10.1548 1.91406 11.0058 1.56006 12 1.56006C12.9942 1.56006 13.8453 1.91406 14.5533 2.62206C15.2613 3.33006 15.6152 4.18114 15.6152 5.17531C15.6152 6.16964 15.2613 7.02081 14.5533 7.72881C13.8453 8.43681 12.9942 8.79081 12 8.79081ZM12.0003 7.29081C12.5821 7.29081 13.0801 7.08364 13.4943 6.66931C13.9084 6.25498 14.1155 5.75689 14.1155 5.17506C14.1155 4.59323 13.9083 4.09523 13.494 3.68106C13.0797 3.26706 12.5816 3.06006 11.9998 3.06006C11.4179 3.06006 10.9199 3.26723 10.5058 3.68156C10.0916 4.09589 9.8845 4.59398 9.8845 5.17581C9.8845 5.75764 10.0917 6.25556 10.506 6.66956C10.9203 7.08373 11.4184 7.29081 12.0003 7.29081Z"
  ></path>
</svg>
