<svg viewBox="0 0 24 24" xmlns="http://www.w3.org/2000/svg">
  <path
    d="M10.95 15.8707L14.627 12.1937C14.7757 12.045 14.9548 11.969 15.1645 11.9657C15.374 11.9625 15.5563 12.0385 15.7115 12.1937C15.8667 12.3489 15.9443 12.5296 15.9443 12.7359C15.9443 12.9423 15.8667 13.123 15.7115 13.2782L11.5828 17.4072C11.4019 17.5879 11.191 17.6782 10.95 17.6782C10.709 17.6782 10.4981 17.5879 10.3173 17.4072L8.2885 15.3782C8.13983 15.2295 8.06383 15.0504 8.0605 14.8407C8.05733 14.6312 8.13333 14.4489 8.2885 14.2937C8.44367 14.1385 8.62442 14.0609 8.83075 14.0609C9.03708 14.0609 9.21783 14.1385 9.373 14.2937L10.95 15.8707ZM5.30775 21.5552C4.80258 21.5552 4.375 21.3802 4.025 21.0302C3.675 20.6802 3.5 20.2526 3.5 19.7474V6.36294C3.5 5.85777 3.675 5.43019 4.025 5.08019C4.375 4.73019 4.80258 4.55519 5.30775 4.55519H6.69225V3.20894C6.69225 2.98977 6.76567 2.80677 6.9125 2.65994C7.05933 2.51327 7.24233 2.43994 7.4615 2.43994C7.68083 2.43994 7.86383 2.51327 8.0105 2.65994C8.15733 2.80677 8.23075 2.98977 8.23075 3.20894V4.55519H15.8077V3.18994C15.8077 2.97711 15.8795 2.79886 16.023 2.65519C16.1667 2.51169 16.3449 2.43994 16.5577 2.43994C16.7706 2.43994 16.9487 2.51169 17.0922 2.65519C17.2359 2.79886 17.3077 2.97711 17.3077 3.18994V4.55519H18.6923C19.1974 4.55519 19.625 4.73019 19.975 5.08019C20.325 5.43019 20.5 5.85777 20.5 6.36294V19.7474C20.5 20.2526 20.325 20.6802 19.975 21.0302C19.625 21.3802 19.1974 21.5552 18.6923 21.5552H5.30775ZM5.30775 20.0552H18.6923C18.7692 20.0552 18.8398 20.0231 18.9038 19.9589C18.9679 19.8949 19 19.8244 19 19.7474V10.3629H5V19.7474C5 19.8244 5.03208 19.8949 5.09625 19.9589C5.16025 20.0231 5.23075 20.0552 5.30775 20.0552ZM5 8.86294H19V6.36294C19 6.28594 18.9679 6.21544 18.9038 6.15144C18.8398 6.08727 18.7692 6.05519 18.6923 6.05519H5.30775C5.23075 6.05519 5.16025 6.08727 5.09625 6.15144C5.03208 6.21544 5 6.28594 5 6.36294V8.86294Z"
  ></path>
</svg>
