<svg viewBox="0 0 24 24" xmlns="http://www.w3.org/2000/svg">
  <path
    d="M12 15C12.8333 15 13.5417 14.7083 14.125 14.125C14.7083 13.5417 15 12.8333 15 12C15 11.1667 14.7083 10.4583 14.125 9.875C13.5417 9.29167 12.8333 9 12 9C11.1667 9 10.4583 9.29167 9.875 9.875C9.29167 10.4583 9 11.1667 9 12C9 12.8333 9.29167 13.5417 9.875 14.125C10.4583 14.7083 11.1667 15 12 15ZM12 16.5C10.7513 16.5 9.68917 16.0622 8.8135 15.1865C7.93783 14.3108 7.5 13.2487 7.5 12C7.5 10.7513 7.93783 9.68917 8.8135 8.8135C9.68917 7.93783 10.7513 7.5 12 7.5C13.2487 7.5 14.3108 7.93783 15.1865 8.8135C16.0622 9.68917 16.5 10.7513 16.5 12C16.5 13.2487 16.0622 14.3108 15.1865 15.1865C14.3108 16.0622 13.2487 16.5 12 16.5ZM2 12.75C1.7875 12.75 1.60942 12.6781 1.46575 12.5343C1.32192 12.3904 1.25 12.2122 1.25 11.9998C1.25 11.7871 1.32192 11.609 1.46575 11.4655C1.60942 11.3218 1.7875 11.25 2 11.25H4.25C4.4625 11.25 4.64067 11.3219 4.7845 11.4658C4.92817 11.6096 5 11.7878 5 12.0003C5 12.2129 4.92817 12.391 4.7845 12.5345C4.64067 12.6782 4.4625 12.75 4.25 12.75H2ZM19.75 12.75C19.5375 12.75 19.3593 12.6781 19.2155 12.5343C19.0718 12.3904 19 12.2122 19 11.9998C19 11.7871 19.0718 11.609 19.2155 11.4655C19.3593 11.3218 19.5375 11.25 19.75 11.25H22C22.2125 11.25 22.3906 11.3219 22.5343 11.4658C22.6781 11.6096 22.75 11.7878 22.75 12.0003C22.75 12.2129 22.6781 12.391 22.5343 12.5345C22.3906 12.6782 22.2125 12.75 22 12.75H19.75ZM11.9998 5C11.7871 5 11.609 4.92817 11.4655 4.7845C11.3218 4.64067 11.25 4.4625 11.25 4.25V2C11.25 1.7875 11.3219 1.60942 11.4658 1.46575C11.6096 1.32192 11.7878 1.25 12.0003 1.25C12.2129 1.25 12.391 1.32192 12.5345 1.46575C12.6782 1.60942 12.75 1.7875 12.75 2V4.25C12.75 4.4625 12.6781 4.64067 12.5343 4.7845C12.3904 4.92817 12.2122 5 11.9998 5ZM11.9998 22.75C11.7871 22.75 11.609 22.6781 11.4655 22.5343C11.3218 22.3906 11.25 22.2125 11.25 22V19.75C11.25 19.5375 11.3219 19.3593 11.4658 19.2155C11.6096 19.0718 11.7878 19 12.0003 19C12.2129 19 12.391 19.0718 12.5345 19.2155C12.6782 19.3593 12.75 19.5375 12.75 19.75V22C12.75 22.2125 12.6781 22.3906 12.5343 22.5343C12.3904 22.6781 12.2122 22.75 11.9998 22.75ZM6.00575 7.0405L4.748 5.81725C4.59933 5.67875 4.52758 5.50475 4.53275 5.29525C4.53792 5.08558 4.61067 4.90317 4.751 4.748C4.90417 4.593 5.084 4.5155 5.2905 4.5155C5.49683 4.5155 5.67242 4.593 5.81725 4.748L7.05 5.99625C7.19483 6.15125 7.26725 6.32683 7.26725 6.523C7.26725 6.71917 7.19642 6.89483 7.05475 7.05C6.91308 7.20517 6.74167 7.27858 6.5405 7.27025C6.33917 7.26192 6.16092 7.18533 6.00575 7.0405ZM18.1828 19.252L16.95 18.0038C16.8052 17.8488 16.7327 17.6706 16.7327 17.4693C16.7327 17.2679 16.8052 17.0948 16.95 16.95C17.0853 16.7948 17.2544 16.7214 17.4573 16.7298C17.6601 16.7381 17.8391 16.8147 17.9943 16.9595L19.252 18.1828C19.4007 18.3213 19.4724 18.4953 19.4673 18.7048C19.4621 18.9144 19.3893 19.0968 19.249 19.252C19.0958 19.407 18.916 19.4845 18.7095 19.4845C18.5032 19.4845 18.3276 19.407 18.1828 19.252ZM16.95 7.05475C16.7948 6.91308 16.7214 6.74167 16.7298 6.5405C16.7381 6.33917 16.8147 6.16092 16.9595 6.00575L18.1828 4.748C18.3213 4.59933 18.4953 4.52758 18.7048 4.53275C18.9144 4.53792 19.0968 4.61067 19.252 4.751C19.407 4.90417 19.4845 5.084 19.4845 5.2905C19.4845 5.49683 19.407 5.67242 19.252 5.81725L18.0038 7.05C17.8488 7.19483 17.6732 7.26725 17.477 7.26725C17.2808 7.26725 17.1052 7.19642 16.95 7.05475ZM4.748 19.254C4.593 19.0975 4.5155 18.916 4.5155 18.7095C4.5155 18.5032 4.593 18.3276 4.748 18.1828L5.99625 16.95C6.15125 16.8052 6.32942 16.7327 6.53075 16.7327C6.73208 16.7327 6.90517 16.8052 7.05 16.95C7.19867 17.0853 7.26883 17.2544 7.2605 17.4573C7.25217 17.6601 7.17883 17.8391 7.0405 17.9943L5.81725 19.252C5.67242 19.407 5.49683 19.482 5.2905 19.477C5.084 19.4718 4.90317 19.3975 4.748 19.254Z"
  ></path>
</svg>
