<svg viewBox="0 0 24 24" xmlns="http://www.w3.org/2000/svg">
  <path
    d="M2.90803 17.5765C2.7427 17.411 2.66003 17.2251 2.66003 17.0188C2.66003 16.8123 2.7427 16.6263 2.90803 16.461L8.22353 11.1458C8.56837 10.8008 8.99529 10.6283 9.50428 10.6283C10.0133 10.6283 10.4402 10.8008 10.785 11.1458L13.2735 13.634C13.3375 13.6982 13.4145 13.7287 13.5043 13.7255C13.594 13.7223 13.6677 13.6855 13.7255 13.615L20.0293 6.438C20.1678 6.27267 20.3428 6.19 20.5543 6.19C20.7658 6.19 20.9491 6.26434 21.1043 6.413C21.2428 6.5515 21.3162 6.71625 21.3245 6.90725C21.3329 7.09825 21.2678 7.27133 21.1293 7.4265L14.7888 14.659C14.444 15.054 14.0139 15.2623 13.4985 15.284C12.9832 15.3058 12.5364 15.1277 12.158 14.7495L9.72553 12.3168C9.6677 12.2591 9.59395 12.2303 9.50428 12.2303C9.41445 12.2303 9.3407 12.2591 9.28303 12.3168L4.02353 17.5765C3.86453 17.7353 3.6802 17.8164 3.47053 17.8198C3.26103 17.8229 3.07353 17.7418 2.90803 17.5765Z"
  ></path>
</svg>
