<svg viewBox="0 0 24 24" xmlns="http://www.w3.org/2000/svg">
  <path
    d="M7.0385 16.5384C5.78283 16.5384 4.7125 16.0959 3.8275 15.2109C2.9425 14.3261 2.5 13.2559 2.5 12.0004C2.5 10.7449 2.9425 9.67459 3.8275 8.78943C4.7125 7.90409 5.78283 7.46143 7.0385 7.46143H10.0578C10.2703 7.46143 10.4483 7.53334 10.592 7.67718C10.7358 7.82101 10.8077 7.99926 10.8077 8.21192C10.8077 8.42442 10.7358 8.60251 10.592 8.74617C10.4483 8.88967 10.2703 8.96143 10.0578 8.96143H7.03725C6.19825 8.96143 5.48233 9.25792 4.8895 9.85092C4.2965 10.4439 4 11.1603 4 11.9999C4 12.8396 4.2965 13.5559 4.8895 14.1489C5.48233 14.7419 6.19825 15.0384 7.03725 15.0384H10.0578C10.2703 15.0384 10.4483 15.1103 10.592 15.2542C10.7358 15.398 10.8077 15.5762 10.8077 15.7887C10.8077 16.0013 10.7358 16.1794 10.592 16.3229C10.4483 16.4666 10.2703 16.5384 10.0578 16.5384H7.0385ZM9 12.7499C8.7875 12.7499 8.60942 12.678 8.46575 12.5342C8.32192 12.3903 8.25 12.2122 8.25 11.9997C8.25 11.787 8.32192 11.6089 8.46575 11.4654C8.60942 11.3218 8.7875 11.2499 9 11.2499H15C15.2125 11.2499 15.3906 11.3218 15.5343 11.4657C15.6781 11.6095 15.75 11.7877 15.75 12.0002C15.75 12.2128 15.6781 12.3909 15.5343 12.5344C15.3906 12.6781 15.2125 12.7499 15 12.7499H9ZM13.9423 16.5384C13.7298 16.5384 13.5517 16.4665 13.408 16.3227C13.2642 16.1788 13.1923 16.0006 13.1923 15.7879C13.1923 15.5754 13.2642 15.3973 13.408 15.2537C13.5517 15.1102 13.7298 15.0384 13.9423 15.0384H16.9628C17.8018 15.0384 18.5177 14.7419 19.1105 14.1489C19.7035 13.5559 20 12.8396 20 11.9999C20 11.1603 19.7035 10.4439 19.1105 9.85092C18.5177 9.25792 17.8018 8.96143 16.9628 8.96143H13.9423C13.7298 8.96143 13.5517 8.88951 13.408 8.74568C13.2642 8.60184 13.1923 8.42368 13.1923 8.21118C13.1923 7.99851 13.2642 7.82043 13.408 7.67693C13.5517 7.53326 13.7298 7.46143 13.9423 7.46143H16.9615C18.2172 7.46143 19.2875 7.90393 20.1725 8.78893C21.0575 9.67376 21.5 10.7439 21.5 11.9994C21.5 13.2549 21.0575 14.3253 20.1725 15.2104C19.2875 16.0958 18.2172 16.5384 16.9615 16.5384H13.9423Z"
  ></path>
</svg>
