<svg viewBox="0 0 24 24" xmlns="http://www.w3.org/2000/svg">
  <path
    d="M12 19.7935C13.9564 18.0422 15.4534 16.3624 16.4913 14.754C17.5291 13.1457 18.048 11.737 18.048 10.528C18.048 8.70503 17.4689 7.20636 16.3105 6.03203C15.1522 4.8577 13.7154 4.27053 12 4.27053C10.2847 4.27053 8.84786 4.8577 7.68953 6.03203C6.53119 7.20636 5.95203 8.70503 5.95203 10.528C5.95203 11.737 6.47094 13.1457 7.50878 14.754C8.54661 16.3624 10.0437 18.0422 12 19.7935ZM12 21.2203C11.8052 21.2203 11.6104 21.1867 11.4155 21.1195C11.2205 21.0522 11.0442 20.948 10.8865 20.807C9.98919 19.98 9.14944 19.1284 8.36728 18.252C7.58528 17.3759 6.90553 16.4999 6.32803 15.6243C5.75036 14.7486 5.29328 13.8807 4.95678 13.0205C4.62028 12.1602 4.45203 11.3294 4.45203 10.528C4.45203 8.22036 5.19844 6.35211 6.69128 4.92328C8.18428 3.49445 9.95386 2.78003 12 2.78003C14.0462 2.78003 15.8158 3.49445 17.3088 4.92328C18.8016 6.35211 19.548 8.22036 19.548 10.528C19.548 11.3294 19.3798 12.1585 19.0433 13.0155C18.7068 13.8727 18.2514 14.7407 17.677 15.6195C17.1025 16.4984 16.4243 17.3743 15.6423 18.2473C14.8603 19.1204 14.0205 19.9704 13.123 20.7973C12.9677 20.9383 12.7911 21.044 12.5933 21.1145C12.3956 21.185 12.1979 21.2203 12 21.2203ZM12.0018 12.1453C12.4993 12.1453 12.9246 11.9681 13.2778 11.6138C13.6311 11.2594 13.8078 10.8335 13.8078 10.336C13.8078 9.83853 13.6306 9.41311 13.2763 9.05978C12.9219 8.70661 12.4959 8.53003 11.9983 8.53003C11.5008 8.53003 11.0754 8.7072 10.7223 9.06153C10.3689 9.41586 10.1923 9.84186 10.1923 10.3395C10.1923 10.837 10.3694 11.2624 10.7238 11.6155C11.0781 11.9687 11.5041 12.1453 12.0018 12.1453Z"
  ></path>
</svg>
