<svg viewBox="0 0 24 24" xmlns="http://www.w3.org/2000/svg">
  <path
    d="M6.30775 21.75C5.80908 21.75 5.38308 21.5734 5.02975 21.2203C4.67658 20.8669 4.5 20.4409 4.5 19.9423V10.5577C4.5 10.0591 4.67658 9.63308 5.02975 9.27975C5.38308 8.92658 5.80908 8.75 6.30775 8.75H7.5V6.75C7.5 5.50133 7.93783 4.43917 8.8135 3.5635C9.68917 2.68783 10.7513 2.25 12 2.25C13.2487 2.25 14.3108 2.68783 15.1865 3.5635C16.0622 4.43917 16.5 5.50133 16.5 6.75V8.75H17.6923C18.1909 8.75 18.6169 8.92658 18.9703 9.27975C19.3234 9.63308 19.5 10.0591 19.5 10.5577V19.9423C19.5 20.4409 19.3234 20.8669 18.9703 21.2203C18.6169 21.5734 18.1909 21.75 17.6923 21.75H6.30775ZM6.30775 20.25H17.6923C17.7821 20.25 17.8558 20.2212 17.9135 20.1635C17.9712 20.1058 18 20.0321 18 19.9423V10.5577C18 10.4679 17.9712 10.3942 17.9135 10.3365C17.8558 10.2788 17.7821 10.25 17.6923 10.25H6.30775C6.21792 10.25 6.14417 10.2788 6.0865 10.3365C6.02883 10.3942 6 10.4679 6 10.5577V19.9423C6 20.0321 6.02883 20.1058 6.0865 20.1635C6.14417 20.2212 6.21792 20.25 6.30775 20.25ZM12 17C12.4858 17 12.899 16.8298 13.2395 16.4895C13.5798 16.149 13.75 15.7358 13.75 15.25C13.75 14.7642 13.5798 14.351 13.2395 14.0105C12.899 13.6702 12.4858 13.5 12 13.5C11.5142 13.5 11.101 13.6702 10.7605 14.0105C10.4202 14.351 10.25 14.7642 10.25 15.25C10.25 15.7358 10.4202 16.149 10.7605 16.4895C11.101 16.8298 11.5142 17 12 17ZM9 8.75H15V6.75C15 5.91667 14.7083 5.20833 14.125 4.625C13.5417 4.04167 12.8333 3.75 12 3.75C11.1667 3.75 10.4583 4.04167 9.875 4.625C9.29167 5.20833 9 5.91667 9 6.75V8.75Z"
  ></path>
</svg>
