<svg viewBox="0 0 24 24" xmlns="http://www.w3.org/2000/svg">
  <path
    d="M7.30775 22.5C6.80908 22.5 6.38308 22.3234 6.02975 21.9703C5.67658 21.6169 5.5 21.1909 5.5 20.6923V3.30775C5.5 2.80258 5.675 2.375 6.025 2.025C6.375 1.675 6.80258 1.5 7.30775 1.5H16.7308C17.2294 1.5 17.6553 1.67658 18.0085 2.02975C18.3618 2.38308 18.5385 2.80908 18.5385 3.30775V6.4655C18.8128 6.53717 19.0417 6.68042 19.225 6.89525C19.4083 7.10992 19.5 7.35958 19.5 7.64425V9.52875C19.5 9.81342 19.4083 10.0632 19.225 10.278C19.0417 10.4927 18.8128 10.6359 18.5385 10.7078V20.6923C18.5385 21.1909 18.3618 21.6169 18.0085 21.9703C17.6553 22.3234 17.2294 22.5 16.7308 22.5H7.30775ZM7.30775 21H16.7308C16.8204 21 16.8942 20.9712 16.952 20.9135C17.0097 20.8558 17.0385 20.7821 17.0385 20.6923V3.30775C17.0385 3.21792 17.0097 3.14417 16.952 3.0865C16.8942 3.02883 16.8204 3 16.7308 3H7.30775C7.21792 3 7.14417 3.02883 7.0865 3.0865C7.02883 3.14417 7 3.21792 7 3.30775V20.6923C7 20.7821 7.02883 20.8558 7.0865 20.9135C7.14417 20.9712 7.21792 21 7.30775 21ZM12.0192 19.6152C12.2706 19.6152 12.4808 19.5307 12.65 19.3615C12.8192 19.1923 12.9038 18.9821 12.9038 18.7307C12.9038 18.4794 12.8192 18.2692 12.65 18.1C12.4808 17.9308 12.2706 17.8463 12.0192 17.8463C11.7679 17.8463 11.5577 17.9308 11.3885 18.1C11.2193 18.2692 11.1348 18.4794 11.1348 18.7307C11.1348 18.9821 11.2193 19.1923 11.3885 19.3615C11.5577 19.5307 11.7679 19.6152 12.0192 19.6152Z"
  ></path>
</svg>
