<svg viewBox="0 0 24 24" xmlns="http://www.w3.org/2000/svg">
  <path
    d="M1.80005 17.0822C1.80005 16.5669 1.93305 16.1069 2.19905 15.7024C2.46505 15.2979 2.8203 14.9833 3.2648 14.7584C4.21513 14.2936 5.17072 13.9352 6.13155 13.6832C7.09255 13.4314 8.14863 13.3054 9.2998 13.3054C10.4511 13.3054 11.5072 13.4314 12.4681 13.6832C13.4291 13.9352 14.3847 14.2936 15.3351 14.7584C15.7796 14.9833 16.1348 15.2979 16.4008 15.7024C16.6668 16.1069 16.7998 16.5669 16.7998 17.0822V17.7862C16.7998 18.1887 16.6521 18.5425 16.3566 18.8477C16.0611 19.1529 15.7024 19.3054 15.2806 19.3054H3.31905C2.89738 19.3054 2.5388 19.1577 2.2433 18.8622C1.9478 18.5665 1.80005 18.2079 1.80005 17.7862V17.0822ZM20.6846 19.3054H18.4133C18.539 19.0759 18.6348 18.8317 18.7008 18.5727C18.7668 18.3137 18.7998 18.0515 18.7998 17.7862V16.9592C18.7998 16.3029 18.6391 15.6773 18.3178 15.0824C17.9963 14.4878 17.5403 13.9775 16.9498 13.5517C17.6203 13.6517 18.2569 13.8064 18.8596 14.0159C19.4621 14.2256 20.0371 14.4734 20.5846 14.7592C21.1012 15.0349 21.5002 15.3598 21.7816 15.7339C22.0629 16.1079 22.2036 16.5164 22.2036 16.9592V17.7862C22.2036 18.2079 22.0558 18.5665 21.7603 18.8622C21.4648 19.1577 21.1062 19.3054 20.6846 19.3054ZM9.2998 11.6899C8.3373 11.6899 7.51338 11.3473 6.82805 10.6619C6.14272 9.97644 5.80005 9.15244 5.80005 8.18994C5.80005 7.22744 6.14272 6.40352 6.82805 5.71819C7.51338 5.03269 8.3373 4.68994 9.2998 4.68994C10.2623 4.68994 11.0863 5.03269 11.7718 5.71819C12.4571 6.40352 12.7998 7.22744 12.7998 8.18994C12.7998 9.15244 12.4571 9.97644 11.7718 10.6619C11.0863 11.3473 10.2623 11.6899 9.2998 11.6899ZM17.9343 8.18994C17.9343 9.15244 17.5916 9.97644 16.9063 10.6619C16.221 11.3473 15.3971 11.6899 14.4346 11.6899C14.3217 11.6899 14.1781 11.6771 14.0038 11.6514C13.8293 11.6258 13.6857 11.5976 13.573 11.5669C13.9674 11.0928 14.2705 10.5668 14.4823 9.98894C14.694 9.41111 14.7998 8.81111 14.7998 8.18894C14.7998 7.56661 14.6918 6.96886 14.4758 6.39569C14.2598 5.82269 13.9589 5.29519 13.573 4.81319C13.7165 4.76186 13.8601 4.72852 14.0038 4.71319C14.1473 4.69769 14.2909 4.68994 14.4346 4.68994C15.3971 4.68994 16.221 5.03269 16.9063 5.71819C17.5916 6.40352 17.9343 7.22744 17.9343 8.18994ZM3.2998 17.8054H15.2998V17.0822C15.2998 16.8734 15.2476 16.6875 15.1431 16.5247C15.0387 16.3619 14.8731 16.2195 14.6461 16.0977C13.8231 15.6734 12.9756 15.3519 12.1038 15.1332C11.232 14.9147 10.2973 14.8054 9.2998 14.8054C8.30247 14.8054 7.36788 14.9147 6.49605 15.1332C5.62422 15.3519 4.7768 15.6734 3.9538 16.0977C3.7268 16.2195 3.56105 16.3619 3.45655 16.5247C3.35205 16.6875 3.2998 16.8734 3.2998 17.0822V17.8054ZM9.2998 10.1899C9.8498 10.1899 10.3206 9.99411 10.7123 9.60244C11.104 9.21077 11.2998 8.73994 11.2998 8.18994C11.2998 7.63994 11.104 7.16911 10.7123 6.77744C10.3206 6.38577 9.8498 6.18994 9.2998 6.18994C8.7498 6.18994 8.27897 6.38577 7.8873 6.77744C7.49563 7.16911 7.2998 7.63994 7.2998 8.18994C7.2998 8.73994 7.49563 9.21077 7.8873 9.60244C8.27897 9.99411 8.7498 10.1899 9.2998 10.1899Z"
  ></path>
</svg>
