<svg viewBox="0 0 24 24" xmlns="http://www.w3.org/2000/svg">
  <path
    d="M6.23077 13.5C5.81827 13.5 5.46519 13.3531 5.17152 13.0592C4.87769 12.7656 4.73077 12.4125 4.73077 12C4.73077 11.5875 4.87769 11.2344 5.17152 10.9408C5.46519 10.6469 5.81827 10.5 6.23077 10.5C6.64327 10.5 6.99644 10.6469 7.29027 10.9408C7.58394 11.2344 7.73077 11.5875 7.73077 12C7.73077 12.4125 7.58394 12.7656 7.29027 13.0592C6.99644 13.3531 6.64327 13.5 6.23077 13.5ZM12 13.5C11.5875 13.5 11.2344 13.3531 10.9408 13.0592C10.6469 12.7656 10.5 12.4125 10.5 12C10.5 11.5875 10.6469 11.2344 10.9408 10.9408C11.2344 10.6469 11.5875 10.5 12 10.5C12.4125 10.5 12.7656 10.6469 13.0593 10.9408C13.3531 11.2344 13.5 11.5875 13.5 12C13.5 12.4125 13.3531 12.7656 13.0593 13.0592C12.7656 13.3531 12.4125 13.5 12 13.5ZM17.7693 13.5C17.3568 13.5 17.0036 13.3531 16.7098 13.0592C16.4161 12.7656 16.2693 12.4125 16.2693 12C16.2693 11.5875 16.4161 11.2344 16.7098 10.9408C17.0036 10.6469 17.3568 10.5 17.7693 10.5C18.1818 10.5 18.5349 10.6469 18.8285 10.9408C19.1224 11.2344 19.2693 11.5875 19.2693 12C19.2693 12.4125 19.1224 12.7656 18.8285 13.0592C18.5349 13.3531 18.1818 13.5 17.7693 13.5Z"
  ></path>
</svg>
