<svg viewBox="0 0 24 24" xmlns="http://www.w3.org/2000/svg">
  <path
    d="M4.75 5.7002C4.75 4.61443 5.6172 3.75 6.66699 3.75C7.71663 3.75018 8.58301 4.61454 8.58301 5.7002C8.5829 6.78576 7.71657 7.65021 6.66699 7.65039C5.61727 7.65039 4.7501 6.78587 4.75 5.7002ZM19.25 18.2998C19.25 19.3856 18.3828 20.25 17.333 20.25C16.2834 20.2498 15.417 19.3855 15.417 18.2998C15.4171 17.2142 16.2834 16.3498 17.333 16.3496C18.3827 16.3496 19.2499 17.2141 19.25 18.2998ZM3.25 5.7002C3.2501 7.59668 4.77133 9.15039 6.66699 9.15039C8.30528 9.15024 9.6634 7.98948 10.002 6.4502H16.8887C17.5117 6.4502 18.1112 6.70056 18.5547 7.14941C18.9984 7.59871 19.2499 8.21025 19.25 8.84961C19.25 9.48911 18.9985 10.1014 18.5547 10.5508C18.1112 10.9996 17.5116 11.25 16.8887 11.25H7.11133C6.08436 11.25 5.10127 11.6632 4.37793 12.3955C3.65488 13.1276 3.25 14.119 3.25 15.1504C3.2501 16.1816 3.65497 17.1723 4.37793 17.9043C5.10128 18.6366 6.08432 19.0498 7.11133 19.0498H13.998C14.3365 20.5893 15.6946 21.7498 17.333 21.75C19.2287 21.75 20.75 20.1964 20.75 18.2998C20.7499 16.4033 19.2287 14.8496 17.333 14.8496C15.6947 14.8498 14.3366 16.0105 13.998 17.5498H7.11133C6.48831 17.5498 5.88881 17.2994 5.44531 16.8506C5.00156 16.4013 4.7501 15.7898 4.75 15.1504C4.75 14.5109 5.00147 13.8986 5.44531 13.4492C5.8888 13.0004 6.48836 12.75 7.11133 12.75H16.8887C17.9156 12.75 18.8987 12.3368 19.6221 11.6045C20.3451 10.8724 20.75 9.88097 20.75 8.84961C20.7499 7.81839 20.345 6.8277 19.6221 6.0957C18.8987 5.36336 17.9157 4.9502 16.8887 4.9502H10.002C9.66354 3.41072 8.30541 2.25015 6.66699 2.25C4.77126 2.25 3.25 3.80362 3.25 5.7002Z"
  ></path>
</svg>
