<svg viewBox="0 0 24 24" xmlns="http://www.w3.org/2000/svg">
  <path
    d="M8.5155 20.5C7.11417 20.5 5.92792 20.0144 4.95675 19.0433C3.98558 18.0721 3.5 16.8847 3.5 15.4812C3.5 14.8952 3.60033 14.3247 3.801 13.7695C4.00167 13.2142 4.28917 12.7109 4.6635 12.2598L8.19425 8.0135L6.6 4.80575C6.44617 4.50458 6.4555 4.21167 6.628 3.927C6.80033 3.64233 7.059 3.5 7.404 3.5H16.596C16.941 3.5 17.1997 3.64233 17.372 3.927C17.5445 4.21167 17.5538 4.50458 17.4 4.80575L15.8057 8.0135L19.3365 12.2598C19.7108 12.7109 19.9983 13.2142 20.199 13.7695C20.3997 14.3247 20.5 14.8952 20.5 15.4812C20.5 16.8847 20.0124 18.0721 19.0372 19.0433C18.0619 20.0144 16.8777 20.5 15.4845 20.5H8.5155ZM11.9983 15.7402C11.5007 15.7402 11.0754 15.5631 10.7223 15.2088C10.3689 14.8544 10.1923 14.4285 10.1923 13.931C10.1923 13.4333 10.3694 13.0079 10.7238 12.6547C11.0781 12.3016 11.5041 12.125 12.0017 12.125C12.4993 12.125 12.9246 12.3022 13.2778 12.6565C13.6311 13.0108 13.8077 13.4368 13.8077 13.9345C13.8077 14.432 13.6306 14.8573 13.2762 15.2105C12.9219 15.5637 12.4959 15.7402 11.9983 15.7402ZM9.56725 7.375H14.4423L15.625 5H8.375L9.56725 7.375ZM8.5155 19H15.4845C16.4668 19 17.2983 18.658 17.979 17.974C18.6597 17.29 19 16.4595 19 15.4825C19 15.071 18.9292 14.6714 18.7875 14.2838C18.6458 13.8959 18.4436 13.5456 18.1807 13.2327L14.5538 8.875H9.47125L5.82875 13.2172C5.56592 13.5301 5.36208 13.8834 5.21725 14.2773C5.07242 14.6709 5 15.0732 5 15.4843C5 16.4601 5.342 17.29 6.026 17.974C6.71 18.658 7.53983 19 8.5155 19Z"
  ></path>
</svg>
