<svg viewBox="0 0 24 24" xmlns="http://www.w3.org/2000/svg">
  <path
    d="M9.7115 10.6923H10.827C11.0775 10.6923 11.2876 10.6075 11.4573 10.438C11.6268 10.2685 11.7115 10.0584 11.7115 9.80775V8.69225C11.7115 8.44158 11.6268 8.2315 11.4573 8.062C11.2876 7.8925 11.0775 7.80775 10.827 7.80775H9.26925C9.15125 7.80775 9.048 7.852 8.9595 7.9405C8.87117 8.02883 8.827 8.132 8.827 8.25V12.25C8.827 12.368 8.87117 12.4712 8.9595 12.5595C9.048 12.648 9.15125 12.6923 9.26925 12.6923C9.38725 12.6923 9.49042 12.648 9.57875 12.5595C9.66725 12.4712 9.7115 12.368 9.7115 12.25V10.6923ZM9.7115 9.80775V8.69225H10.827V9.80775H9.7115ZM14.6923 12.6923C14.9429 12.6923 15.153 12.6075 15.3225 12.438C15.4922 12.2685 15.577 12.0584 15.577 11.8077V8.69225C15.577 8.44158 15.4922 8.2315 15.3225 8.062C15.153 7.8925 14.9429 7.80775 14.6923 7.80775H13.173C13.0552 7.80775 12.952 7.852 12.8635 7.9405C12.775 8.02883 12.7308 8.132 12.7308 8.25V12.25C12.7308 12.368 12.775 12.4712 12.8635 12.5595C12.952 12.648 13.0552 12.6923 13.173 12.6923H14.6923ZM13.6152 11.8077V8.69225H14.6923V11.8077H13.6152ZM17.577 10.6923H18.327C18.4448 10.6923 18.548 10.648 18.6365 10.5595C18.725 10.4712 18.7693 10.368 18.7693 10.25C18.7693 10.132 18.725 10.0288 18.6365 9.9405C18.548 9.852 18.4448 9.80775 18.327 9.80775H17.577V8.69225H18.327C18.4448 8.69225 18.548 8.648 18.6365 8.5595C18.725 8.47117 18.7693 8.368 18.7693 8.25C18.7693 8.132 18.725 8.02883 18.6365 7.9405C18.548 7.852 18.4448 7.80775 18.327 7.80775H17.1345C17.0167 7.80775 16.9135 7.852 16.825 7.9405C16.7365 8.02883 16.6923 8.132 16.6923 8.25V12.25C16.6923 12.368 16.7365 12.4712 16.825 12.5595C16.9135 12.648 17.0167 12.6923 17.1345 12.6923C17.2525 12.6923 17.3558 12.648 17.4443 12.5595C17.5328 12.4712 17.577 12.368 17.577 12.25V10.6923ZM8.05775 17.75C7.55258 17.75 7.125 17.575 6.775 17.225C6.425 16.875 6.25 16.4474 6.25 15.9423V4.55775C6.25 4.05258 6.425 3.625 6.775 3.275C7.125 2.925 7.55258 2.75 8.05775 2.75H19.4423C19.9474 2.75 20.375 2.925 20.725 3.275C21.075 3.625 21.25 4.05258 21.25 4.55775V15.9423C21.25 16.4474 21.075 16.875 20.725 17.225C20.375 17.575 19.9474 17.75 19.4423 17.75H8.05775ZM8.05775 16.25H19.4423C19.5193 16.25 19.5898 16.2179 19.6538 16.1538C19.7179 16.0898 19.75 16.0192 19.75 15.9423V4.55775C19.75 4.48075 19.7179 4.41025 19.6538 4.34625C19.5898 4.28208 19.5193 4.25 19.4423 4.25H8.05775C7.98075 4.25 7.91025 4.28208 7.84625 4.34625C7.78208 4.41025 7.75 4.48075 7.75 4.55775V15.9423C7.75 16.0192 7.78208 16.0898 7.84625 16.1538C7.91025 16.2179 7.98075 16.25 8.05775 16.25ZM4.55775 21.25C4.05258 21.25 3.625 21.075 3.275 20.725C2.925 20.375 2.75 19.9474 2.75 19.4423V7.30775C2.75 7.09525 2.82192 6.91708 2.96575 6.77325C3.10958 6.62958 3.28775 6.55775 3.50025 6.55775C3.71292 6.55775 3.89108 6.62958 4.03475 6.77325C4.17825 6.91708 4.25 7.09525 4.25 7.30775V19.4423C4.25 19.5193 4.28208 19.5898 4.34625 19.6538C4.41025 19.7179 4.48075 19.75 4.55775 19.75H16.6923C16.9047 19.75 17.0829 19.8219 17.2268 19.9657C17.3704 20.1096 17.4423 20.2878 17.4423 20.5002C17.4423 20.7129 17.3704 20.891 17.2268 21.0345C17.0829 21.1782 16.9047 21.25 16.6923 21.25H4.55775Z"
  ></path>
</svg>
