<svg viewBox="0 0 24 24" xmlns="http://www.w3.org/2000/svg">
  <path
    d="M12 14.2635L13.775 15.3462C13.9392 15.4501 14.1048 15.4443 14.272 15.3288C14.4393 15.2134 14.5013 15.057 14.4578 14.8595L13.9865 12.8287L15.5712 11.4595C15.7251 11.3223 15.7703 11.1608 15.7068 10.975C15.6433 10.7892 15.5077 10.6879 15.3 10.6712L13.2288 10.4962L12.4115 8.5905C12.3347 8.40967 12.1975 8.31925 12 8.31925C11.8025 8.31925 11.6653 8.40967 11.5885 8.5905L10.7713 10.4962L8.7 10.6712C8.49233 10.6879 8.35675 10.7892 8.29325 10.975C8.22975 11.1608 8.27492 11.3223 8.42875 11.4595L10.0135 12.8287L9.54225 14.8595C9.49875 15.057 9.56067 15.2134 9.728 15.3288C9.89517 15.4443 10.0608 15.4501 10.225 15.3462L12 14.2635ZM8.8615 19.5H6.30775C5.80908 19.5 5.38308 19.3234 5.02975 18.9703C4.67658 18.6169 4.5 18.1909 4.5 17.6923V15.1385L2.64225 13.2653C2.47175 13.0846 2.34292 12.8847 2.25575 12.6655C2.16858 12.4462 2.125 12.2243 2.125 12C2.125 11.7757 2.16858 11.5538 2.25575 11.3345C2.34292 11.1153 2.47175 10.9154 2.64225 10.7348L4.5 8.8615V6.30775C4.5 5.80908 4.67658 5.38308 5.02975 5.02975C5.38308 4.67658 5.80908 4.5 6.30775 4.5H8.8615L10.7348 2.64225C10.9154 2.47175 11.1153 2.34292 11.3345 2.25575C11.5538 2.16858 11.7757 2.125 12 2.125C12.2243 2.125 12.4462 2.16858 12.6655 2.25575C12.8847 2.34292 13.0846 2.47175 13.2653 2.64225L15.1385 4.5H17.6923C18.1909 4.5 18.6169 4.67658 18.9703 5.02975C19.3234 5.38308 19.5 5.80908 19.5 6.30775V8.8615L21.3577 10.7348C21.5282 10.9154 21.6571 11.1153 21.7443 11.3345C21.8314 11.5538 21.875 11.7757 21.875 12C21.875 12.2243 21.8314 12.4462 21.7443 12.6655C21.6571 12.8847 21.5282 13.0846 21.3577 13.2653L19.5 15.1385V17.6923C19.5 18.1909 19.3234 18.6169 18.9703 18.9703C18.6169 19.3234 18.1909 19.5 17.6923 19.5H15.1385L13.2653 21.3577C13.0846 21.5282 12.8847 21.6571 12.6655 21.7443C12.4462 21.8314 12.2243 21.875 12 21.875C11.7757 21.875 11.5538 21.8314 11.3345 21.7443C11.1153 21.6571 10.9154 21.5282 10.7348 21.3577L8.8615 19.5ZM9.5 18L11.7788 20.2788C11.8364 20.3364 11.9102 20.3652 12 20.3652C12.0898 20.3652 12.1636 20.3364 12.2213 20.2788L14.5 18H17.6923C17.7821 18 17.8558 17.9712 17.9135 17.9135C17.9712 17.8558 18 17.7821 18 17.6923V14.5L20.2788 12.2213C20.3364 12.1636 20.3652 12.0898 20.3652 12C20.3652 11.9102 20.3364 11.8364 20.2788 11.7788L18 9.5V6.30775C18 6.21792 17.9712 6.14417 17.9135 6.0865C17.8558 6.02883 17.7821 6 17.6923 6H14.5L12.2213 3.72125C12.1636 3.66358 12.0898 3.63475 12 3.63475C11.9102 3.63475 11.8364 3.66358 11.7788 3.72125L9.5 6H6.30775C6.21792 6 6.14417 6.02883 6.0865 6.0865C6.02883 6.14417 6 6.21792 6 6.30775V9.5L3.72125 11.7788C3.66358 11.8364 3.63475 11.9102 3.63475 12C3.63475 12.0898 3.66358 12.1636 3.72125 12.2213L6 14.5V17.6923C6 17.7821 6.02883 17.8558 6.0865 17.9135C6.14417 17.9712 6.21792 18 6.30775 18H9.5Z"
  ></path>
</svg>
