<svg viewBox="0 0 24 24" xmlns="http://www.w3.org/2000/svg">
  <path
    d="M12.75 11.25H19.9693C19.7769 9.3205 19.008 7.68142 17.6625 6.33275C16.317 4.98392 14.6795 4.21658 12.75 4.03075V11.25ZM11.25 19.9693V4.03075C9.1885 4.21658 7.46475 5.07008 6.07875 6.59125C4.69292 8.11242 4 9.91533 4 12C4 14.0847 4.69292 15.8876 6.07875 17.4087C7.46475 18.9299 9.1885 19.7834 11.25 19.9693ZM12.75 19.9693C14.6795 19.7936 16.3196 19.0288 17.6702 17.675C19.0209 16.3212 19.7873 14.6795 19.9693 12.75H12.75V19.9693ZM12.0017 21.5C10.6877 21.5 9.45267 21.2507 8.2965 20.752C7.14033 20.2533 6.13467 19.5766 5.2795 18.7218C4.42433 17.8669 3.74725 16.8617 3.24825 15.706C2.74942 14.5503 2.5 13.3156 2.5 12.0017C2.5 10.6877 2.74933 9.45267 3.248 8.2965C3.74667 7.14033 4.42342 6.13467 5.27825 5.2795C6.13308 4.42433 7.13833 3.74725 8.294 3.24825C9.44967 2.74942 10.6844 2.5 11.9983 2.5C13.3123 2.5 14.5446 2.74967 15.6953 3.249C16.8459 3.74833 17.8513 4.42817 18.7115 5.2885C19.5718 6.14867 20.2517 7.15375 20.751 8.30375C21.2503 9.45358 21.5 10.6867 21.5 12.003C21.5 13.3035 21.2507 14.5313 20.752 15.6863C20.2533 16.8411 19.5766 17.8496 18.7218 18.7118C17.8669 19.5739 16.8617 20.2542 15.706 20.7525C14.5503 21.2508 13.3156 21.5 12.0017 21.5Z"
  ></path>
</svg>
