<svg viewBox="0 0 24 24" xmlns="http://www.w3.org/2000/svg">
  <path
    d="M15.5 5.43005V11.6416L17.0652 13.2071C17.1396 13.2814 17.1954 13.3651 17.2327 13.4581C17.2699 13.5509 17.2885 13.6469 17.2885 13.7461V14.1736C17.2885 14.3842 17.2157 14.563 17.07 14.7098C16.9245 14.8566 16.7441 14.9301 16.5287 14.9301H12.75V19.3186C12.75 19.5311 12.6781 19.7091 12.5342 19.8528C12.3904 19.9965 12.2122 20.0683 11.9997 20.0683C11.7871 20.0683 11.609 19.9965 11.4655 19.8528C11.3218 19.7091 11.25 19.5311 11.25 19.3186V14.9301H7.47124C7.2559 14.9301 7.07549 14.8566 6.92999 14.7098C6.78432 14.563 6.71149 14.3842 6.71149 14.1736V13.7461C6.71149 13.6469 6.73007 13.5509 6.76724 13.4581C6.80457 13.3651 6.8604 13.2814 6.93474 13.2071L8.49999 11.6416V5.43005H8.24999C8.03749 5.43005 7.8594 5.35814 7.71574 5.2143C7.5719 5.07047 7.49999 4.8923 7.49999 4.6798C7.49999 4.46714 7.5719 4.28905 7.71574 4.14555C7.8594 4.00189 8.03749 3.93005 8.24999 3.93005H15.75C15.9625 3.93005 16.1406 4.00197 16.2842 4.1458C16.4281 4.28964 16.5 4.4678 16.5 4.6803C16.5 4.89297 16.4281 5.07105 16.2842 5.21455C16.1406 5.35822 15.9625 5.43005 15.75 5.43005H15.5ZM8.84999 13.4301H15.15L14 12.2801V5.43005H9.99999V12.2801L8.84999 13.4301Z"
  ></path>
</svg>
