<svg viewBox="0 0 24 24" xmlns="http://www.w3.org/2000/svg">
  <path
    d="M13.75 15.0192C13.9948 15.0192 14.2086 14.9279 14.3913 14.7452C14.5739 14.5626 14.6652 14.3488 14.6652 14.1038C14.6652 13.8589 14.5739 13.6452 14.3913 13.4625C14.2086 13.2798 13.9948 13.1885 13.75 13.1885C13.5052 13.1885 13.2914 13.2798 13.1087 13.4625C12.9259 13.6452 12.8345 13.8589 12.8345 14.1038C12.8345 14.3488 12.9259 14.5626 13.1087 14.7452C13.2914 14.9279 13.5052 15.0192 13.75 15.0192ZM13.75 12.0115C13.9013 12.0115 14.0385 11.9577 14.1615 11.85C14.2845 11.7423 14.3595 11.6058 14.3865 11.4405C14.4198 11.2083 14.4938 11.0058 14.6085 10.8328C14.7233 10.6596 14.9384 10.4218 15.2538 10.1193C15.7153 9.67692 16.0293 9.30317 16.196 8.998C16.3627 8.693 16.446 8.33858 16.446 7.93475C16.446 7.22308 16.1947 6.63617 15.6923 6.174C15.1898 5.71183 14.5423 5.48075 13.75 5.48075C13.2385 5.48075 12.7706 5.59933 12.3463 5.8365C11.9218 6.07367 11.5826 6.41275 11.3287 6.85375C11.2481 6.98842 11.2397 7.12983 11.3038 7.278C11.3679 7.426 11.4776 7.53208 11.6328 7.59625C11.7776 7.66025 11.9231 7.66692 12.0693 7.61625C12.2154 7.56575 12.334 7.47317 12.425 7.3385C12.5878 7.09617 12.7788 6.91442 12.998 6.79325C13.2173 6.67208 13.468 6.6115 13.75 6.6115C14.1885 6.6115 14.5487 6.73842 14.8307 6.99225C15.1127 7.24608 15.2538 7.58075 15.2538 7.99625C15.2538 8.24875 15.1823 8.48558 15.0395 8.70675C14.8965 8.92792 14.6487 9.2 14.2962 9.523C13.8641 9.89483 13.5782 10.2013 13.4385 10.4423C13.2987 10.6833 13.2121 11.0077 13.1788 11.4155C13.1621 11.5705 13.2102 11.7086 13.323 11.8298C13.4358 11.9509 13.5782 12.0115 13.75 12.0115ZM8.05775 17.75C7.55258 17.75 7.125 17.575 6.775 17.225C6.425 16.875 6.25 16.4474 6.25 15.9423V4.55775C6.25 4.05258 6.425 3.625 6.775 3.275C7.125 2.925 7.55258 2.75 8.05775 2.75H19.4423C19.9474 2.75 20.375 2.925 20.725 3.275C21.075 3.625 21.25 4.05258 21.25 4.55775V15.9423C21.25 16.4474 21.075 16.875 20.725 17.225C20.375 17.575 19.9474 17.75 19.4423 17.75H8.05775ZM8.05775 16.25H19.4423C19.5193 16.25 19.5898 16.2179 19.6538 16.1538C19.7179 16.0898 19.75 16.0192 19.75 15.9423V4.55775C19.75 4.48075 19.7179 4.41025 19.6538 4.34625C19.5898 4.28208 19.5193 4.25 19.4423 4.25H8.05775C7.98075 4.25 7.91025 4.28208 7.84625 4.34625C7.78208 4.41025 7.75 4.48075 7.75 4.55775V15.9423C7.75 16.0192 7.78208 16.0898 7.84625 16.1538C7.91025 16.2179 7.98075 16.25 8.05775 16.25ZM4.55775 21.25C4.05258 21.25 3.625 21.075 3.275 20.725C2.925 20.375 2.75 19.9474 2.75 19.4423V7.30775C2.75 7.09492 2.82183 6.91667 2.9655 6.773C3.109 6.6295 3.28717 6.55775 3.5 6.55775C3.71283 6.55775 3.89108 6.6295 4.03475 6.773C4.17825 6.91667 4.25 7.09492 4.25 7.30775V19.4423C4.25 19.5193 4.28208 19.5898 4.34625 19.6538C4.41025 19.7179 4.48075 19.75 4.55775 19.75H16.6923C16.9051 19.75 17.0833 19.8218 17.227 19.9653C17.3705 20.1089 17.4423 20.2872 17.4423 20.5C17.4423 20.7128 17.3705 20.891 17.227 21.0345C17.0833 21.1782 16.9051 21.25 16.6923 21.25H4.55775Z"
  ></path>
</svg>
