<svg viewBox="0 0 24 24" xmlns="http://www.w3.org/2000/svg">
  <path
    d="M11.25 18.7655V15C11.25 14.7872 11.3219 14.609 11.4655 14.4655C11.609 14.3219 11.7872 14.25 12 14.25C12.2129 14.25 12.391 14.3219 12.5345 14.4655C12.6782 14.609 12.75 14.7872 12.75 15V18.75L14.277 17.2078C14.4257 17.0591 14.6049 16.9831 14.8145 16.9798C15.024 16.9766 15.2064 17.0526 15.3615 17.2078C15.5167 17.3629 15.5943 17.5437 15.5943 17.75C15.5943 17.9564 15.5167 18.1371 15.3615 18.2923L12.6328 21.0213C12.5391 21.1148 12.4404 21.1808 12.3365 21.2193C12.2327 21.2578 12.1205 21.277 12 21.277C11.8795 21.277 11.7674 21.2578 11.6635 21.2193C11.5597 21.1808 11.4609 21.1148 11.3673 21.0213L8.62302 18.277C8.47436 18.1282 8.40102 17.9515 8.40302 17.747C8.40486 17.5427 8.48336 17.3629 8.63852 17.2078C8.79369 17.0526 8.97186 16.975 9.17302 16.975C9.37436 16.975 9.55261 17.0526 9.70777 17.2078L11.25 18.7655ZM5.25002 12.75L6.79227 14.277C6.94094 14.4257 7.01694 14.6049 7.02027 14.8145C7.02344 15.024 6.94744 15.2064 6.79227 15.3615C6.63711 15.5167 6.45636 15.5943 6.25002 15.5943C6.04369 15.5943 5.86294 15.5167 5.70777 15.3615L2.97877 12.6328C2.88527 12.5391 2.81927 12.4404 2.78077 12.3365C2.74227 12.2327 2.72302 12.1205 2.72302 12C2.72302 11.8795 2.74227 11.7674 2.78077 11.6635C2.81927 11.5597 2.88527 11.4609 2.97877 11.3673L5.70777 8.63852C5.85644 8.48986 6.03302 8.41386 6.23752 8.41052C6.44202 8.40736 6.62186 8.48336 6.77702 8.63852C6.93202 8.79369 7.00952 8.97186 7.00952 9.17302C7.00952 9.37436 6.93202 9.55261 6.77702 9.70777L5.23452 11.25H9.00002C9.21286 11.25 9.39102 11.3219 9.53452 11.4655C9.67819 11.609 9.75002 11.7872 9.75002 12C9.75002 12.2129 9.67819 12.391 9.53452 12.5345C9.39102 12.6782 9.21286 12.75 9.00002 12.75H5.25002ZM18.7655 12.75H15C14.7872 12.75 14.609 12.6782 14.4655 12.5345C14.3219 12.391 14.25 12.2129 14.25 12C14.25 11.7872 14.3219 11.609 14.4655 11.4655C14.609 11.3219 14.7872 11.25 15 11.25H18.75L17.2078 9.72302C17.0591 9.57436 16.9831 9.39519 16.9798 9.18552C16.9766 8.97602 17.0526 8.79369 17.2078 8.63852C17.3629 8.48336 17.5437 8.40577 17.75 8.40577C17.9564 8.40577 18.1371 8.48336 18.2923 8.63852L21.0213 11.3673C21.1148 11.4609 21.1808 11.5597 21.2193 11.6635C21.2578 11.7674 21.277 11.8795 21.277 12C21.277 12.1205 21.2578 12.2327 21.2193 12.3365C21.1808 12.4404 21.1148 12.5391 21.0213 12.6328L18.277 15.377C18.1282 15.5257 17.9541 15.599 17.7548 15.597C17.5554 15.5952 17.3782 15.5167 17.223 15.3615C17.068 15.2064 16.9905 15.0282 16.9905 14.827C16.9905 14.6257 17.068 14.4474 17.223 14.2923L18.7655 12.75ZM11.25 5.23452L9.69227 6.79227C9.54361 6.94094 9.36961 7.01694 9.17027 7.02027C8.97094 7.02344 8.79369 6.94744 8.63852 6.79227C8.48336 6.63711 8.40577 6.45894 8.40577 6.25777C8.40577 6.05644 8.48336 5.87819 8.63852 5.72302L11.3673 2.97877C11.4609 2.88527 11.5597 2.81927 11.6635 2.78077C11.7674 2.74227 11.8795 2.72302 12 2.72302C12.1205 2.72302 12.2327 2.74227 12.3365 2.78077C12.4404 2.81927 12.5391 2.88527 12.6328 2.97877L15.377 5.72302C15.5257 5.87186 15.6016 6.04594 15.6048 6.24527C15.6079 6.44461 15.532 6.62186 15.377 6.77702C15.2219 6.93202 15.0436 7.00952 14.8423 7.00952C14.6411 7.00952 14.4629 6.93202 14.3078 6.77702L12.75 5.23452V9.00002C12.75 9.21286 12.6782 9.39102 12.5345 9.53452C12.391 9.67819 12.2129 9.75002 12 9.75002C11.7872 9.75002 11.609 9.67819 11.4655 9.53452C11.3219 9.39102 11.25 9.21286 11.25 9.00002V5.23452Z"
  ></path>
</svg>
