<svg viewBox="0 0 24 24" xmlns="http://www.w3.org/2000/svg">
  <path
    d="M11 11.6921C10.0375 11.6921 9.21358 11.3495 8.52825 10.6641C7.84275 9.97864 7.5 9.15464 7.5 8.19214C7.5 7.22964 7.84275 6.40572 8.52825 5.72039C9.21358 5.03489 10.0375 4.69214 11 4.69214C11.9625 4.69214 12.7864 5.03489 13.4718 5.72039C14.1573 6.40572 14.5 7.22964 14.5 8.19214C14.5 9.15464 14.1573 9.97864 13.4718 10.6641C12.7864 11.3495 11.9625 11.6921 11 11.6921ZM11 10.1921C11.55 10.1921 12.0208 9.99631 12.4125 9.60464C12.8042 9.21297 13 8.74214 13 8.19214C13 7.64214 12.8042 7.17131 12.4125 6.77964C12.0208 6.38797 11.55 6.19214 11 6.19214C10.45 6.19214 9.97917 6.38797 9.5875 6.77964C9.19583 7.17131 9 7.64214 9 8.19214C9 8.74214 9.19583 9.21297 9.5875 9.60464C9.97917 9.99631 10.45 10.1921 11 10.1921ZM21.1308 22.1844L18.727 19.7806C18.3898 19.9935 18.034 20.1601 17.6595 20.2806C17.2852 20.4011 16.8993 20.4614 16.502 20.4614C15.3982 20.4614 14.4616 20.0761 13.6923 19.3054C12.9231 18.5346 12.5385 17.5986 12.5385 16.4976C12.5385 15.3966 12.9238 14.4615 13.6945 13.6921C14.4653 12.923 15.4013 12.5384 16.5023 12.5384C17.6033 12.5384 18.5384 12.9236 19.3077 13.6939C20.0769 14.4642 20.4615 15.3996 20.4615 16.4999C20.4615 16.8986 20.4013 17.2851 20.2808 17.6594C20.1602 18.0339 19.9936 18.3897 19.7808 18.7269L22.1845 21.1306C22.323 21.2691 22.3938 21.4431 22.397 21.6526C22.4002 21.8623 22.3293 22.0396 22.1845 22.1844C22.0397 22.3292 21.8641 22.4016 21.6578 22.4016C21.4513 22.4016 21.2756 22.3292 21.1308 22.1844ZM16.5 18.9614C17.1937 18.9614 17.7773 18.7246 18.251 18.2509C18.7247 17.7772 18.9615 17.1936 18.9615 16.4999C18.9615 15.8062 18.7247 15.2226 18.251 14.7489C17.7773 14.2752 17.1937 14.0384 16.5 14.0384C15.8063 14.0384 15.2227 14.2752 14.749 14.7489C14.2753 15.2226 14.0385 15.8062 14.0385 16.4999C14.0385 17.1936 14.2753 17.7772 14.749 18.2509C15.2227 18.7246 15.8063 18.9614 16.5 18.9614ZM3.5 17.7884V17.0999C3.5 16.6037 3.6305 16.1476 3.8915 15.7316C4.15233 15.3156 4.51033 14.9922 4.9655 14.7614C5.64617 14.4076 6.46058 14.0883 7.40875 13.8036C8.35675 13.5191 9.34167 13.3672 10.3635 13.3479C10.5763 13.3339 10.7571 13.4003 10.9058 13.5471C11.0546 13.6941 11.129 13.8717 11.129 14.0799C11.129 14.2881 11.0546 14.4691 10.9058 14.6229C10.7571 14.7767 10.5763 14.8639 10.3635 14.8844C9.29167 14.9371 8.35708 15.0929 7.55975 15.3519C6.76225 15.6107 6.13208 15.8601 5.66925 16.0999C5.45775 16.2024 5.29333 16.343 5.176 16.5216C5.05867 16.7003 5 16.8931 5 17.0999V17.8076H10.2348C10.4473 17.8076 10.6253 17.8796 10.769 18.0234C10.9128 18.1671 10.9848 18.3452 10.9848 18.5579C10.9848 18.7706 10.9128 18.9486 10.769 19.0921C10.6253 19.2358 10.4473 19.3076 10.2348 19.3076H5.01925C4.59742 19.3076 4.23875 19.1599 3.94325 18.8644C3.64775 18.5687 3.5 18.2101 3.5 17.7884Z"
  ></path>
</svg>
