<svg viewBox="0 0 24 24" xmlns="http://www.w3.org/2000/svg">
  <path
    d="M16.6422 9.83656H9.62122C8.57756 9.83656 7.67947 10.1795 6.92697 10.8653C6.17431 11.5513 5.79797 12.4007 5.79797 13.4136C5.79797 14.4264 6.17431 15.2773 6.92697 15.9663C7.67947 16.6555 8.57756 17.0001 9.62122 17.0001H16.048C16.2608 17.0001 16.4391 17.0719 16.5827 17.2156C16.7262 17.3591 16.798 17.5372 16.798 17.7501C16.798 17.9629 16.7262 18.1411 16.5827 18.2846C16.4391 18.4282 16.2608 18.5001 16.048 18.5001H9.62122C8.15839 18.5001 6.90547 18.0103 5.86247 17.0308C4.81947 16.0513 4.29797 14.8456 4.29797 13.4136C4.29797 11.9816 4.81947 10.7774 5.86247 9.80106C6.90547 8.82473 8.15839 8.33656 9.62122 8.33656H16.6422L14.3865 6.08081C14.248 5.94231 14.1771 5.76831 14.174 5.55881C14.1708 5.34915 14.2416 5.1719 14.3865 5.02706C14.5313 4.88223 14.707 4.80981 14.9135 4.80981C15.1198 4.80981 15.2954 4.88223 15.4402 5.02706L18.8672 8.45381C18.9609 8.54748 19.0269 8.64623 19.0652 8.75006C19.1037 8.8539 19.123 8.96606 19.123 9.08656C19.123 9.20706 19.1037 9.31923 19.0652 9.42306C19.0269 9.5269 18.9609 9.62565 18.8672 9.71931L15.4402 13.1463C15.3019 13.2846 15.1279 13.3555 14.9182 13.3588C14.7086 13.362 14.5313 13.2911 14.3865 13.1463C14.2416 13.0013 14.1692 12.8256 14.1692 12.6193C14.1692 12.413 14.2416 12.2373 14.3865 12.0923L16.6422 9.83656Z"
  ></path>
</svg>
