<svg viewBox="0 0 24 24" xmlns="http://www.w3.org/2000/svg">
  <path
    d="M12.0017 21.5C10.6877 21.5 9.45267 21.2507 8.2965 20.752C7.14033 20.2533 6.13467 19.5766 5.2795 18.7218C4.42433 17.8669 3.74725 16.8617 3.24825 15.706C2.74942 14.5503 2.5 13.3156 2.5 12.0017C2.5 10.6877 2.74933 9.45267 3.248 8.2965C3.74667 7.14033 4.42342 6.13467 5.27825 5.2795C6.13308 4.42433 7.13833 3.74725 8.294 3.24825C9.44967 2.74942 10.6844 2.5 11.9983 2.5C13.3123 2.5 14.5473 2.74933 15.7035 3.248C16.8597 3.74667 17.8653 4.42342 18.7205 5.27825C19.5757 6.13308 20.2528 7.13833 20.7518 8.294C21.2506 9.44967 21.5 10.6844 21.5 11.9983C21.5 13.3123 21.2507 14.5473 20.752 15.7035C20.2533 16.8597 19.5766 17.8653 18.7218 18.7205C17.8669 19.5757 16.8617 20.2528 15.706 20.7518C14.5503 21.2506 13.3156 21.5 12.0017 21.5ZM12 20C14.2333 20 16.125 19.225 17.675 17.675C19.225 16.125 20 14.2333 20 12C20 9.76667 19.225 7.875 17.675 6.325C16.125 4.775 14.2333 4 12 4C9.76667 4 7.875 4.775 6.325 6.325C4.775 7.875 4 9.76667 4 12C4 14.2333 4.775 16.125 6.325 17.675C7.875 19.225 9.76667 20 12 20ZM11.975 18.8078C12.157 18.8078 12.3162 18.7394 12.4528 18.6028C12.5894 18.4663 12.6578 18.307 12.6578 18.125V17.5962C13.4334 17.4911 14.1357 17.1997 14.7645 16.722C15.3933 16.2445 15.7078 15.5205 15.7078 14.55C15.7078 13.85 15.5013 13.2308 15.0885 12.6923C14.6757 12.1539 13.8692 11.6681 12.6692 11.2348C11.6179 10.8758 10.9198 10.5648 10.575 10.302C10.2302 10.0392 10.0578 9.67183 10.0578 9.2C10.0578 8.72817 10.2343 8.34483 10.5875 8.05C10.9407 7.75517 11.4282 7.60775 12.05 7.60775C12.4218 7.60775 12.7472 7.67725 13.026 7.81625C13.3048 7.95542 13.5404 8.141 13.7327 8.373C13.8546 8.52183 13.9956 8.62567 14.1557 8.6845C14.3161 8.7435 14.4678 8.741 14.611 8.677C14.8065 8.6 14.9401 8.46858 15.0117 8.28275C15.0834 8.09675 15.0654 7.92625 14.9578 7.77125C14.6911 7.39425 14.3603 7.08042 13.9653 6.82975C13.5704 6.57908 13.1512 6.43708 12.7078 6.40375V5.875C12.7078 5.693 12.6394 5.53375 12.5027 5.39725C12.3662 5.26058 12.207 5.19225 12.025 5.19225C11.843 5.19225 11.6838 5.26058 11.5473 5.39725C11.4106 5.53375 11.3422 5.693 11.3422 5.875V6.40375C10.4897 6.56792 9.835 6.91375 9.378 7.44125C8.92083 7.96892 8.69225 8.55517 8.69225 9.2C8.69225 9.95133 8.91983 10.5558 9.375 11.0135C9.83017 11.4712 10.5718 11.8846 11.6 12.2537C12.6628 12.6436 13.3888 12.9933 13.778 13.303C14.167 13.6125 14.3615 14.0282 14.3615 14.55C14.3615 15.177 14.1353 15.6324 13.6827 15.9163C13.2301 16.2003 12.7192 16.3422 12.15 16.3422C11.675 16.3422 11.2457 16.2237 10.862 15.9865C10.4783 15.7493 10.157 15.4064 9.898 14.9578C9.79683 14.7821 9.66033 14.6638 9.4885 14.603C9.31667 14.542 9.1485 14.5439 8.984 14.6088C8.80667 14.6736 8.67683 14.7967 8.5945 14.978C8.51233 15.1593 8.51158 15.3327 8.59225 15.498C8.87175 16.0583 9.2365 16.5064 9.6865 16.8422C10.1365 17.1783 10.6718 17.4129 11.2923 17.5462V18.125C11.2923 18.307 11.3606 18.4663 11.4973 18.6028C11.6338 18.7394 11.793 18.8078 11.975 18.8078Z"
  ></path>
</svg>
