<svg viewBox="0 0 24 24" xmlns="http://www.w3.org/2000/svg">
  <path
    d="M12 21.5C10.8205 21.5 9.71542 21.277 8.68475 20.8308C7.65392 20.3846 6.75517 19.7782 5.9885 19.0115C5.22183 18.2449 4.61542 17.3461 4.16925 16.3153C3.72308 15.2846 3.5 14.1795 3.5 13C3.5 12.7872 3.57183 12.609 3.7155 12.4655C3.859 12.3219 4.03717 12.25 4.25 12.25C4.46283 12.25 4.641 12.3219 4.7845 12.4655C4.92817 12.609 5 12.7872 5 13C5 14.95 5.67917 16.6042 7.0375 17.9625C8.39583 19.3209 10.05 20 12 20C13.95 20 15.6042 19.3209 16.9625 17.9625C18.3208 16.6042 19 14.95 19 13C19 11.05 18.3208 9.39588 16.9625 8.03754C15.6042 6.67921 13.95 6.00004 12 6.00004H11.7345L12.7963 7.06154C12.9449 7.21038 13.0183 7.38446 13.0163 7.58379C13.0144 7.78313 12.9411 7.96029 12.7963 8.11529C12.6411 8.27046 12.4628 8.35063 12.2615 8.35579C12.0603 8.36096 11.8822 8.28596 11.727 8.13079L9.479 5.87304C9.29817 5.69238 9.20775 5.48154 9.20775 5.24054C9.20775 4.99938 9.29817 4.78846 9.479 4.60779L11.7463 2.35004C11.8949 2.20138 12.0715 2.12796 12.276 2.12979C12.4805 2.13179 12.6603 2.21038 12.8155 2.36554C12.9603 2.52054 13.0353 2.69613 13.0405 2.89229C13.0455 3.08846 12.9705 3.26413 12.8155 3.41929L11.7345 4.50004H12C13.1795 4.50004 14.2846 4.72313 15.3152 5.16929C16.3461 5.61546 17.2448 6.22188 18.0115 6.98854C18.7782 7.75521 19.3846 8.65396 19.8307 9.68479C20.2769 10.7155 20.5 11.8205 20.5 13C20.5 14.1795 20.2769 15.2846 19.8307 16.3153C19.3846 17.3461 18.7782 18.2449 18.0115 19.0115C17.2448 19.7782 16.3461 20.3846 15.3152 20.8308C14.2846 21.277 13.1795 21.5 12 21.5Z"
  ></path>
</svg>
