<svg viewBox="0 0 24 24" xmlns="http://www.w3.org/2000/svg">
  <path
    d="M11.9807 20.5C9.97055 20.5 8.1988 19.8865 6.66547 18.6595C5.13213 17.4327 4.14938 15.8628 3.71722 13.95C3.66338 13.7513 3.6958 13.5687 3.81447 13.402C3.93297 13.2353 4.10088 13.1385 4.31822 13.1115C4.52272 13.0847 4.70605 13.1251 4.86822 13.2327C5.03038 13.3404 5.14355 13.4988 5.20772 13.7078C5.58838 15.2526 6.40855 16.5208 7.66822 17.5125C8.92788 18.5042 10.3654 19 11.9807 19C13.9307 19 15.5849 18.3208 16.9432 16.9625C18.3015 15.6042 18.9807 13.95 18.9807 12C18.9807 10.05 18.3015 8.39583 16.9432 7.0375C15.5849 5.67917 13.9307 5 11.9807 5C10.8884 5 9.86472 5.24267 8.90972 5.728C7.95455 6.21317 7.13205 6.88075 6.44222 7.73075H8.30772C8.52022 7.73075 8.6983 7.80267 8.84197 7.9465C8.9858 8.09033 9.05772 8.2685 9.05772 8.481C9.05772 8.69367 8.9858 8.87175 8.84197 9.01525C8.6983 9.15892 8.52022 9.23075 8.30772 9.23075H4.88472C4.62855 9.23075 4.41388 9.14408 4.24072 8.97075C4.06738 8.79758 3.98072 8.58292 3.98072 8.32675V4.90375C3.98072 4.69125 4.05263 4.51317 4.19647 4.3695C4.3403 4.22567 4.51855 4.15375 4.73122 4.15375C4.94372 4.15375 5.1218 4.22567 5.26547 4.3695C5.40897 4.51317 5.48072 4.69125 5.48072 4.90375V6.523C6.29222 5.56533 7.26405 4.82208 8.39622 4.29325C9.52822 3.76442 10.7231 3.5 11.9807 3.5C13.1607 3.5 14.266 3.72308 15.2965 4.16925C16.327 4.61542 17.2256 5.22183 17.9922 5.9885C18.7589 6.75517 19.3653 7.65367 19.8115 8.684C20.2576 9.7145 20.4807 10.8197 20.4807 11.9995C20.4807 13.1793 20.2576 14.2846 19.8115 15.3152C19.3653 16.3461 18.7589 17.2448 17.9922 18.0115C17.2256 18.7782 16.327 19.3846 15.2965 19.8307C14.266 20.2769 13.1607 20.5 11.9807 20.5ZM12.7595 11.6962L15.5095 14.4462C15.648 14.5846 15.7188 14.7586 15.722 14.9683C15.7253 15.1779 15.6545 15.3552 15.5095 15.5C15.3646 15.6448 15.189 15.7172 14.9827 15.7172C14.7762 15.7172 14.6005 15.6448 14.4557 15.5L11.5307 12.575C11.4372 12.4813 11.3686 12.3793 11.325 12.269C11.2815 12.1587 11.2597 12.0447 11.2597 11.927V7.75C11.2597 7.5375 11.3316 7.35933 11.4752 7.2155C11.6191 7.07183 11.7973 7 12.01 7C12.2225 7 12.4005 7.07183 12.5442 7.2155C12.6877 7.35933 12.7595 7.5375 12.7595 7.75V11.6962Z"
  ></path>
</svg>
