<svg viewBox="0 0 24 24" xmlns="http://www.w3.org/2000/svg">
  <path
    d="M5 8.86294H19V6.36294C19 6.28594 18.9679 6.21544 18.9038 6.15144C18.8398 6.08727 18.7693 6.05519 18.6923 6.05519H5.30775C5.23075 6.05519 5.16025 6.08727 5.09625 6.15144C5.03208 6.21544 5 6.28594 5 6.36294V8.86294ZM5.30775 21.5552C4.80258 21.5552 4.375 21.3802 4.025 21.0302C3.675 20.6802 3.5 20.2526 3.5 19.7474V6.36294C3.5 5.85777 3.675 5.43019 4.025 5.08019C4.375 4.73019 4.80258 4.55519 5.30775 4.55519H6.69225V3.20894C6.69225 2.98977 6.76567 2.80677 6.9125 2.65994C7.05933 2.51327 7.24233 2.43994 7.4615 2.43994C7.68083 2.43994 7.86383 2.51327 8.0105 2.65994C8.15733 2.80677 8.23075 2.98977 8.23075 3.20894V4.55519H15.8078V3.18994C15.8078 2.97711 15.8795 2.79886 16.023 2.65519C16.1667 2.51169 16.3449 2.43994 16.5578 2.43994C16.7706 2.43994 16.9488 2.51169 17.0923 2.65519C17.2359 2.79886 17.3078 2.97711 17.3078 3.18994V4.55519H18.6923C19.1974 4.55519 19.625 4.73019 19.975 5.08019C20.325 5.43019 20.5 5.85777 20.5 6.36294V11.0764C20.5 11.2893 20.4282 11.4674 20.2845 11.6109C20.141 11.7546 19.9628 11.8264 19.75 11.8264C19.5372 11.8264 19.359 11.7546 19.2155 11.6109C19.0718 11.4674 19 11.2893 19 11.0764V10.3629H5V19.7474C5 19.8244 5.03208 19.8949 5.09625 19.9589C5.16025 20.0231 5.23075 20.0552 5.30775 20.0552H11.425C11.6378 20.0552 11.8161 20.127 11.9598 20.2707C12.1033 20.4142 12.175 20.5924 12.175 20.8052C12.175 21.018 12.1033 21.1962 11.9598 21.3397C11.8161 21.4834 11.6378 21.5552 11.425 21.5552H5.30775ZM18.1923 22.5552C16.9436 22.5552 15.8814 22.1174 15.0058 21.2417C14.1301 20.366 13.6923 19.3039 13.6923 18.0552C13.6923 16.8065 14.1301 15.7444 15.0058 14.8687C15.8814 13.993 16.9436 13.5552 18.1923 13.5552C19.4411 13.5552 20.5033 13.993 21.3788 14.8687C22.2544 15.7444 22.6923 16.8065 22.6923 18.0552C22.6923 19.3039 22.2544 20.366 21.3788 21.2417C20.5033 22.1174 19.4411 22.5552 18.1923 22.5552ZM18.6348 17.8744V15.5552C18.6348 15.4347 18.5911 15.3309 18.5038 15.2437C18.4166 15.1565 18.3128 15.1129 18.1923 15.1129C18.0718 15.1129 17.9679 15.1565 17.8808 15.2437C17.7936 15.3309 17.75 15.4347 17.75 15.5552V17.8589C17.75 17.9794 17.7718 18.0942 17.8155 18.2032C17.859 18.3122 17.9276 18.4135 18.0213 18.5072L19.5463 20.0322C19.6334 20.1194 19.7357 20.1645 19.853 20.1677C19.9702 20.1709 20.0756 20.1257 20.1693 20.0322C20.2629 19.9385 20.3098 19.8347 20.3098 19.7207C20.3098 19.6065 20.2629 19.5026 20.1693 19.4089L18.6348 17.8744Z"
  ></path>
</svg>
