<svg viewBox="0 0 24 24" xmlns="http://www.w3.org/2000/svg">
  <path
    d="M5.30775 20.5C4.80258 20.5 4.375 20.325 4.025 19.975C3.675 19.625 3.5 19.1974 3.5 18.6923V5.30775C3.5 4.80258 3.675 4.375 4.025 4.025C4.375 3.675 4.80258 3.5 5.30775 3.5H16.0402C16.2814 3.5 16.5132 3.54683 16.7355 3.6405C16.958 3.734 17.1512 3.86283 17.3152 4.027L19.973 6.68475C20.1372 6.84875 20.266 7.042 20.3595 7.2645C20.4532 7.48683 20.5 7.71858 20.5 7.95975V18.6923C20.5 19.1974 20.325 19.625 19.975 19.975C19.625 20.325 19.1974 20.5 18.6923 20.5H5.30775ZM19 7.85L16.15 5H5.30775C5.21792 5 5.14417 5.02883 5.0865 5.0865C5.02883 5.14417 5 5.21792 5 5.30775V18.6923C5 18.7821 5.02883 18.8558 5.0865 18.9135C5.14417 18.9712 5.21792 19 5.30775 19H18.6923C18.7821 19 18.8558 18.9712 18.9135 18.9135C18.9712 18.8558 19 18.7821 19 18.6923V7.85ZM12 17.2693C12.6923 17.2693 13.2821 17.0257 13.7693 16.5385C14.2564 16.0513 14.5 15.4616 14.5 14.7692C14.5 14.0769 14.2564 13.4872 13.7693 13C13.2821 12.5128 12.6923 12.2692 12 12.2692C11.3077 12.2692 10.7179 12.5128 10.2308 13C9.74358 13.4872 9.5 14.0769 9.5 14.7692C9.5 15.4616 9.74358 16.0513 10.2308 16.5385C10.7179 17.0257 11.3077 17.2693 12 17.2693ZM7.2885 9.8845H13.6923C13.9499 9.8845 14.165 9.79833 14.3375 9.626C14.5098 9.4535 14.596 9.23842 14.596 8.98075V7.2885C14.596 7.03083 14.5098 6.81575 14.3375 6.64325C14.165 6.47092 13.9499 6.38475 13.6923 6.38475H7.2885C7.03083 6.38475 6.81575 6.47092 6.64325 6.64325C6.47092 6.81575 6.38475 7.03083 6.38475 7.2885V8.98075C6.38475 9.23842 6.47092 9.4535 6.64325 9.626C6.81575 9.79833 7.03083 9.8845 7.2885 9.8845Z"
  ></path>
</svg>
