<svg viewBox="0 0 24 24" xmlns="http://www.w3.org/2000/svg">
  <path
    d="M9.67531 15.7906C7.96764 15.7906 6.52147 15.1983 5.33681 14.0138C4.15231 12.8291 3.56006 11.383 3.56006 9.67531C3.56006 7.96764 4.15231 6.52148 5.33681 5.33681C6.52147 4.15231 7.96764 3.56006 9.67531 3.56006C11.383 3.56006 12.8291 4.15231 14.0138 5.33681C15.1983 6.52148 15.7906 7.96764 15.7906 9.67531C15.7906 10.3895 15.6707 11.0716 15.4311 11.7216C15.1912 12.3716 14.8713 12.9369 14.4713 13.4176L20.2253 19.1716C20.3638 19.3099 20.4346 19.4839 20.4378 19.6936C20.441 19.9032 20.3701 20.0805 20.2253 20.2253C20.0805 20.3701 19.9048 20.4426 19.6983 20.4426C19.492 20.4426 19.3164 20.3701 19.1716 20.2253L13.4176 14.4713C12.9176 14.8841 12.3426 15.2072 11.6926 15.4406C11.0426 15.6739 10.3701 15.7906 9.67531 15.7906ZM9.67531 14.2908C10.9638 14.2908 12.0551 13.8436 12.9493 12.9493C13.8436 12.0551 14.2908 10.9638 14.2908 9.67531C14.2908 8.38681 13.8436 7.29547 12.9493 6.40131C12.0551 5.50697 10.9638 5.05981 9.67531 5.05981C8.38681 5.05981 7.29548 5.50697 6.40131 6.40131C5.50697 7.29547 5.05981 8.38681 5.05981 9.67531C5.05981 10.9638 5.50697 12.0551 6.40131 12.9493C7.29548 13.8436 8.38681 14.2908 9.67531 14.2908Z"
  ></path>
</svg>
