<svg viewBox="0 0 24 24" xmlns="http://www.w3.org/2000/svg">
  <path
    d="M4.47968 11.1094V6.59619C4.47968 6.21635 4.58893 5.87444 4.80743 5.57044C5.02576 5.26661 5.30818 5.04636 5.65468 4.90969L11.3469 2.78469C11.5611 2.70769 11.772 2.66919 11.9797 2.66919C12.1873 2.66919 12.3983 2.70769 12.6124 2.78469L18.3047 4.90969C18.6512 5.04636 18.9336 5.26661 19.1519 5.57044C19.3704 5.87444 19.4797 6.21635 19.4797 6.59619V11.0999C19.4797 11.3499 19.4015 11.5374 19.2452 11.6624C19.0888 11.7874 18.9169 11.8499 18.7294 11.8499C18.5168 11.8499 18.3387 11.7812 18.1952 11.6437C18.0515 11.5062 17.9797 11.3249 17.9797 11.0999V6.58644C17.9797 6.52244 17.962 6.46477 17.9267 6.41344C17.8915 6.36211 17.8418 6.32361 17.7777 6.29794L12.0854 4.17294C12.0534 4.16011 12.0182 4.15369 11.9797 4.15369C11.9412 4.15369 11.9059 4.16011 11.8739 4.17294L6.18168 6.29794C6.11751 6.32361 6.06784 6.36211 6.03268 6.41344C5.99734 6.46477 5.97968 6.52244 5.97968 6.58644V11.0999C5.97968 13.1166 6.54634 14.9499 7.67968 16.5999C8.81301 18.2499 10.2463 19.3499 11.9797 19.8999C12.1385 19.8448 12.3045 19.7793 12.4777 19.7034C12.651 19.6278 12.8171 19.5554 12.9759 19.4864C13.1618 19.4019 13.3538 19.3969 13.5522 19.4712C13.7503 19.5455 13.8928 19.6756 13.9797 19.8614C14.0643 20.0473 14.0694 20.2394 13.9949 20.4377C13.9206 20.636 13.7905 20.7785 13.6047 20.8652C13.4598 20.9294 13.3033 20.9974 13.1352 21.0692C12.9672 21.141 12.8147 21.2096 12.6777 21.2749C12.5842 21.3083 12.4848 21.3359 12.3797 21.3577C12.2745 21.3794 12.17 21.3902 12.0662 21.3902C11.9623 21.3902 11.8604 21.3794 11.7604 21.3577C11.6604 21.3359 11.5636 21.3083 11.4699 21.2749C9.36109 20.5249 7.68068 19.1961 6.42868 17.2884C5.17684 15.3808 4.52718 13.3211 4.47968 11.1094ZM16.5892 21.4999C16.3558 21.4999 16.1527 21.4134 15.9797 21.2402C15.8065 21.0672 15.7199 20.864 15.7199 20.6307V17.5807C15.7199 17.3474 15.8065 17.1474 15.9797 16.9807C16.1527 16.814 16.3558 16.7307 16.5892 16.7307H16.7199V15.7307C16.7199 15.2064 16.903 14.7612 17.2692 14.3952C17.6352 14.0292 18.0803 13.8462 18.6047 13.8462C19.129 13.8462 19.5742 14.0292 19.9402 14.3952C20.3062 14.7612 20.4892 15.2064 20.4892 15.7307V16.7307H20.6199C20.8559 16.7307 21.0583 16.814 21.2269 16.9807C21.3954 17.1474 21.4797 17.3474 21.4797 17.5807V20.6307C21.4797 20.864 21.3954 21.0672 21.2269 21.2402C21.0583 21.4134 20.8559 21.4999 20.6199 21.4999H16.5892ZM17.6047 16.7307H19.6047V15.7307C19.6047 15.4474 19.5088 15.2099 19.3172 15.0182C19.1255 14.8265 18.888 14.7307 18.6047 14.7307C18.3213 14.7307 18.0838 14.8265 17.8922 15.0182C17.7005 15.2099 17.6047 15.4474 17.6047 15.7307V16.7307Z"
  ></path>
</svg>
