<svg viewBox="0 0 24 24" xmlns="http://www.w3.org/2000/svg">
  <path
    d="M22.25 10V14C22.25 14.7293 21.9601 15.4286 21.4443 15.9443C20.9286 16.4601 20.2293 16.75 19.5 16.75H18.5C18.0858 16.75 17.75 16.4142 17.75 16C17.75 15.5858 18.0858 15.25 18.5 15.25H19.5C19.8315 15.25 20.1494 15.1182 20.3838 14.8838C20.6182 14.6494 20.75 14.3315 20.75 14V10C20.75 9.66848 20.6182 9.35063 20.3838 9.11621C20.1494 8.88179 19.8315 8.75 19.5 8.75L4.5 8.75C4.16848 8.75 3.85063 8.88179 3.61621 9.11621C3.38179 9.35063 3.25 9.66848 3.25 10L3.25 14C3.25 14.3315 3.38179 14.6494 3.61621 14.8838C3.82122 15.0888 4.08999 15.2156 4.37598 15.2441L4.5 15.25H9C9.41421 15.25 9.75 15.5858 9.75 16C9.75 16.4142 9.41421 16.75 9 16.75H4.5C3.77065 16.75 3.07139 16.4601 2.55566 15.9443C2.03994 15.4286 1.75 14.7293 1.75 14L1.75 10C1.75 9.27065 2.03994 8.57139 2.55566 8.05566C3.07139 7.53994 3.77065 7.25 4.5 7.25L19.5 7.25C20.2293 7.25 20.9286 7.53994 21.4443 8.05567C21.9601 8.57139 22.25 9.27066 22.25 10Z"
  ></path>
  <path
    d="M13.8 17.75C13.6011 17.75 13.4104 17.6709 13.2697 17.5303L11.2697 15.5303C10.9768 15.2374 10.9768 14.7626 11.2697 14.4697C11.5626 14.1768 12.0374 14.1768 12.3303 14.4697L13.8 15.9395L15.2697 14.4697C15.5626 14.1768 16.0374 14.1768 16.3303 14.4697C16.6232 14.7626 16.6232 15.2374 16.3303 15.5303L14.3303 17.5303L14.216 17.624C14.0937 17.7056 13.9492 17.75 13.8 17.75Z"
  ></path>
</svg>
