<svg viewBox="0 0 24 24" xmlns="http://www.w3.org/2000/svg">
  <path
    d="M15.8442 11.848L12.1712 8.17496C12.0776 8.08146 12.0115 7.9823 11.973 7.87746C11.9347 7.7728 11.9155 7.66063 11.9155 7.54096C11.9155 7.4213 11.9347 7.30955 11.973 7.20571C12.0115 7.10188 12.0776 7.00321 12.1712 6.90971L15.8442 3.23646C15.9377 3.14296 16.0369 3.07696 16.1417 3.03846C16.2464 2.99996 16.3586 2.98071 16.4782 2.98071C16.5979 2.98071 16.7097 2.99996 16.8135 3.03846C16.9173 3.07696 17.016 3.14296 17.1095 3.23646L20.7827 6.90971C20.8762 7.00321 20.9422 7.1023 20.9807 7.20696C21.0192 7.31163 21.0385 7.4238 21.0385 7.54346C21.0385 7.66313 21.0192 7.77488 20.9807 7.87871C20.9422 7.98271 20.8762 8.08146 20.7827 8.17496L17.1095 11.848C17.016 11.9416 16.9169 12.0076 16.8122 12.046C16.7074 12.0845 16.5952 12.1037 16.4757 12.1037C16.3561 12.1037 16.2442 12.0845 16.1402 12.046C16.0364 12.0076 15.9377 11.9416 15.8442 11.848ZM3.80774 9.90371V4.71146C3.80774 4.45546 3.89432 4.2408 4.06749 4.06746C4.24082 3.8943 4.45549 3.80771 4.71149 3.80771H9.90374C10.1599 3.80771 10.3746 3.8943 10.5477 4.06746C10.7211 4.2408 10.8077 4.45546 10.8077 4.71146V9.90371C10.8077 10.1599 10.7211 10.3745 10.5477 10.5477C10.3746 10.721 10.1599 10.8077 9.90374 10.8077H4.71149C4.45549 10.8077 4.24082 10.721 4.06749 10.5477C3.89432 10.3745 3.80774 10.1599 3.80774 9.90371ZM13.1922 19.2885V14.0962C13.1922 13.84 13.2789 13.6254 13.4522 13.4522C13.6254 13.2789 13.8401 13.1922 14.0962 13.1922H19.2885C19.5445 13.1922 19.7592 13.2789 19.9325 13.4522C20.1057 13.6254 20.1922 13.84 20.1922 14.0962V19.2885C20.1922 19.5445 20.1057 19.7591 19.9325 19.9325C19.7592 20.1056 19.5445 20.1922 19.2885 20.1922H14.0962C13.8401 20.1922 13.6254 20.1056 13.4522 19.9325C13.2789 19.7591 13.1922 19.5445 13.1922 19.2885ZM3.80774 19.2885V14.0962C3.80774 13.84 3.89432 13.6254 4.06749 13.4522C4.24082 13.2789 4.45549 13.1922 4.71149 13.1922H9.90374C10.1599 13.1922 10.3746 13.2789 10.5477 13.4522C10.7211 13.6254 10.8077 13.84 10.8077 14.0962V19.2885C10.8077 19.5445 10.7211 19.7591 10.5477 19.9325C10.3746 20.1056 10.1599 20.1922 9.90374 20.1922H4.71149C4.45549 20.1922 4.24082 20.1056 4.06749 19.9325C3.89432 19.7591 3.80774 19.5445 3.80774 19.2885ZM5.30774 9.30771H9.30774V5.30771H5.30774V9.30771ZM16.502 10.3922L19.327 7.56721L16.502 4.74221L13.677 7.56721L16.502 10.3922ZM14.6922 18.6922H18.6922V14.6922H14.6922V18.6922ZM5.30774 18.6922H9.30774V14.6922H5.30774V18.6922Z"
  ></path>
</svg>
