<svg viewBox="0 0 24 24" xmlns="http://www.w3.org/2000/svg">
  <path
    d="M5.37295 15.5866L7.6807 17.8943C7.8192 18.0328 7.89004 18.2043 7.8932 18.4088C7.89637 18.6131 7.82554 18.7929 7.6807 18.9481C7.52554 19.1032 7.34737 19.1808 7.1462 19.1808C6.94487 19.1808 6.76662 19.1032 6.61145 18.9481L3.1327 15.4693C3.03904 15.3756 2.97304 15.2769 2.9347 15.1731C2.8962 15.0692 2.87695 14.9571 2.87695 14.8366C2.87695 14.7161 2.8962 14.6039 2.9347 14.5001C2.97304 14.3962 3.03904 14.2975 3.1327 14.2038L6.62695 10.7096C6.77562 10.5609 6.94962 10.4876 7.14895 10.4896C7.34829 10.4914 7.52554 10.5699 7.6807 10.7251C7.82554 10.8802 7.90054 11.0559 7.9057 11.2521C7.91087 11.4482 7.83587 11.6238 7.6807 11.7788L5.37295 14.0866H11.9037C12.1165 14.0866 12.2948 14.1584 12.4385 14.3021C12.582 14.4456 12.6537 14.6237 12.6537 14.8366C12.6537 15.0494 12.582 15.2276 12.4385 15.3713C12.2948 15.5148 12.1165 15.5866 11.9037 15.5866H5.37295ZM18.627 9.90381H12.0962C11.8834 9.90381 11.7051 9.83206 11.5615 9.68856C11.418 9.5449 11.3462 9.36665 11.3462 9.15381C11.3462 8.94115 11.418 8.76298 11.5615 8.61931C11.7051 8.47581 11.8834 8.40406 12.0962 8.40406H18.627L16.3192 6.09631C16.1807 5.95781 16.1099 5.78631 16.1067 5.58181C16.1035 5.37731 16.1744 5.19748 16.3192 5.04231C16.4744 4.88731 16.6525 4.80981 16.8537 4.80981C17.055 4.80981 17.2333 4.88731 17.3885 5.04231L20.8672 8.52131C20.9609 8.61481 21.0269 8.71348 21.0652 8.81731C21.1037 8.92115 21.123 9.03331 21.123 9.15381C21.123 9.27448 21.1037 9.38673 21.0652 9.49056C21.0269 9.5944 20.9609 9.69306 20.8672 9.78656L17.373 13.2808C17.2243 13.4295 17.0503 13.5029 16.851 13.5011C16.6516 13.4991 16.4744 13.4206 16.3192 13.2656C16.1744 13.1104 16.0994 12.9347 16.0942 12.7386C16.089 12.5424 16.164 12.3667 16.3192 12.2116L18.627 9.90381Z"
  ></path>
</svg>
