<svg viewBox="0 0 24 24" xmlns="http://www.w3.org/2000/svg">
  <path
    d="M12 18.4418L14.5462 15.8955C14.6949 15.7469 14.8741 15.6709 15.0837 15.6675C15.2932 15.6644 15.4756 15.7404 15.6307 15.8955C15.7859 16.0507 15.8635 16.2314 15.8635 16.4378C15.8635 16.6443 15.7859 16.825 15.6307 16.98L12.6327 19.9783C12.5391 20.0718 12.4403 20.1378 12.3365 20.1763C12.2326 20.2148 12.1205 20.234 12 20.234C11.8795 20.234 11.7673 20.2148 11.6635 20.1763C11.5596 20.1378 11.4609 20.0718 11.3672 19.9783L8.36922 16.98C8.22056 16.8314 8.14456 16.6522 8.14122 16.4425C8.13806 16.233 8.21406 16.0507 8.36922 15.8955C8.52439 15.7404 8.70514 15.6628 8.91147 15.6628C9.11797 15.6628 9.29872 15.7404 9.45372 15.8955L12 18.4418ZM12 5.57228L9.45372 8.11853C9.30506 8.2672 9.12589 8.3432 8.91622 8.34653C8.70672 8.3497 8.52439 8.2737 8.36922 8.11853C8.21406 7.96336 8.13647 7.78261 8.13647 7.57628C8.13647 7.36995 8.21406 7.1892 8.36922 7.03403L11.3672 4.03603C11.4609 3.94236 11.5596 3.87628 11.6635 3.83778C11.7673 3.79928 11.8795 3.78003 12 3.78003C12.1205 3.78003 12.2326 3.79928 12.3365 3.83778C12.4403 3.87628 12.5391 3.94236 12.6327 4.03603L15.6307 7.03403C15.7794 7.1827 15.8554 7.36186 15.8587 7.57153C15.8619 7.78103 15.7859 7.96336 15.6307 8.11853C15.4756 8.2737 15.2948 8.35128 15.0885 8.35128C14.882 8.35128 14.7012 8.2737 14.5462 8.11853L12 5.57228Z"
  ></path>
</svg>
