<svg viewBox="0 0 24 24" xmlns="http://www.w3.org/2000/svg">
  <path
    d="M9.16327 12.6443C8.95061 12.6443 8.77244 12.5723 8.62877 12.4285C8.48527 12.2848 8.41353 12.1068 8.41353 11.8943V5.36351L6.09627 7.68076C5.96094 7.81926 5.79186 7.88851 5.58902 7.88851C5.38619 7.88851 5.20719 7.81676 5.05202 7.67326C4.89686 7.51676 4.81927 7.33785 4.81927 7.13651C4.81927 6.93535 4.89686 6.75718 5.05202 6.60201L8.52128 3.13276C8.61477 3.0391 8.71386 2.9731 8.81852 2.93476C8.92336 2.89626 9.03561 2.87701 9.15527 2.87701C9.27494 2.87701 9.38861 2.89635 9.49627 2.93501C9.60394 2.97385 9.70394 3.03976 9.79628 3.13276L13.2905 6.62701C13.4392 6.77568 13.5125 6.9481 13.5105 7.14426C13.5087 7.34043 13.4302 7.51676 13.275 7.67326C13.1199 7.81676 12.9442 7.8911 12.748 7.89626C12.5519 7.90126 12.3763 7.82626 12.2213 7.67126L9.91353 5.36351V11.9038C9.91353 12.1136 9.84161 12.2894 9.69777 12.4313C9.55394 12.5733 9.37577 12.6443 9.16327 12.6443ZM14.8448 21.1135C14.7251 21.1135 14.6114 21.0941 14.5038 21.0553C14.3961 21.0166 14.2961 20.9508 14.2038 20.8578L10.7095 17.3635C10.5609 17.2147 10.4875 17.0423 10.4895 16.8463C10.4914 16.6501 10.5699 16.4738 10.725 16.3173C10.8802 16.1738 11.0559 16.0994 11.252 16.0943C11.4482 16.0891 11.6238 16.1641 11.7788 16.3193L14.0865 18.627V12.0865C14.0865 11.8768 14.1584 11.701 14.3023 11.559C14.4461 11.4172 14.6243 11.3463 14.8368 11.3463C15.0494 11.3463 15.2276 11.4181 15.3713 11.5618C15.5148 11.7056 15.5865 11.8838 15.5865 12.0963V18.627L17.9038 16.3095C18.0391 16.1712 18.2082 16.102 18.411 16.102C18.6139 16.102 18.7929 16.1738 18.948 16.3173C19.1032 16.4738 19.1808 16.6526 19.1808 16.8538C19.1808 17.0551 19.1032 17.2333 18.948 17.3885L15.4788 20.8578C15.3853 20.9513 15.2862 21.0173 15.1815 21.0558C15.0767 21.0943 14.9644 21.1135 14.8448 21.1135Z"
  ></path>
</svg>
