<svg viewBox="0 0 24 24" xmlns="http://www.w3.org/2000/svg">
  <path
    d="M6.5 19.5C5.118 19.5 3.93917 19.0206 2.9635 18.0617C1.98783 17.1029 1.5 15.9311 1.5 14.5463C1.5 13.3039 1.89967 12.2113 2.699 11.2683C3.49833 10.3253 4.48967 9.76658 5.673 9.59225C5.9935 8.09742 6.74517 6.875 7.928 5.925C9.11067 4.975 10.468 4.5 12 4.5C13.4733 4.5 14.774 4.92658 15.902 5.77975C17.0302 6.63308 17.8013 7.72892 18.2153 9.06725C18.2794 9.28008 18.2532 9.466 18.1365 9.625C18.0198 9.784 17.8737 9.89042 17.698 9.94425C17.5223 9.99808 17.34 9.98267 17.151 9.898C16.9618 9.8135 16.8217 9.643 16.7308 9.3865C16.3911 8.39933 15.7927 7.58817 14.9355 6.953C14.0785 6.31767 13.1 6 12 6C10.6167 6 9.4375 6.4875 8.4625 7.4625C7.4875 8.4375 7 9.61667 7 11H6.48075C5.53325 11 4.71625 11.3417 4.02975 12.025C3.34325 12.7083 3 13.5333 3 14.5C3 15.4667 3.34167 16.2917 4.025 16.975C4.70833 17.6583 5.53333 18 6.5 18H12.952C13.1645 18 13.3426 18.0719 13.4863 18.2158C13.6301 18.3596 13.702 18.5378 13.702 18.7503C13.702 18.9629 13.6301 19.141 13.4863 19.2845C13.3426 19.4282 13.1645 19.5 12.952 19.5H6.5Z"
  ></path>
  <path
    d="M12.13 11C12.7442 11 13.2922 11.189 13.7736 11.5674C14.255 11.9455 14.5934 12.4232 14.7882 13H20.7452C20.9577 13 21.1358 13.0725 21.2794 13.2168C21.4232 13.3611 21.4952 13.5398 21.4952 13.7529C21.4952 13.9537 21.4509 14.1544 21.2794 14.3154C21.1185 14.4663 20.8797 14.5 20.7452 14.5H20.4952V15.75C20.4952 15.9625 20.4232 16.1403 20.2794 16.2842C20.1356 16.4278 19.9578 16.4999 19.7452 16.5C19.5327 16.5 19.3547 16.4278 19.2111 16.2842C19.0676 16.1403 18.9952 15.9625 18.9952 15.75V14.5H14.7882C14.5934 15.0769 14.2549 15.5545 13.7736 15.9326C13.2922 16.3108 12.7442 16.5 12.13 16.5C11.3663 16.5 10.7174 16.2326 10.1827 15.6982C9.6479 15.1637 9.38 14.5145 9.38 13.751C9.38006 12.9874 9.64796 12.3378 10.1827 11.8027C10.7173 11.2677 11.3663 11 12.13 11ZM12.13 12.5C11.7827 12.5 11.4873 12.6213 11.2443 12.8643C11.0013 13.1073 10.88 13.4027 10.88 13.75C10.88 14.0974 11.0013 14.3928 11.2443 14.6357C11.4873 14.8786 11.7827 15 12.13 15C12.4775 15 12.7727 14.8786 13.0157 14.6357C13.2586 14.3927 13.38 14.0975 13.38 13.75C13.38 13.4027 13.2586 13.1073 13.0157 12.8643C12.7728 12.6213 12.4774 12.5 12.13 12.5Z"
  ></path>
</svg>
