<svg viewBox="0 0 24 24" xmlns="http://www.w3.org/2000/svg">
  <path
    d="M12 16.6885L8.10976 19.0345C7.96476 19.1192 7.81951 19.1547 7.67401 19.1412C7.52851 19.1277 7.39684 19.0787 7.27901 18.9942C7.16101 18.9096 7.06993 18.799 7.00576 18.6625C6.94176 18.526 6.93151 18.375 6.97501 18.2095L8.00776 13.7922L4.57326 10.8192C4.44493 10.7077 4.36318 10.5786 4.32801 10.4317C4.29268 10.2849 4.30193 10.1422 4.35576 10.0037C4.40959 9.86541 4.48718 9.75232 4.58851 9.66449C4.68984 9.57665 4.82834 9.51924 5.00401 9.49224L9.53651 9.09624L11.2963 4.92499C11.3603 4.76982 11.4573 4.65507 11.5875 4.58074C11.7177 4.5064 11.8552 4.46924 12 4.46924C12.1448 4.46924 12.2823 4.5064 12.4125 4.58074C12.5427 4.65507 12.6398 4.76982 12.7038 4.92499L14.4635 9.09624L18.996 9.49224C19.1717 9.51924 19.3102 9.57665 19.4115 9.66449C19.5128 9.75232 19.5904 9.86541 19.6443 10.0037C19.6981 10.1422 19.7073 10.2849 19.672 10.4317C19.6368 10.5786 19.5551 10.7077 19.4268 10.8192L15.9923 13.7922L17.025 18.2095C17.0685 18.375 17.0583 18.526 16.9943 18.6625C16.9301 18.799 16.839 18.9096 16.721 18.9942C16.6032 19.0787 16.4715 19.1277 16.326 19.1412C16.1805 19.1547 16.0353 19.1192 15.8903 19.0345L12 16.6885Z"
  ></path>
</svg>
