<svg viewBox="0 0 24 24" xmlns="http://www.w3.org/2000/svg">
  <path
    d="M2.53076 11.25C2.71676 8.79367 3.71292 6.72125 5.51926 5.03275C7.32559 3.34425 9.48584 2.5 12 2.5C13.3128 2.5 14.5446 2.74967 15.6953 3.249C16.8459 3.74833 17.8513 4.42817 18.7115 5.2885C19.5718 6.14867 20.2517 7.15408 20.751 8.30475C21.2503 9.45542 21.5 10.6872 21.5 12C21.5 13.3025 21.2503 14.5317 20.751 15.6875C20.2517 16.8433 19.5718 17.8513 18.7115 18.7115C17.8513 19.5718 16.8459 20.2517 15.6953 20.751C14.5446 21.2503 13.3128 21.5 12 21.5C11.1487 21.5 10.3143 21.3868 9.49701 21.1605C8.67984 20.9342 7.89626 20.598 7.14626 20.152C6.92309 20.0237 6.79967 19.8428 6.77601 19.6095C6.75234 19.3762 6.83859 19.1614 7.03476 18.9653C7.14626 18.8538 7.28984 18.7862 7.46551 18.7625C7.64101 18.7388 7.79801 18.7693 7.93651 18.8538C8.57234 19.2256 9.22976 19.5096 9.90876 19.7057C10.5876 19.9019 11.2847 20 12 20C14.223 20 16.1121 19.2224 17.6673 17.6673C19.2224 16.1121 20 14.223 20 12C20 9.777 19.2224 7.88792 17.6673 6.33275C16.1121 4.77758 14.223 4 12 4C9.90517 4 8.09976 4.6965 6.58376 6.0895C5.06759 7.48233 4.21659 9.2025 4.03076 11.25C4.01026 11.4628 3.92817 11.641 3.78451 11.7845C3.64101 11.9282 3.46284 12 3.25001 12C3.03717 12 2.85901 11.9257 2.71551 11.777C2.57184 11.6282 2.51026 11.4525 2.53076 11.25ZM16.1635 10.8903V13.1058C16.1635 13.3186 16.2353 13.4968 16.3788 13.6405C16.5224 13.784 16.7007 13.8558 16.9135 13.8558C17.1263 13.8558 17.3045 13.784 17.448 13.6405C17.5917 13.4968 17.6635 13.3186 17.6635 13.1058V9.2405C17.6635 8.98267 17.5773 8.76758 17.4048 8.59525C17.2324 8.42275 17.0173 8.3365 16.7595 8.3365H12.8943C12.6814 8.3365 12.5032 8.40833 12.3595 8.552C12.216 8.6955 12.1443 8.87367 12.1443 9.0865C12.1443 9.29933 12.216 9.47758 12.3595 9.62125C12.5032 9.76475 12.6814 9.8365 12.8943 9.8365H15.0905L10.9693 13.977L8.60201 11.9943C8.42117 11.8404 8.21442 11.7718 7.98176 11.7885C7.74909 11.8052 7.55067 11.8956 7.38651 12.0598L3.82126 15.6155C3.69309 15.7437 3.61967 15.8914 3.60101 16.0587C3.58234 16.2259 3.61534 16.3871 3.70001 16.5423C3.82817 16.7614 4.01376 16.8829 4.25676 16.9068C4.49976 16.9304 4.70901 16.8544 4.88451 16.6788L8.03076 13.523L10.398 15.4962C10.5788 15.6501 10.7856 15.7203 11.0183 15.7068C11.2509 15.6933 11.4493 15.6044 11.6135 15.4402L16.1635 10.8903Z"
  ></path>
</svg>
