<svg viewBox="0 0 24 24" xmlns="http://www.w3.org/2000/svg">
  <path
    d="M8.99938 9.30668V19.6912C8.99938 19.781 9.02821 19.8548 9.08588 19.9124C9.14355 19.9701 9.2173 19.9989 9.30713 19.9989H15.9994V16.9027C15.9994 16.645 16.0856 16.43 16.2581 16.2577C16.4305 16.0852 16.6455 15.9989 16.9031 15.9989H19.9994V9.30668C19.9994 9.21685 19.9705 9.1431 19.9129 9.08543C19.8552 9.02777 19.7815 8.99893 19.6916 8.99893H9.30713C9.2173 8.99893 9.14355 9.02777 9.08588 9.08543C9.02821 9.1431 8.99938 9.21685 8.99938 9.30668ZM7.49938 19.6912V9.29118C7.49938 8.79252 7.67855 8.36918 8.03688 8.02118C8.39521 7.67302 8.82371 7.49893 9.32238 7.49893H19.6916C20.1903 7.49893 20.6163 7.67552 20.9696 8.02868C21.3228 8.38202 21.4994 8.80802 21.4994 9.30668V16.0392C21.4994 16.2804 21.4525 16.5121 21.3589 16.7344C21.2654 16.9569 21.1365 17.1502 20.9724 17.3142L17.3146 20.9719C17.1506 21.1361 16.9574 21.2649 16.7349 21.3584C16.5125 21.4521 16.2808 21.4989 16.0396 21.4989H9.30713C8.80846 21.4989 8.38246 21.3223 8.02913 20.9692C7.67596 20.6159 7.49938 20.1898 7.49938 19.6912ZM2.52438 6.42193C2.43088 5.92327 2.52805 5.47393 2.81588 5.07393C3.10355 4.67393 3.4968 4.42718 3.99563 4.33368L14.2301 2.52393C14.7186 2.43043 15.1603 2.5301 15.5551 2.82293C15.95 3.11593 16.2045 3.50668 16.3186 3.99518L16.4744 4.79893C16.532 5.04893 16.4932 5.24827 16.3579 5.39693C16.2227 5.54577 16.0622 5.6336 15.8764 5.66043C15.6904 5.68743 15.5137 5.65443 15.3464 5.56143C15.1792 5.46843 15.0635 5.29693 14.9994 5.04693L14.8244 4.21043C14.8115 4.13993 14.773 4.08385 14.7089 4.04218C14.6449 4.00052 14.5744 3.9861 14.4974 3.99893L4.25913 5.81818C4.1693 5.83102 4.10196 5.87268 4.05713 5.94318C4.0123 6.01368 3.99621 6.09385 4.00888 6.18368L5.67238 15.6682C5.70955 15.8747 5.67238 16.0632 5.56088 16.2337C5.44938 16.4042 5.29046 16.5112 5.08413 16.5547C4.8713 16.5983 4.68055 16.5586 4.51188 16.4354C4.34338 16.3124 4.24055 16.1445 4.20338 15.9317L2.52438 6.42193Z"
  ></path>
</svg>
