<svg viewBox="0 0 24 24" xmlns="http://www.w3.org/2000/svg">
  <path
    d="M2.5 11C2.5 9.191 3.13108 7.65542 4.39325 6.39325C5.65542 5.13108 7.191 4.5 9 4.5H15C16.809 4.5 18.3446 5.13108 19.6068 6.39325C20.8689 7.65542 21.5 9.191 21.5 11C21.5 12.6333 20.9693 14.0583 19.9078 15.275C18.8461 16.4917 17.5069 17.2128 15.8903 17.4385C15.6544 17.4757 15.4471 17.4266 15.2682 17.2913C15.0894 17.1561 15 16.9788 15 16.7595C15 16.5403 15.0885 16.358 15.2655 16.2125C15.4423 16.067 15.6487 15.9705 15.8845 15.923C17.0923 15.7077 18.0802 15.1378 18.848 14.2135C19.616 13.2892 20 12.218 20 11C20 9.61667 19.5125 8.4375 18.5375 7.4625C17.5625 6.4875 16.3833 6 15 6H9C7.61667 6 6.4375 6.4875 5.4625 7.4625C4.4875 8.4375 4 9.61667 4 11C4 12.3897 4.48592 13.572 5.45775 14.547C6.42958 15.522 7.61033 16.0095 9 16.0095H9.77125L8.45775 14.6865C8.31925 14.548 8.25 14.3765 8.25 14.172C8.25 13.9675 8.32433 13.7909 8.473 13.6423C8.618 13.4974 8.79367 13.425 9 13.425C9.20633 13.425 9.382 13.4974 9.527 13.6423L12.0115 16.127C12.1923 16.3077 12.2828 16.5185 12.2828 16.7595C12.2828 17.0007 12.1923 17.2116 12.0115 17.3923L9.51725 19.8865C9.37875 20.025 9.20733 20.0943 9.003 20.0943C8.7985 20.0943 8.62183 20.025 8.473 19.8865C8.318 19.7378 8.24208 19.5597 8.24525 19.352C8.24842 19.1442 8.32433 18.9659 8.473 18.8173L9.78075 17.5095H9C7.191 17.5095 5.65542 16.8768 4.39325 15.6115C3.13108 14.3462 2.5 12.809 2.5 11Z"
  ></path>
</svg>
