<svg viewBox="0 0 24 24" xmlns="http://www.w3.org/2000/svg">
  <path
    d="M8.75 18V6C8.75 5.66848 8.61821 5.35063 8.38379 5.11621C8.17878 4.9112 7.91001 4.78436 7.62402 4.75586L7.5 4.75H6.5C6.08579 4.75 5.75 4.41421 5.75 4C5.75 3.58579 6.08579 3.25 6.5 3.25H7.5C8.22935 3.25 8.92861 3.53994 9.44434 4.05566C9.46375 4.07508 9.48123 4.09628 9.5 4.11621C9.51877 4.09628 9.53625 4.07508 9.55566 4.05566C10.0714 3.53994 10.7707 3.25 11.5 3.25H12.5C12.9142 3.25 13.25 3.58579 13.25 4C13.25 4.41421 12.9142 4.75 12.5 4.75H11.5C11.1685 4.75 10.8506 4.88179 10.6162 5.11621C10.3818 5.35063 10.25 5.66848 10.25 6V18C10.25 18.3315 10.3818 18.6494 10.6162 18.8838C10.8506 19.1182 11.1685 19.25 11.5 19.25H12.5C12.9142 19.25 13.25 19.5858 13.25 20C13.25 20.4142 12.9142 20.75 12.5 20.75H11.5C10.7707 20.75 10.0714 20.4601 9.55566 19.9443C9.53608 19.9247 9.51893 19.9029 9.5 19.8828C9.48107 19.9029 9.46392 19.9247 9.44434 19.9443C8.92861 20.4601 8.22935 20.75 7.5 20.75H6.5C6.08579 20.75 5.75 20.4142 5.75 20C5.75 19.5858 6.08579 19.25 6.5 19.25H7.5C7.83152 19.25 8.14937 19.1182 8.38379 18.8838C8.61821 18.6494 8.75 18.3315 8.75 18ZM1.75 14V10C1.75 9.27065 2.03994 8.57139 2.55566 8.05566C3.07139 7.53994 3.77065 7.25 4.5 7.25H5.5C5.91421 7.25 6.25 7.58579 6.25 8C6.25 8.41421 5.91421 8.75 5.5 8.75H4.5C4.16848 8.75 3.85063 8.88179 3.61621 9.11621C3.38179 9.35063 3.25 9.66848 3.25 10V14C3.25 14.3315 3.38179 14.6494 3.61621 14.8838C3.85063 15.1182 4.16848 15.25 4.5 15.25H5.5C5.91421 15.25 6.25 15.5858 6.25 16C6.25 16.4142 5.91421 16.75 5.5 16.75H4.5C3.77065 16.75 3.07139 16.4601 2.55566 15.9443C2.03994 15.4286 1.75 14.7293 1.75 14ZM20.75 14V10C20.75 9.66848 20.6182 9.35063 20.3838 9.11621C20.1494 8.88179 19.8315 8.75 19.5 8.75H13.5C13.0858 8.75 12.75 8.41421 12.75 8C12.75 7.58579 13.0858 7.25 13.5 7.25H19.5C20.2293 7.25 20.9286 7.53994 21.4443 8.05566C21.9601 8.57139 22.25 9.27065 22.25 10V14C22.25 14.7293 21.9601 15.4286 21.4443 15.9443C20.9286 16.4601 20.2293 16.75 19.5 16.75H13.5C13.0858 16.75 12.75 16.4142 12.75 16C12.75 15.5858 13.0858 15.25 13.5 15.25H19.5C19.8315 15.25 20.1494 15.1182 20.3838 14.8838C20.6182 14.6494 20.75 14.3315 20.75 14Z"
  ></path>
</svg>
