<svg viewBox="0 0 24 24" xmlns="http://www.w3.org/2000/svg">
  <path
    d="M11.9808 21.5C10.6846 21.5 9.46025 21.2503 8.30775 20.751C7.15508 20.2517 6.14867 19.5718 5.2885 18.7115C4.42817 17.8513 3.74833 16.8433 3.249 15.6875C2.74967 14.5317 2.5 13.3025 2.5 12C2.5 10.6808 2.75642 9.44333 3.26925 8.2875C3.78208 7.13167 4.47858 6.12625 5.35875 5.27125C6.23875 4.41608 7.26825 3.74042 8.44725 3.24425C9.62608 2.74808 10.8834 2.5 12.2192 2.5C13.4692 2.5 14.6538 2.71317 15.773 3.1395C16.8923 3.56583 17.8753 4.15592 18.722 4.90975C19.5688 5.66358 20.2435 6.55942 20.746 7.59725C21.2487 8.63492 21.5 9.76017 21.5 10.973C21.5 12.7038 20.9856 14.0577 19.9568 15.0345C18.9279 16.0115 17.609 16.5 16 16.5H14.1885C13.9038 16.5 13.6762 16.5929 13.5057 16.7788C13.3352 16.9648 13.25 17.1847 13.25 17.4385C13.25 17.7475 13.375 18.0687 13.625 18.402C13.875 18.7353 14 19.118 14 19.55C14 20.2102 13.8173 20.7003 13.452 21.0203C13.0865 21.3401 12.5961 21.5 11.9808 21.5ZM6.5 12.75C6.85633 12.75 7.15375 12.6307 7.39225 12.3923C7.63075 12.1538 7.75 11.8563 7.75 11.5C7.75 11.1437 7.63075 10.8462 7.39225 10.6077C7.15375 10.3692 6.85633 10.25 6.5 10.25C6.14367 10.25 5.84625 10.3692 5.60775 10.6077C5.36925 10.8462 5.25 11.1437 5.25 11.5C5.25 11.8563 5.36925 12.1538 5.60775 12.3923C5.84625 12.6307 6.14367 12.75 6.5 12.75ZM9.5 8.75C9.85633 8.75 10.1537 8.63075 10.3923 8.39225C10.6307 8.15375 10.75 7.85633 10.75 7.5C10.75 7.14367 10.6307 6.84625 10.3923 6.60775C10.1537 6.36925 9.85633 6.25 9.5 6.25C9.14367 6.25 8.84625 6.36925 8.60775 6.60775C8.36925 6.84625 8.25 7.14367 8.25 7.5C8.25 7.85633 8.36925 8.15375 8.60775 8.39225C8.84625 8.63075 9.14367 8.75 9.5 8.75ZM14.5 8.75C14.8563 8.75 15.1538 8.63075 15.3923 8.39225C15.6307 8.15375 15.75 7.85633 15.75 7.5C15.75 7.14367 15.6307 6.84625 15.3923 6.60775C15.1538 6.36925 14.8563 6.25 14.5 6.25C14.1437 6.25 13.8462 6.36925 13.6077 6.60775C13.3693 6.84625 13.25 7.14367 13.25 7.5C13.25 7.85633 13.3693 8.15375 13.6077 8.39225C13.8462 8.63075 14.1437 8.75 14.5 8.75ZM17.5 12.75C17.8563 12.75 18.1538 12.6307 18.3923 12.3923C18.6308 12.1538 18.75 11.8563 18.75 11.5C18.75 11.1437 18.6308 10.8462 18.3923 10.6077C18.1538 10.3692 17.8563 10.25 17.5 10.25C17.1437 10.25 16.8462 10.3692 16.6077 10.6077C16.3693 10.8462 16.25 11.1437 16.25 11.5C16.25 11.8563 16.3693 12.1538 16.6077 12.3923C16.8462 12.6307 17.1437 12.75 17.5 12.75ZM11.9808 20C12.1436 20 12.2708 19.9599 12.3625 19.8798C12.4542 19.7996 12.5 19.6897 12.5 19.55C12.5 19.3167 12.375 19.0545 12.125 18.7635C11.875 18.4725 11.75 18.0167 11.75 17.3962C11.75 16.6834 11.9917 16.1058 12.475 15.6635C12.9583 15.2212 13.55 15 14.25 15H16C17.177 15 18.1379 14.6552 18.8827 13.9655C19.6276 13.2757 20 12.2782 20 10.973C20 8.95 19.2243 7.28208 17.673 5.96925C16.1218 4.65642 14.3039 4 12.2192 4C9.93342 4 7.99208 4.775 6.39525 6.325C4.79842 7.875 4 9.76667 4 12C4 14.2167 4.77917 16.1042 6.3375 17.6625C7.89583 19.2208 9.77692 20 11.9808 20Z"
  ></path>
</svg>
