<svg viewBox="0 0 24 24" xmlns="http://www.w3.org/2000/svg">
  <path
    d="M15.25 19.2308V17.75H13.0577C12.5591 17.75 12.1331 17.5734 11.7797 17.2203C11.4266 16.8669 11.25 16.4409 11.25 15.9423V7.75H8.75V9.23075C8.75 9.65258 8.60225 10.0113 8.30675 10.3068C8.01125 10.6023 7.65258 10.75 7.23075 10.75H3.76925C3.34742 10.75 2.98875 10.6023 2.69325 10.3068C2.39775 10.0113 2.25 9.65258 2.25 9.23075V4.76925C2.25 4.34742 2.39775 3.98875 2.69325 3.69325C2.98875 3.39775 3.34742 3.25 3.76925 3.25H7.23075C7.65258 3.25 8.01125 3.39775 8.30675 3.69325C8.60225 3.98875 8.75 4.34742 8.75 4.76925V6.25H15.25V4.76925C15.25 4.34742 15.3977 3.98875 15.6932 3.69325C15.9887 3.39775 16.3474 3.25 16.7693 3.25H20.2307C20.6526 3.25 21.0113 3.39775 21.3068 3.69325C21.6023 3.98875 21.75 4.34742 21.75 4.76925V9.23075C21.75 9.65258 21.6023 10.0113 21.3068 10.3068C21.0113 10.6023 20.6526 10.75 20.2307 10.75H16.7693C16.3474 10.75 15.9887 10.6023 15.6932 10.3068C15.3977 10.0113 15.25 9.65258 15.25 9.23075V7.75H12.75V15.9423C12.75 16.0321 12.7788 16.1058 12.8365 16.1635C12.8942 16.2212 12.9679 16.25 13.0577 16.25H15.25V14.7692C15.25 14.3474 15.3977 13.9888 15.6932 13.6933C15.9887 13.3978 16.3474 13.25 16.7693 13.25H20.2307C20.6526 13.25 21.0113 13.3978 21.3068 13.6933C21.6023 13.9888 21.75 14.3474 21.75 14.7692V19.2308C21.75 19.6526 21.6023 20.0113 21.3068 20.3068C21.0113 20.6023 20.6526 20.75 20.2307 20.75H16.7693C16.3474 20.75 15.9887 20.6023 15.6932 20.3068C15.3977 20.0113 15.25 19.6526 15.25 19.2308ZM16.75 9.25H20.25V4.75H16.75V9.25ZM16.75 19.25H20.25V14.75H16.75V19.25ZM3.75 9.25H7.25V4.75H3.75V9.25Z"
  ></path>
</svg>
