<svg viewBox="0 0 24 24" xmlns="http://www.w3.org/2000/svg">
  <path
    d="M15 20.5C14.4948 20.5 14.0672 20.325 13.7172 19.975C13.3672 19.625 13.1922 19.1974 13.1922 18.6923V5.30775C13.1922 4.80258 13.3672 4.375 13.7172 4.025C14.0672 3.675 14.4948 3.5 15 3.5H18.3845C18.8897 3.5 19.3172 3.675 19.6672 4.025C20.0172 4.375 20.1922 4.80258 20.1922 5.30775V18.6923C20.1922 19.1974 20.0172 19.625 19.6672 19.975C19.3172 20.325 18.8897 20.5 18.3845 20.5H15ZM14.6922 5.30775V18.6923C14.6922 18.7692 14.7243 18.8398 14.7885 18.9038C14.8525 18.9679 14.923 19 15 19H18.3845C18.4615 19 18.532 18.9679 18.596 18.9038C18.6602 18.8398 18.6922 18.7692 18.6922 18.6923V5.30775C18.6922 5.23075 18.6602 5.16025 18.596 5.09625C18.532 5.03208 18.4615 5 18.3845 5H15C14.923 5 14.8525 5.03208 14.7885 5.09625C14.7243 5.16025 14.6922 5.23075 14.6922 5.30775ZM5.61549 20.5C5.11032 20.5 4.68274 20.325 4.33274 19.975C3.98274 19.625 3.80774 19.1974 3.80774 18.6923V5.30775C3.80774 4.80258 3.98274 4.375 4.33274 4.025C4.68274 3.675 5.11032 3.5 5.61549 3.5H8.99999C9.50516 3.5 9.93274 3.675 10.2827 4.025C10.6327 4.375 10.8077 4.80258 10.8077 5.30775V18.6923C10.8077 19.1974 10.6327 19.625 10.2827 19.975C9.93274 20.325 9.50516 20.5 8.99999 20.5H5.61549ZM5.30774 5.30775V18.6923C5.30774 18.7692 5.33982 18.8398 5.40399 18.9038C5.46799 18.9679 5.53849 19 5.61549 19H8.99999C9.07699 19 9.14749 18.9679 9.21149 18.9038C9.27566 18.8398 9.30774 18.7692 9.30774 18.6923V5.30775C9.30774 5.23075 9.27566 5.16025 9.21149 5.09625C9.14749 5.03208 9.07699 5 8.99999 5H5.61549C5.53849 5 5.46799 5.03208 5.40399 5.09625C5.33982 5.16025 5.30774 5.23075 5.30774 5.30775Z"
  ></path>
</svg>
