<svg viewBox="0 0 24 24" xmlns="http://www.w3.org/2000/svg">
  <path
    d="M7.95195 18.5001C7.73912 18.5001 7.56087 18.4282 7.4172 18.2846C7.2737 18.1411 7.20195 17.9629 7.20195 17.7501C7.20195 17.5372 7.2737 17.3591 7.4172 17.2156C7.56087 17.0719 7.73912 17.0001 7.95195 17.0001H14.3787C15.4224 17.0001 16.3205 16.6555 17.073 15.9663C17.8256 15.2773 18.202 14.4264 18.202 13.4136C18.202 12.4007 17.8256 11.5513 17.073 10.8653C16.3205 10.1795 15.4224 9.83656 14.3787 9.83656H7.3577L9.61345 12.0923C9.75829 12.2373 9.8307 12.413 9.8307 12.6193C9.8307 12.8256 9.75829 13.0013 9.61345 13.1463C9.46862 13.2911 9.29137 13.362 9.0817 13.3588C8.87204 13.3555 8.69804 13.2846 8.5597 13.1463L5.1327 9.71931C5.03904 9.62565 4.97304 9.5269 4.9347 9.42306C4.8962 9.31923 4.87695 9.20706 4.87695 9.08656C4.87695 8.96606 4.8962 8.8539 4.9347 8.75006C4.97304 8.64623 5.03904 8.54748 5.1327 8.45381L8.5597 5.02706C8.70454 4.88223 8.88012 4.80981 9.08645 4.80981C9.29295 4.80981 9.46862 4.88223 9.61345 5.02706C9.75829 5.1719 9.82912 5.34915 9.82595 5.55881C9.82279 5.76831 9.75195 5.94231 9.61345 6.08081L7.3577 8.33656H14.3787C15.8415 8.33656 17.0945 8.82473 18.1375 9.80106C19.1805 10.7774 19.702 11.9816 19.702 13.4136C19.702 14.8456 19.1805 16.0513 18.1375 17.0308C17.0945 18.0103 15.8415 18.5001 14.3787 18.5001H7.95195Z"
  ></path>
</svg>
