<svg viewBox="0 0 24 24" xmlns="http://www.w3.org/2000/svg">
  <path
    d="M2.79941 3.11C3.00575 3.11 3.18176 3.18277 3.32676 3.32777L20.6725 20.6735C20.811 20.812 20.8822 20.9863 20.8854 21.1959C20.8886 21.4054 20.8174 21.5822 20.6725 21.7272C20.5276 21.872 20.3524 21.945 20.1461 21.945C19.9396 21.945 19.7636 21.872 19.6187 21.7272L10.6422 12.7506H9.01914C8.80635 12.7506 8.62845 12.6784 8.48496 12.5348C8.34132 12.3913 8.26917 12.2134 8.26914 12.0006C8.26914 11.7878 8.34132 11.6099 8.48496 11.4664C8.62846 11.3228 8.80631 11.2506 9.01914 11.2506H9.14219L6.86094 8.96938C6.0973 9.0086 5.43985 9.30051 4.88926 9.85121C4.29626 10.4442 3.99961 11.161 3.99961 12.0006C3.99964 12.8401 4.29647 13.5561 4.88926 14.1491C5.48209 14.7421 6.19884 15.0387 7.03867 15.0387H10.0768C10.2896 15.0387 10.4674 15.1111 10.6109 15.2545C10.7545 15.3981 10.8267 15.576 10.8268 15.7887C10.8268 16.0015 10.7546 16.1804 10.6109 16.3239C10.4675 16.4673 10.2894 16.5387 10.0768 16.5387H7.03867C5.78351 16.5387 4.7129 16.0959 3.82773 15.2106C2.94261 14.3255 2.49964 13.2556 2.49961 12.0006C2.49961 10.8892 2.85795 9.91396 3.57383 9.07484C4.13726 8.41463 4.81378 7.9602 5.60313 7.71156L2.27305 4.38148C2.13471 4.24299 2.06349 4.06852 2.06016 3.85902C2.05704 3.64948 2.12829 3.47255 2.27305 3.32777C2.41794 3.18288 2.59327 3.1101 2.79941 3.11Z"
  ></path>
  <path
    d="M16.9811 7.46156C18.2295 7.46167 19.2953 7.90446 20.1773 8.78969C21.0593 9.67484 21.4996 10.7455 21.4996 12.0006C21.4996 12.7916 21.3071 13.5222 20.9225 14.192C20.5378 14.8619 20.0186 15.4047 19.3648 15.82C19.1894 15.9313 19.0017 15.9678 18.8023 15.9293C18.6031 15.891 18.448 15.7836 18.3365 15.608C18.2251 15.4324 18.1887 15.2431 18.2271 15.0407C18.2655 14.8384 18.3755 14.6848 18.5572 14.5797C18.9982 14.3093 19.3488 13.9475 19.609 13.4957C19.8693 13.0438 19.9996 12.5454 19.9996 12.0006C19.9996 11.161 19.7054 10.4442 19.1158 9.85121C18.5261 9.25832 17.8142 8.96167 16.9811 8.96156H13.9225C13.7098 8.96147 13.5317 8.89013 13.3883 8.74672C13.2446 8.60306 13.1725 8.42437 13.1725 8.21156C13.1726 7.99892 13.2447 7.82079 13.3883 7.67738C13.5317 7.53382 13.7098 7.46165 13.9225 7.46156H16.9811Z"
  ></path>
  <path
    d="M14.9811 11.2506C15.1937 11.2507 15.3718 11.3229 15.5152 11.4664C15.6587 11.6099 15.7311 11.7879 15.7311 12.0006C15.731 12.1286 15.7037 12.2432 15.65 12.3444C15.5962 12.4457 15.52 12.5284 15.4225 12.5924L14.0807 11.2506H14.9811Z"
  ></path>
</svg>
