<svg viewBox="0 0 24 24" xmlns="http://www.w3.org/2000/svg">
  <path
    d="M6.30775 19.3115C5.80258 19.3115 5.375 19.1365 5.025 18.7865C4.675 18.4365 4.5 18.0089 4.5 17.5037V15.5422C4.5 15.3294 4.57183 15.1512 4.7155 15.0077C4.859 14.8641 5.03717 14.7922 5.25 14.7922C5.46283 14.7922 5.641 14.8641 5.7845 15.0077C5.92817 15.1512 6 15.3294 6 15.5422V17.5037C6 17.5807 6.03208 17.6512 6.09625 17.7152C6.16025 17.7794 6.23075 17.8115 6.30775 17.8115H17.6923C17.7692 17.8115 17.8398 17.7794 17.9038 17.7152C17.9679 17.6512 18 17.5807 18 17.5037V15.5422C18 15.3294 18.0718 15.1512 18.2155 15.0077C18.359 14.8641 18.5372 14.7922 18.75 14.7922C18.9628 14.7922 19.141 14.8641 19.2845 15.0077C19.4282 15.1512 19.5 15.3294 19.5 15.5422V17.5037C19.5 18.0089 19.325 18.4365 18.975 18.7865C18.625 19.1365 18.1974 19.3115 17.6923 19.3115H6.30775ZM11.25 7.19998L9.327 9.12298C9.17817 9.27164 9.00158 9.34506 8.79725 9.34323C8.59275 9.34123 8.41292 9.26264 8.25775 9.10748C8.11292 8.95248 8.03792 8.77689 8.03275 8.58073C8.02758 8.38456 8.10258 8.20889 8.25775 8.05373L11.3672 4.94423C11.4609 4.85056 11.5597 4.78456 11.6635 4.74623C11.7673 4.70773 11.8795 4.68848 12 4.68848C12.1205 4.68848 12.2327 4.70773 12.3365 4.74623C12.4403 4.78456 12.5391 4.85056 12.6328 4.94423L15.7423 8.05373C15.8909 8.20239 15.9643 8.37648 15.9625 8.57598C15.9605 8.77531 15.8871 8.95248 15.7423 9.10748C15.5871 9.26264 15.4089 9.34281 15.2078 9.34798C15.0064 9.35314 14.8282 9.27814 14.673 9.12298L12.75 7.19998V14.85C12.75 15.0628 12.6782 15.241 12.5345 15.3845C12.391 15.5281 12.2128 15.6 12 15.6C11.7872 15.6 11.609 15.5281 11.4655 15.3845C11.3218 15.241 11.25 15.0628 11.25 14.85V7.19998Z"
  ></path>
</svg>
