<svg viewBox="0 0 24 24" xmlns="http://www.w3.org/2000/svg">
  <path
    d="M12 14.2C11.25 14.2 10.6125 13.9375 10.0875 13.4125C9.56253 12.8875 9.30003 12.25 9.30003 11.5C9.30003 10.75 9.56253 10.1125 10.0875 9.5875C10.6125 9.0625 11.25 8.8 12 8.8C12.75 8.8 13.3875 9.0625 13.9125 9.5875C14.4375 10.1125 14.7 10.75 14.7 11.5C14.7 12.25 14.4375 12.8875 13.9125 13.4125C13.3875 13.9375 12.75 14.2 12 14.2ZM12 18.5C9.88836 18.5 7.91461 17.9401 6.07877 16.8203C4.24294 15.7003 2.85903 14.1898 1.92703 12.289C1.86169 12.1643 1.81394 12.0376 1.78378 11.9088C1.75361 11.7799 1.73853 11.6437 1.73853 11.5C1.73853 11.3563 1.75361 11.2201 1.78378 11.0913C1.81394 10.9624 1.86169 10.8357 1.92703 10.711C2.85903 8.81017 4.24294 7.29975 6.07877 6.17975C7.91461 5.05992 9.88836 4.5 12 4.5C13.9385 4.5 15.7347 4.95258 17.3885 5.85775C19.0424 6.76292 20.3936 8.00583 21.4423 9.5865C21.5641 9.76217 21.5988 9.95383 21.5463 10.1615C21.4936 10.3692 21.3744 10.5237 21.1885 10.625C21.0025 10.7263 20.8067 10.7475 20.601 10.6885C20.3952 10.6295 20.2314 10.5122 20.1098 10.3365C19.1994 8.97883 18.0332 7.91667 16.611 7.15C15.189 6.38333 13.652 6 12 6C10.1167 6 8.38753 6.49583 6.81253 7.4875C5.23753 8.47917 4.03336 9.81667 3.20003 11.5C4.03336 13.1833 5.23753 14.5208 6.81253 15.5125C8.38753 16.5042 10.1167 17 12 17C12.1924 17 12.3836 16.9943 12.5738 16.9827C12.7639 16.9712 12.9541 16.9539 13.1443 16.9308C13.3404 16.9039 13.5144 16.9572 13.6663 17.0905C13.8183 17.2237 13.8943 17.3897 13.8943 17.5887C13.8943 17.7999 13.8224 17.9863 13.6788 18.148C13.5353 18.3095 13.3571 18.4037 13.1443 18.4307C12.9536 18.4537 12.7629 18.4711 12.572 18.4827C12.3814 18.4943 12.1907 18.5 12 18.5ZM12 15.577C12.3577 15.577 12.7032 15.5321 13.0365 15.4423C13.3699 15.3526 13.6801 15.2263 13.9673 15.0635C14.0699 14.3712 14.3036 13.7462 14.6683 13.1885C15.0329 12.6308 15.4961 12.1713 16.0578 11.8098C16.0641 11.7571 16.0689 11.7054 16.072 11.6548C16.0754 11.6041 16.077 11.5525 16.077 11.5C16.077 10.3675 15.6804 9.40492 14.8873 8.61225C14.0941 7.81942 13.1309 7.423 11.9978 7.423C10.8646 7.423 9.90219 7.81958 9.11053 8.61275C8.31886 9.40592 7.92303 10.3691 7.92303 11.5023C7.92303 12.6354 8.31944 13.5978 9.11228 14.3895C9.90494 15.1812 10.8675 15.577 12 15.577ZM16.798 20.5095C16.542 20.5095 16.3274 20.4229 16.154 20.2498C15.9809 20.0764 15.8943 19.8617 15.8943 19.6058V16.75C15.8943 16.4923 15.9869 16.2788 16.172 16.1095C16.3574 15.9403 16.5821 15.8558 16.8463 15.8558V14.8558C16.8463 14.3454 17.0281 13.9086 17.3918 13.5452C17.7554 13.1818 18.1926 13 18.7033 13C19.2139 13 19.649 13.1818 20.0085 13.5452C20.3682 13.9086 20.548 14.3454 20.548 14.8558V15.8558C20.8122 15.8558 21.0369 15.9403 21.222 16.1095C21.4074 16.2788 21.5 16.4923 21.5 16.75V19.6058C21.5 19.8617 21.4134 20.0764 21.24 20.2498C21.0669 20.4229 20.8522 20.5095 20.596 20.5095H16.798ZM17.7308 15.8558H19.6635V14.8558C19.6635 14.5724 19.5741 14.3398 19.3953 14.1578C19.2164 13.9756 18.9854 13.8845 18.702 13.8845C18.4187 13.8845 18.1859 13.9756 18.0038 14.1578C17.8218 14.3398 17.7308 14.5724 17.7308 14.8558V15.8558Z"
  ></path>
</svg>
