<svg viewBox="0 0 24 24" xmlns="http://www.w3.org/2000/svg">
  <path
    d="M18.7345 4.89634C18.8896 5.05151 18.9672 5.22709 18.9672 5.42309C18.9672 5.61926 18.8896 5.79492 18.7345 5.95009L12.5577 12.1423C12.4192 12.291 12.2477 12.3623 12.0432 12.3561C11.8387 12.3499 11.6621 12.2787 11.5135 12.1423C11.3583 11.9937 11.2823 11.8155 11.2855 11.6078C11.2888 11.4002 11.3648 11.2219 11.5135 11.0731L17.6807 4.89634C17.8359 4.74117 18.0115 4.66359 18.2077 4.66359C18.4039 4.66359 18.5795 4.74117 18.7345 4.89634ZM20.4327 7.99434C20.5877 8.14951 20.6652 8.32767 20.6652 8.52884C20.6652 8.73017 20.5877 8.90842 20.4327 9.06359L14.9557 14.5308C14.8172 14.6693 14.6441 14.7402 14.4365 14.7433C14.2288 14.7465 14.0506 14.6757 13.902 14.5308C13.7531 14.3822 13.6778 14.204 13.676 13.9963C13.674 13.7887 13.7474 13.6104 13.8962 13.4616L19.3635 7.99434C19.5186 7.83917 19.6968 7.76159 19.898 7.76159C20.0993 7.76159 20.2775 7.83917 20.4327 7.99434ZM5.48646 18.4943C4.05963 17.0673 3.3478 15.3545 3.35096 13.3558C3.35413 11.3572 4.07238 9.64117 5.50571 8.20784L7.79621 5.91734C7.97871 5.73667 8.19163 5.64634 8.43496 5.64634C8.6783 5.64634 8.89038 5.73667 9.07121 5.91734L9.67296 6.51934C9.8218 6.66801 9.94105 6.82734 10.0307 6.99734C10.1205 7.16717 10.1943 7.34759 10.252 7.53859L13.9135 3.86159C14.0686 3.70659 14.2468 3.62909 14.448 3.62909C14.6493 3.62909 14.8275 3.70659 14.9827 3.86159C15.1377 4.01676 15.2152 4.19501 15.2152 4.39634C15.2152 4.59751 15.1377 4.77567 14.9827 4.93084L10.648 9.26559L8.80196 11.1058L9.28646 11.5906C9.98896 12.2931 10.33 13.136 10.3095 14.1193C10.289 15.1027 9.9223 15.9508 9.20946 16.6636L9.00196 16.8713C8.86346 17.0097 8.69038 17.0805 8.48271 17.0838C8.27505 17.087 8.0968 17.0162 7.94796 16.8713C7.7993 16.7208 7.72496 16.5422 7.72496 16.3353C7.72496 16.1285 7.7993 15.9508 7.94796 15.8021L8.14046 15.6096C8.5558 15.1943 8.7763 14.7001 8.80196 14.1271C8.82763 13.5539 8.63271 13.0597 8.21721 12.6443L7.31146 11.7538C7.1308 11.5727 7.04046 11.3575 7.04046 11.1083C7.04046 10.8592 7.12988 10.6453 7.30871 10.4668L8.58271 9.21734C8.81471 8.98534 8.93071 8.70617 8.93071 8.37984C8.93071 8.05367 8.81471 7.77451 8.58271 7.54234L8.43846 7.39809L6.55946 9.26734C5.4198 10.4072 4.84513 11.7693 4.83546 13.3538C4.82596 14.9385 5.39105 16.3008 6.53071 17.4406C7.67038 18.5803 9.03996 19.1501 10.6395 19.1501C12.2388 19.1501 13.6083 18.5803 14.748 17.4406L20.396 11.7771C20.5511 11.6219 20.7294 11.5443 20.9307 11.5443C21.132 11.5443 21.3102 11.6219 21.4652 11.7771C21.6204 11.9323 21.698 12.1104 21.698 12.3116C21.698 12.5129 21.6204 12.6912 21.4652 12.8463L15.793 18.4938C14.3591 19.9275 12.6413 20.6443 10.6395 20.6443C8.63746 20.6443 6.9198 19.9277 5.48646 18.4943Z"
  ></path>
</svg>
